<svg xmlns="http://www.w3.org/2000/svg" viewBox="0 0 500 500"><g id="freepik--Floor--inject-956"><ellipse id="freepik--floor--inject-956" cx="250" cy="348.83" rx="243.72" ry="140.71" style="fill:#fafafa"></ellipse></g><g id="freepik--Window--inject-956"><g id="freepik--window--inject-956"><g id="freepik--window--inject-956"><g id="freepik--Frame--inject-956"><polygon points="464.67 231.19 462.41 232.53 385.63 188.2 387.88 186.85 464.67 231.19" style="fill:#fafafa"></polygon><polygon points="387.88 186.85 462.41 229.88 462.41 78.94 387.88 35.94 387.88 186.85" style="fill:#fff"></polygon><path d="M381.37,190.66l85.3,49.25V76.48l-85.3-49.25Zm4.26-156,76.78,44.33V232.53L385.63,188.2Z" style="fill:#f0f0f0"></path><polygon points="385.63 188.2 387.88 186.85 387.88 35.94 385.63 34.61 385.63 188.2" style="fill:#e0e0e0"></polygon><polygon points="462.41 177.06 462.41 179.71 385.63 135.38 387.88 134.03 462.41 177.06" style="fill:#fafafa"></polygon><polygon points="462.41 124.21 462.41 126.86 385.63 82.53 387.88 81.18 462.41 124.21" style="fill:#fafafa"></polygon><polygon points="381.37 27.23 383.66 25.92 468.96 75.17 466.67 76.48 381.37 27.23" style="fill:#fafafa"></polygon><polygon points="468.96 75.17 466.67 76.48 466.67 239.91 468.96 238.6 468.96 75.17" style="fill:#e0e0e0"></polygon><polygon points="429.57 59.98 427.28 58.66 427.28 212.26 429.57 210.94 429.57 59.98" style="fill:#e0e0e0"></polygon></g><polygon points="423.02 56.21 427.28 58.66 427.28 212.26 423.02 209.79 423.02 56.21" style="fill:#f0f0f0"></polygon><polygon points="381.37 80.07 381.37 84.98 466.67 134.23 466.67 129.32 381.37 80.07" style="fill:#f0f0f0"></polygon><polygon points="381.37 132.91 381.37 137.82 466.67 187.07 466.67 182.16 381.37 132.91" style="fill:#f0f0f0"></polygon><polygon points="427.28 106.58 429.57 105.25 462.41 124.21 462.41 126.86 427.28 106.58" style="fill:#fafafa"></polygon><polygon points="427.28 159.4 429.57 158.07 462.41 177.03 462.41 179.68 427.28 159.4" style="fill:#fafafa"></polygon></g></g></g><g id="freepik--Pictures--inject-956"><g id="freepik--Picture--inject-956"><g id="freepik--frame--inject-956"><polygon points="47.66 135.03 49.59 136.17 89.03 113.4 87.11 112.25 47.66 135.03" style="fill:#fafafa"></polygon><polygon points="87.11 112.25 49.59 133.91 49.59 94.61 87.11 72.97 87.11 112.25" style="fill:#fff"></polygon><path d="M92.66,65.55,46,92.52v49.93l46.7-27ZM89,113.4,49.58,136.17V94.61L89,71.84Z" style="fill:#ebebeb"></path><polygon points="89.03 113.4 87.11 112.25 87.11 72.97 89.03 71.84 89.03 113.4" style="fill:#e0e0e0"></polygon><polygon points="92.66 65.55 90.71 64.44 44.01 91.4 45.96 92.52 92.66 65.55" style="fill:#f5f5f5"></polygon><polygon points="44.01 91.4 45.96 92.52 45.96 142.45 44.01 141.34 44.01 91.4" style="fill:#e0e0e0"></polygon></g><g id="freepik--Land--inject-956"><polygon points="85.65 111.07 51.05 131.05 51.05 121.06 59.7 101.09 65.09 106.08 63.15 114.45 75.1 88.91 85.65 101.09 85.65 111.07" style="fill:#f0f0f0"></polygon><path d="M64.76,91.44a5.67,5.67,0,0,0-2.56,4.43c0,1.64,1.15,2.3,2.56,1.48a5.63,5.63,0,0,0,2.56-4.43C67.32,91.29,66.18,90.63,64.76,91.44Z" style="fill:#f0f0f0"></path></g></g><g id="freepik--picture--inject-956"><g id="freepik--frame--inject-956"><polygon points="114.37 96.51 116.3 97.66 155.74 74.88 153.82 73.73 114.37 96.51" style="fill:#fafafa"></polygon><polygon points="153.82 73.73 116.3 95.39 116.3 56.1 153.82 34.45 153.82 73.73" style="fill:#fff"></polygon><path d="M159.37,27l-46.7,27v49.94l46.7-27Zm-3.63,47.84L116.3,97.66V56.1l39.44-22.78Z" style="fill:#ebebeb"></path><polygon points="155.74 74.88 153.82 73.73 153.82 34.45 155.74 33.32 155.74 74.88" style="fill:#e0e0e0"></polygon><polygon points="159.37 27.04 157.42 25.92 110.72 52.89 112.67 54 159.37 27.04" style="fill:#f5f5f5"></polygon><polygon points="110.72 52.89 112.67 54 112.67 103.94 110.72 102.82 110.72 52.89" style="fill:#e0e0e0"></polygon></g><g id="freepik--land--inject-956"><polygon points="152.36 72.56 117.76 92.53 117.76 82.55 126.41 62.57 131.8 67.56 129.86 75.94 141.81 50.39 152.36 62.57 152.36 72.56" style="fill:#f0f0f0"></polygon><path d="M131.47,52.93a5.66,5.66,0,0,0-2.56,4.43c0,1.63,1.15,2.29,2.56,1.48A5.65,5.65,0,0,0,134,54.4C134,52.77,132.89,52.11,131.47,52.93Z" style="fill:#f0f0f0"></path></g></g></g><g id="freepik--Shadows--inject-956"><path id="freepik--Shadow--inject-956" d="M314.06,237.38c-10.3,6-10.3,15.59,0,21.53s27,5.95,37.3,0,10.3-15.58,0-21.53S324.36,231.43,314.06,237.38Z" style="fill:#e6e6e6"></path><ellipse id="freepik--shadow--inject-956" cx="386.77" cy="404.1" rx="61.13" ry="35.29" style="fill:#e0e0e0"></ellipse><polygon id="freepik--shadow--inject-956" points="448.1 374.63 484.66 353.52 301.87 247.99 264.82 269.38 448.1 374.63" style="fill:#e0e0e0"></polygon><path id="freepik--shadow--inject-956" d="M13.16,393.36l68.38,39.43a4.28,4.28,0,0,0,3.91,0L308.1,304.25a1.2,1.2,0,0,0,0-2.27l-68.37-39.43a4.36,4.36,0,0,0-3.92,0L13.16,391.1A1.19,1.19,0,0,0,13.16,393.36Z" style="fill:#e0e0e0"></path><polygon id="freepik--shadow--inject-956" points="211.34 422.51 173.29 444.47 150.09 431.03 188.12 409.08 211.34 422.51" style="fill:#e0e0e0"></polygon><polygon id="freepik--shadow--inject-956" points="254.7 386.17 216.66 408.13 193.46 394.7 231.49 372.74 254.7 386.17" style="fill:#e0e0e0"></polygon><polygon id="freepik--shadow--inject-956" points="291.07 387.24 251.01 398.31 228.82 384.25 268.87 373.18 291.07 387.24" style="fill:#e0e0e0"></polygon></g><g id="freepik--Lamp--inject-956"><g id="freepik--lamp--inject-956"><path d="M353.72,243.49h0c0-3.1-2-6.21-6.14-8.58-8.21-4.74-21.52-4.74-29.73,0-4.1,2.37-6.14,5.48-6.13,8.58h0v2.91h0c.05,3.06,2.1,6.12,6.15,8.46,8.21,4.74,21.52,4.74,29.73,0,4.05-2.34,6.11-5.4,6.15-8.46h0Z" style="fill:#ebebeb"></path><path d="M317.84,234.91c-8.2,4.74-8.2,12.43,0,17.16s21.52,4.74,29.73,0,8.21-12.42,0-17.16S326.05,230.17,317.84,234.91Z" style="fill:#f5f5f5"></path><path d="M335,81.5h-4.53V242.14h0a1,1,0,0,0,.65,1,3.54,3.54,0,0,0,3.2,0,1,1,0,0,0,.64-1h0Z" style="fill:#e0e0e0"></path><path d="M359.79,69.77h0L349.7,32.23H315.58l-10,37.54h0c-1.82,5,.68,10.33,7.51,14.18C324,90,341.47,90,352.27,84,359.11,80.1,361.6,74.73,359.79,69.77Z" style="fill:#ebebeb"></path><path d="M320.59,40.25c6.69,3.77,17.54,3.77,24.23,0s6.69-9.89,0-13.65-17.54-3.77-24.23,0S313.9,36.48,320.59,40.25Z" style="fill:#f5f5f5"></path><path d="M332.71,40.7a21.81,21.81,0,0,1-10.5-2.42c-2.45-1.38-3.8-3.11-3.8-4.86s1.35-3.48,3.8-4.86a24,24,0,0,1,21,0c2.45,1.38,3.8,3.11,3.8,4.86s-1.35,3.48-3.8,4.86A21.8,21.8,0,0,1,332.71,40.7Z" style="fill:#e0e0e0"></path></g></g><g id="freepik--video-tapes-2--inject-956"><g id="freepik--video-tape--inject-956"><path d="M250.4,381.18a.93.93,0,0,0-.54-.76l-17.79-10.27L197.76,390v4.69l17.78,10.26a2.84,2.84,0,0,0,2.6,0l31.72-18.31a.94.94,0,0,0,.54-.75C250.4,385.59,250.39,381.45,250.4,381.18Z" style="fill:#37474f"></path><path d="M197.76,394.65V390l17.78,10.27a2.71,2.71,0,0,0,1.32.32v4.68a2.63,2.63,0,0,1-1.32-.32Z" style="fill:#263238"></path><polygon points="216.86 378.93 216.86 378.94 197.76 389.96 216.86 378.93" style="fill:#263238"></polygon><path d="M232.07,370.15l17.79,10.27a.79.79,0,0,1,0,1.5l-31.72,18.31a2.87,2.87,0,0,1-2.6,0L197.76,390Z" style="fill:#455a64"></path><polygon points="202.29 397.27 202.58 397.44 202.58 392.75 202.29 392.58 202.29 397.27"></polygon><line x1="201.81" y1="397" x2="202.29" y2="397.27"></line><polygon points="236.61 372.78 235.08 373.66 233.71 372.87 233.42 372.7 233.13 372.87 202.45 390.58 202.16 390.75 202.45 390.92 203.82 391.71 202.29 392.59 202.58 392.76 204.11 391.87 204.4 391.71 204.11 391.54 202.74 390.75 233.42 373.04 234.8 373.83 235.08 373.99 235.36 373.83 235.37 373.83 236.9 372.94 236.61 372.78"></polygon><path d="M227.69,380.27l-12.39,7.16a.26.26,0,0,0,0,.5l7.25,4.19a1,1,0,0,0,.87,0L235.81,385c.24-.13.24-.36,0-.5l-7.26-4.19A1,1,0,0,0,227.69,380.27Z" style="fill:#fff"></path><path d="M228.55,380.27a1,1,0,0,0-.86,0l-12.39,7.16a.26.26,0,0,0,0,.5l1.38.8,13.26-7.66Z" style="fill:#FF0000"></path><path d="M216.51,396.1,215,397c-.84.48-3.34-.17-5.58-1.47s-3.38-2.74-2.54-3.22l1.52-.88,4.65-2.68a1,1,0,0,1,.87,0l7.25,4.19c.24.14.24.37,0,.5Z" style="fill:#fff;opacity:0.30000000000000004"></path><path d="M221.16,393.42l-1.36.79a10.07,10.07,0,0,1-6.54-.92c-1.77-1-2.3-2.48-1.59-3.77l1.37-.79a1,1,0,0,1,.87,0l1.62.94,1,.59,1.95,1.13,1,.59,1.63.94C221.4,393.06,221.4,393.29,221.16,393.42Z" style="fill:#37474f"></path><path d="M219.53,392a4.53,4.53,0,0,1-3.73-.16c-1-.58-1.11-1.51-.27-2.15l1,.59,1.95,1.13Z" style="fill:#fff"></path><path d="M218.51,391.39a2.34,2.34,0,0,1-1.71-.14c-.46-.27-.54-.67-.24-1Z" style="fill:#e0e0e0"></path><path d="M234.6,376.28l1.53-.87c.84-.49,3.33.17,5.58,1.46s3.38,2.74,2.54,3.23l-1.52.87-4.65,2.69a1,1,0,0,1-.87,0L230,379.47c-.24-.14-.24-.37,0-.5Z" style="fill:#fff;opacity:0.30000000000000004"></path><path d="M230,379l1.36-.79a10.07,10.07,0,0,1,6.54.92c1.77,1,2.3,2.48,1.59,3.77l-1.37.79a1,1,0,0,1-.87,0l-1.62-.94-1-.59L232.61,381l-1-.59-1.63-.94C229.72,379.33,229.72,379.1,230,379Z" style="fill:#37474f"></path><path d="M231.59,380.41a4.53,4.53,0,0,1,3.73.16c1,.58,1.11,1.51.27,2.15l-1-.59L232.61,381Z" style="fill:#fff"></path><path d="M232.61,381a2.34,2.34,0,0,1,1.71.14c.46.27.54.67.24,1Z" style="fill:#e0e0e0"></path></g><g id="freepik--video-tape--inject-956"><path d="M288.21,380.23a1,1,0,0,0-.2-1l-11.84-15.92-36.6,10.3-1.63,4.86,11.84,15.92a2.29,2.29,0,0,0,2.26.78l33.82-9.53a1,1,0,0,0,.73-.61C286.68,384.8,288.11,380.51,288.21,380.23Z" style="fill:#37474f"></path><path d="M237.94,378.52l1.63-4.86,11.84,15.93a2.3,2.3,0,0,0,1,.72l-1.63,4.84a2.18,2.18,0,0,1-1-.71Z" style="fill:#263238"></path><polygon points="259.95 367.92 259.94 367.93 239.57 373.66 259.95 367.92" style="fill:#263238"></polygon><path d="M276.17,363.36,288,379.28a.93.93,0,0,1-.52,1.56l-33.82,9.52a2.26,2.26,0,0,1-2.26-.77l-11.84-15.93Z" style="fill:#455a64"></path><polygon points="240.96 382.58 241.16 382.85 242.78 377.99 242.59 377.73 240.96 382.58"></polygon><line x1="240.64" y1="382.16" x2="240.96" y2="382.59"></line><polygon points="279.19 367.43 277.56 367.88 276.64 366.66 276.45 366.4 276.14 366.49 243.42 375.7 243.11 375.79 243.31 376.05 244.22 377.27 242.59 377.73 242.78 377.99 244.41 377.53 244.72 377.45 244.53 377.19 243.62 375.96 276.33 366.75 277.26 367.98 277.44 368.23 277.74 368.14 277.75 368.15 279.38 367.68 279.19 367.43"></polygon><path d="M268.86,372.54l-13.22,3.72a.31.31,0,0,0-.17.52l4.83,6.49a.75.75,0,0,0,.75.26l13.22-3.72a.31.31,0,0,0,.17-.52l-4.83-6.5A.76.76,0,0,0,268.86,372.54Z" style="fill:#fff"></path><path d="M269.61,372.79a.76.76,0,0,0-.75-.25l-13.22,3.72a.31.31,0,0,0-.17.52l.92,1.24,14.14-4Z" style="fill:#FF0000"></path><path d="M253.69,385.6l-1.62.46c-.9.25-2.84-1.17-4.33-3.18s-2-3.84-1.08-4.1l1.62-.45,5-1.4a.74.74,0,0,1,.75.26l4.83,6.5a.3.3,0,0,1-.18.51Z" style="fill:#fff;opacity:0.30000000000000004"></path><path d="M258.64,384.2l-1.45.42a8,8,0,0,1-5.34-2.9c-1.18-1.58-1.13-3.25-.07-4.38l1.46-.41a.74.74,0,0,1,.75.26l1.08,1.46.69.91,1.29,1.75.68.92,1.09,1.46A.3.3,0,0,1,258.64,384.2Z" style="fill:#37474f"></path><path d="M257.73,382.23a3.55,3.55,0,0,1-3.17-1.28,1.4,1.4,0,0,1,.51-2.3l.69.91,1.29,1.75Z" style="fill:#fff"></path><path d="M257.05,381.31a1.82,1.82,0,0,1-1.43-.65.72.72,0,0,1,.14-1.1Z" style="fill:#e0e0e0"></path><path d="M276.23,370.47l1.62-.46c.9-.25,2.84,1.17,4.33,3.18s2,3.84,1.08,4.09l-1.62.46-5,1.39a.72.72,0,0,1-.75-.26l-4.83-6.49a.31.31,0,0,1,.18-.52Z" style="fill:#fff;opacity:0.30000000000000004"></path><path d="M271.28,371.86l1.45-.41a7.94,7.94,0,0,1,5.34,2.9c1.18,1.58,1.13,3.25.07,4.37l-1.46.41a.72.72,0,0,1-.75-.26l-1.08-1.45-.69-.92-1.29-1.75-.68-.91-1.09-1.46A.31.31,0,0,1,271.28,371.86Z" style="fill:#37474f"></path><path d="M272.19,373.84a3.54,3.54,0,0,1,3.17,1.27,1.41,1.41,0,0,1-.51,2.31l-.69-.92-1.29-1.75Z" style="fill:#fff"></path><path d="M272.87,374.75a1.89,1.89,0,0,1,1.43.65.72.72,0,0,1-.14,1.1Z" style="fill:#e0e0e0"></path></g><g id="freepik--video-tape--inject-956"><polygon points="188.33 405.18 188.33 411.36 207.41 422.38 207.41 416.2 188.33 405.18" style="fill:#FF0000"></polygon><polygon points="188.33 405.18 188.33 411.36 207.41 422.38 207.41 416.2 188.33 405.18" style="opacity:0.2"></polygon><path d="M207.41,422.38l-14.32,8.27a6.25,6.25,0,0,0-5.68,0c-1.57.9-1.57,2.37,0,3.28l-14.32,8.26-19.08-11,34.31-19.81Z" style="fill:#FF0000"></path><path d="M206.65,417.09a.91.91,0,0,0-.54-.77l-17.79-10.27L154,425.86v4.69l17.78,10.27a2.89,2.89,0,0,0,2.61,0l31.71-18.31a.89.89,0,0,0,.54-.74C206.65,421.49,206.64,417.35,206.65,417.09Z" style="fill:#37474f"></path><path d="M154,430.55v-4.69l17.79,10.27a2.67,2.67,0,0,0,1.31.32v4.68a2.63,2.63,0,0,1-1.32-.31Z" style="fill:#263238"></path><polygon points="173.11 414.83 173.11 414.84 154.01 425.86 173.11 414.83" style="fill:#263238"></polygon><path d="M188.32,406.05l17.79,10.27c.72.42.72,1.09,0,1.5L174.4,436.13a2.84,2.84,0,0,1-2.6,0L154,425.86Z" style="fill:#455a64"></path><polygon points="158.55 433.18 158.84 433.34 158.84 428.65 158.55 428.49 158.55 433.18"></polygon><line x1="158.07" y1="432.9" x2="158.55" y2="433.18"></line><polygon points="192.86 408.68 191.33 409.56 189.96 408.77 189.67 408.6 189.38 408.77 158.7 426.48 158.41 426.65 158.7 426.82 160.07 427.61 158.54 428.49 158.83 428.66 160.36 427.77 160.65 427.61 160.36 427.44 158.99 426.65 189.67 408.94 191.05 409.73 191.33 409.89 191.61 409.73 191.62 409.73 193.15 408.84 192.86 408.68"></polygon><path d="M183.94,416.17l-12.39,7.16a.26.26,0,0,0,0,.5l7.26,4.19a.93.93,0,0,0,.86,0l12.4-7.15a.27.27,0,0,0,0-.5l-7.26-4.2A1,1,0,0,0,183.94,416.17Z" style="fill:#fff"></path><path d="M184.81,416.17a1,1,0,0,0-.87,0l-12.39,7.16a.26.26,0,0,0,0,.5l1.39.8L186.2,417Z" style="fill:#FF0000"></path><path d="M172.77,432l-1.52.88c-.84.48-3.34-.17-5.59-1.47s-3.38-2.74-2.54-3.22l1.52-.88,4.65-2.68a1,1,0,0,1,.87,0l7.25,4.19c.24.14.24.37,0,.5Z" style="fill:#fff;opacity:0.30000000000000004"></path><path d="M177.41,429.32l-1.36.79a10.07,10.07,0,0,1-6.54-.92c-1.77-1-2.3-2.48-1.59-3.77l1.37-.79a1,1,0,0,1,.87,0l1.62.94,1,.59,1.95,1.13,1,.59,1.63.94C177.65,429,177.65,429.19,177.41,429.32Z" style="fill:#37474f"></path><path d="M175.78,427.88a4.53,4.53,0,0,1-3.73-.16c-1-.58-1.11-1.51-.27-2.15l1,.59,1.95,1.13Z" style="fill:#fff"></path><path d="M174.76,427.29a2.34,2.34,0,0,1-1.71-.14c-.46-.27-.54-.67-.24-1Z" style="fill:#e0e0e0"></path><path d="M190.86,412.19l1.52-.88c.84-.49,3.34.17,5.58,1.47s3.38,2.73,2.54,3.22l-1.52.88-4.65,2.68a1,1,0,0,1-.87,0l-7.25-4.19c-.24-.14-.24-.37,0-.5Z" style="fill:#fff;opacity:0.30000000000000004"></path><path d="M186.21,414.87l1.36-.79a10.07,10.07,0,0,1,6.54.92c1.77,1,2.3,2.48,1.59,3.77l-1.37.79a1,1,0,0,1-.87,0l-1.62-.94-1-.59-1.95-1.13-1-.59-1.63-.94C186,415.23,186,415,186.21,414.87Z" style="fill:#37474f"></path><path d="M187.84,416.31a4.53,4.53,0,0,1,3.73.16c1,.58,1.11,1.51.27,2.15l-1-.59-1.95-1.13Z" style="fill:#fff"></path><path d="M188.86,416.9a2.34,2.34,0,0,1,1.71.14c.46.27.54.67.24,1Z" style="fill:#e0e0e0"></path><path d="M207.41,416.2l-14.32,8.27a6.25,6.25,0,0,0-5.68,0c-1.57.9-1.57,2.37,0,3.28L173.09,436,154,425l34.31-19.81Z" style="fill:#FF0000"></path><polygon points="154.01 424.99 154.01 431.17 173.09 442.19 173.09 436.01 154.01 424.99" style="fill:#FF0000"></polygon><polygon points="154.01 424.99 154.01 431.17 173.09 442.19 173.09 436.01 154.01 424.99" style="opacity:0.2"></polygon><path d="M198.4,423.47v2.34a.59.59,0,0,1-.26.45l-15.77,9.1c-.15.09-.26,0-.26-.15v-2.33a.55.55,0,0,1,.26-.45l15.77-9.11A.16.16,0,0,1,198.4,423.47Z" style="fill:#f5f5f5"></path></g></g><g id="freepik--video-tape-1--inject-956"><g id="freepik--video-tape--inject-956"><path d="M294.51,117.1,274.2,128.83V258.12c0,5.21,3,11.18,6.74,13.33l164.49,95a4.17,4.17,0,0,0,4.28.32c1.5-.87,19.15-11.05,20.31-11.73,1.5-.87,2.45-2.95,2.45-5.88V219.85Z" style="fill:#FF0000"></path><path d="M294.51,117.1,274.2,128.83V258.12c0,5.21,3,11.18,6.74,13.33l164.49,95a4.17,4.17,0,0,0,4.28.32c1.5-.87,19.15-11.05,20.31-11.73,1.5-.87,2.45-2.95,2.45-5.88V219.85Z" style="fill:#fff;opacity:0.30000000000000004"></path><polygon points="472.47 252.99 472.47 255.03 452.16 266.7 452.16 264.57 472.47 252.99" style="fill:#FF0000"></polygon><polygon points="472.47 252.99 472.47 255.03 452.16 266.7 452.16 264.57 472.47 252.99" style="opacity:0.2"></polygon><path d="M274.2,128.83V258.12c0,5.21,3,11.18,6.74,13.33l164.49,95c3.72,2.15,6.73-.35,6.73-5.56V231.57Z" style="fill:#FF0000"></path><path d="M274.2,128.83V258.12c0,5.21,3,11.18,6.74,13.33l164.49,95c3.72,2.15,6.73-.35,6.73-5.56V231.57Z" style="fill:#fff;opacity:0.5"></path><polygon points="274.2 128.83 294.51 117.1 472.47 219.85 452.16 231.57 274.2 128.83" style="fill:#FF0000"></polygon><polygon points="274.2 128.83 294.51 117.1 472.47 219.85 452.16 231.57 274.2 128.83" style="fill:#fff;opacity:0.7000000000000001"></polygon><polygon points="452.16 264.57 444.27 260.04 444.28 250.09 444.27 247.96 442.75 247.07 283.64 155.23 282.13 154.34 282.14 156.47 282.14 166.42 274.22 161.87 274.2 162.71 274.2 163.92 282.15 168.55 282.17 168.53 283.62 169.35 283.63 167.33 283.66 157.36 442.76 249.2 442.76 259.15 442.77 261.28 444.24 262.08 452.16 266.7 452.16 264.57" style="fill:#FF0000"></polygon><path d="M331,209.43l64.27,37.11a5.54,5.54,0,0,1,2.25,4.44v52.76c0,1.73-1,2.56-2.25,1.85L331,268.48a5.56,5.56,0,0,1-2.24-4.44V211.28C328.78,209.54,329.79,208.72,331,209.43Z" style="fill:#fff"></path><path d="M334.11,234.35,391,267.18a.47.47,0,0,0,.25.07.5.5,0,0,0,.25-.93l-56.87-32.83a.5.5,0,0,0-.5.86Zm57.37,41.35-56.87-32.83a.5.5,0,1,0-.5.86L391,276.56a.47.47,0,0,0,.25.07.5.5,0,0,0,.25-.93Zm0,9.38-56.87-32.83a.5.5,0,0,0-.5.86L391,286a.57.57,0,0,0,.25.06.5.5,0,0,0,.25-.93Zm0,9.38-56.87-32.83a.5.5,0,0,0-.5.86L391,295.33a.57.57,0,0,0,.25.06.5.5,0,0,0,.25-.93Z" style="fill:#e0e0e0"></path><path d="M328.78,211.28c0-1.74,1-2.56,2.25-1.85l64.27,37.11a5.54,5.54,0,0,1,2.25,4.44v10.09l-68.77-39.7Z" style="fill:#455a64"></path><path d="M345.64,248.1a6.12,6.12,0,0,1,.17,1c0,.38-.24.44-.44.34l-.05,0c-.32-.18-.41-.67-.48-1.1l-.28-1.57-.23-1.15c-.51-.28-1-.56-1.53-.81l-.95-.43-.2-.09c-.18.57-.38,1.15-.54,1.75-.12.36-.17.93-.54.72a1.14,1.14,0,0,1-.49-1,1,1,0,0,1,.09-.44l.56-1.74a1.31,1.31,0,0,1-.1-.56c0-.5.2-.54.44-.45l.6-1.79c.33-.93.7-1.89,1-2.87l.08-.26c.1-.34.19-.45.42-.37l.14.07a.8.8,0,0,1,.26.29,1.28,1.28,0,0,1,.16.54c.18,1,.37,2.08.57,3.12.38,2,.8,4,1.2,6Zm-1.59-4-.1-.5-.58-2.83-.21-1-.07.21-.79,2.26c-.1.29-.2.57-.29.87C342.69,243.47,343.37,243.78,344.05,244.1Z" style="fill:#455a64"></path><path d="M347.63,240.09v2.29c0,.21,0,1.06,0,2l.05,3.28c0,1.23,0,1,0,1.49V250c0,.42-.14.57-.47.38a1.23,1.23,0,0,1-.44-1,.91.91,0,0,1,0-.17v-.75c0-1.16,0-2.18,0-3.26,0-1.36,0-2.82-.06-4.84l0-.72v-.11a.79.79,0,0,1,.06-.35.34.34,0,0,1,.44-.11A1.3,1.3,0,0,1,347.63,240.09Z" style="fill:#455a64"></path><path d="M353.19,250.24c0,.11-.09.19-.2.21s-.29,0-.59-.2c-2.72-1.33-2.1-1-2.75-1.29l-.21-.11a3.32,3.32,0,0,0,1.39,2.47,1.12,1.12,0,0,0,.66.17c.24-.06.44-.31.64-.19a1.68,1.68,0,0,1,.59,1.08c0,.37-.16.44-.24.48a1.5,1.5,0,0,1-1.6-.13,4.38,4.38,0,0,1-1.52-1.74,6.6,6.6,0,0,1-.76-3c0-1.78.78-3.17,1.94-3a1.55,1.55,0,0,1,.62.22c1.45.84,2.08,3.73,2.08,4.7A1,1,0,0,1,353.19,250.24ZM350,247.76a11.16,11.16,0,0,0,2.17,1h0a3,3,0,0,0-1.13-2.33c-.58-.34-1.32-.11-1.57,1Z" style="fill:#455a64"></path><path d="M357.77,254.93a2.69,2.69,0,0,1,.3.93c0,.31-.12.61-.46.41a1,1,0,0,1-.41-.55c-.38-1-.8-2-1.2-3-.12.23-.24.45-.36.7l-.47.93c-.2.39-.39.43-.63.29a1.2,1.2,0,0,1-.41-.92,1.1,1.1,0,0,1,.22-.62c.6-1,.89-1.4,1.09-1.73-.17-.43-.34-.83-.5-1.18-.55-1.25-.43-1-.62-1.39a3,3,0,0,1-.38-1.13.63.63,0,0,1,.14-.42.24.24,0,0,1,.35,0c.26.14.43.58.57.92.31.79.54,1.41.93,2.39l.43-.8.43-.8c.13-.29.24-.45.47-.32a1.34,1.34,0,0,1,.48,1,.53.53,0,0,1-.13.38c-.38.62-.76,1.24-1.13,1.86.22.52.46,1.12.76,1.83Z" style="fill:#455a64"></path><path d="M359.53,247.09a1.1,1.1,0,0,1,.41,1,1.18,1.18,0,0,1,0,.27c0,.24,0,.45,0,.69s0,.52,0,.79,0,.77-.4.55a1.25,1.25,0,0,1-.5-1.17c0-.45,0-.89,0-1.33s0-1.08.44-.84Z" style="fill:#455a64"></path><path d="M364.38,253.76c0,.45-.35.48-.51.38a1.23,1.23,0,0,1-.24-.22,3.6,3.6,0,0,0-.59-.44c-.61-.35-1.22-.41-1.22.12s.8.91,1.35,1.24a3.87,3.87,0,0,1,2.05,3.43c0,1.83-1.27,2-2.43,1.31a3.8,3.8,0,0,1-1.2-1.1,3.2,3.2,0,0,1-.65-1.46.31.31,0,0,1,.47-.3c.29.17.45.59.55.73a2.8,2.8,0,0,0,.87.83c.46.26,1.54.66,1.54-.5a2,2,0,0,0-1.24-1.67c-1.1-.64-2.17-1.38-2.17-3.05a1.33,1.33,0,0,1,.46-1.15,1.64,1.64,0,0,1,1.67.24C363.64,252.47,364.38,253,364.38,253.76Z" style="fill:#455a64"></path><path d="M374.36,262.28a3.29,3.29,0,0,1-.07.71c-.42,2.07-2.24,2.05-3.56,1.29a5.37,5.37,0,0,1-2.12-2.39,5.8,5.8,0,0,1-.62-2.44,3.12,3.12,0,0,1,.44-1.68,1.51,1.51,0,0,1,.72-.64,3.4,3.4,0,0,1-.28-.45,3.93,3.93,0,0,1-.47-1.76c0-1.64,1.16-1.9,2.11-1.58a2.77,2.77,0,0,1,.65.31,1.55,1.55,0,0,1,.52.41.21.21,0,0,1,.1,0,.84.84,0,0,1,.27.23,4.53,4.53,0,0,1,1.26,2.81,2,2,0,0,1-.2.95,1.16,1.16,0,0,1-.35.43A6.22,6.22,0,0,1,374.36,262.28Zm-.85-.46a3.79,3.79,0,0,0-1.37-2.51l-.09-.08a.75.75,0,0,1-.2-.09l-.35-.2c-.72-.42-1.76-.78-2.35,0a1.63,1.63,0,0,0-.31,1,3.44,3.44,0,0,0,.31,1.26,4,4,0,0,0,1.63,1.82C371.94,263.7,373.51,263.54,373.51,261.82Zm-4.25-6.41a2.05,2.05,0,0,0,1.08,1.53l.1.05a3,3,0,0,0,.84.34c.47.1,1.17,0,1.17-.61a1.72,1.72,0,0,0-.34-.86,3.66,3.66,0,0,0-.49-.52l-.1-.05c-.12-.07-.32-.22-.56-.36C370.35,254.57,369.26,254.35,369.26,255.41Z" style="fill:#455a64"></path><path d="M380.32,263.06c0,.38-.2.51-.48.34a.64.64,0,0,1-.16-.11l-.68-.4h0v1.63c0,.49,0,1.95.06,3l0,.71c0,.62-.15.69-.38.56a1.31,1.31,0,0,1-.54-1.09c0-1.16,0-1.74,0-2.62s0-1.9,0-2.63l-.3-.12-.5-.2a1,1,0,0,1-.31-.87c0-.78.32-.57,1.06-.15,0-.55-.06-1-.06-1.57,0-.17,0-.43.2-.46a.36.36,0,0,1,.24.07c.43.25.5.92.5,1.59,0,.28,0,.54,0,.79.3.14.58.27.76.37A1.29,1.29,0,0,1,380.32,263.06Z" style="fill:#455a64"></path><path d="M385.42,270.31v.87c0,1,0,1.27-.5,1a1.18,1.18,0,0,1-.43-1c0-.62,0-1.23,0-1.8a14.38,14.38,0,0,0-.21-2.8c-.17-.8-.43-1.08-.73-1.24a1.16,1.16,0,0,0-1.07-.12,1.19,1.19,0,0,0-.47.48c0,.45,0,.87,0,1.31l0,1.46c0,.41,0,.85,0,1.24,0,.76-.17.87-.42.72a1.3,1.3,0,0,1-.49-1c0-1.37,0-2.3,0-4.71,0,0,0-.32,0-1.05,0-.39-.07-3.15-.07-3.86a2.45,2.45,0,0,1,.05-.65c.07-.25.24-.3.43-.19.41.23.48.74.48,1.39,0,.17,0,2.12-.05,3.42a1.85,1.85,0,0,1,1.53.21c1.31.75,1.66,2.78,1.78,4.22C385.41,268.9,385.42,269.51,385.42,270.31Z" style="fill:#455a64"></path><path d="M354,265.43a3.12,3.12,0,0,1-.72,2.27,1.71,1.71,0,0,1-2,.12,3.27,3.27,0,0,1-.56-.42,5.43,5.43,0,0,1-.48-.48.27.27,0,0,1-.25,0,1.13,1.13,0,0,1-.51-1,.42.42,0,0,1,0-.18c0-.21,0-1.14,0-1.4,0-1.31,0-.71,0-1.44V262c0-.68,0-1.37,0-2.06l-.06-3.66a1.72,1.72,0,0,1,.08-.7.23.23,0,0,1,.36-.08c.48.27.53,1,.53,1.34s0,.79,0,1.07l0,2.17v.1a2.08,2.08,0,0,1,.52,0,2.7,2.7,0,0,1,.92.36C353.13,261.37,354,263.52,354,265.43Zm-.83-.46a3.78,3.78,0,0,0-1.44-3.13,1.54,1.54,0,0,0-1.37-.09V263c0,.8,0,2,0,2.68h0a3.08,3.08,0,0,0,.89.88C352.26,267.05,353.21,266.44,353.21,265Z" style="fill:#455a64"></path><path d="M358.74,267.63c0,.65-.32.61-.56.47-.63-.32-1.25-.71-1.88-1-.31-.14-.6-.17-.88-.33a1,1,0,0,1-.47-.94c0-.55.26-.57.49-.46.86.38,1.72.87,2.59,1.24a2.53,2.53,0,0,1,.29.14A.94.94,0,0,1,358.74,267.63Z" style="fill:#455a64"></path><path d="M364.09,273.25a6.87,6.87,0,0,0,.06,1.08,1,1,0,0,1,0,.19.33.33,0,0,1-.45.35l-.07,0a1,1,0,0,1-.35-.57,1.52,1.52,0,0,1-1.32-.2,4.09,4.09,0,0,1-1.47-1.55,6.82,6.82,0,0,1-.86-3.39c0-1.93.7-2.94,1.78-2.89a2.08,2.08,0,0,1,1,.31,4,4,0,0,1,.85.65v-3a1.22,1.22,0,0,1,.1-.6.36.36,0,0,1,.5-.1,1,1,0,0,1,.33.84,3.67,3.67,0,0,1,0,.38c0,1.14-.06,3.49-.06,4.68v3.82Zm-.89-.59,0,0c0-1.06,0-2.83,0-3.73v-.11a6.49,6.49,0,0,0-1-.9c-1.27-.73-1.81.46-1.81,1.69a4.38,4.38,0,0,0,.41,1.93,2.59,2.59,0,0,0,1,1.2C362.57,273.11,362.86,272.78,363.2,272.66Z" style="fill:#455a64"></path><path d="M369.9,277.53c0,.53-.31.64-.49.53a1.72,1.72,0,0,1-.47-.92,1.65,1.65,0,0,1-1.57-.15,5.77,5.77,0,0,1-2.28-4.81,3.89,3.89,0,0,1,.47-2,1.47,1.47,0,0,1,2.14-.4,4.53,4.53,0,0,1,1.17,1.09c0-.19.1-.34.25-.36a.42.42,0,0,1,.31.06c.31.18.35.71.35.89s0,.28,0,.39c-.07.59-.09,2.27-.09,2.71s0,1.71,0,2.1S369.9,277.27,369.9,277.53Zm-1.15-2.22.07-.18v-2.55c-.05-.08-.08-.16-.12-.22a2.76,2.76,0,0,0-1.08-1.22c-.86-.49-1.71,0-1.71,1.6a3.57,3.57,0,0,0,1.45,2.94C367.89,276,368.52,276,368.75,275.31Z" style="fill:#455a64"></path><path d="M375,274.54a1.66,1.66,0,0,1-.13.61l-.71,2.25c-.51,1.6-1,3.15-1.36,4.66-.21.77-.23.93-.25,1-.07.25-.15.55-.4.4a1.33,1.33,0,0,1-.51-1.08.84.84,0,0,1,.07-.35c.25-.89.53-1.84.81-2.77v0c-.27-.9-.35-1.23-.62-2.13-.56-1.92-.63-2.08-1-3.43l-.17-.56a1.78,1.78,0,0,1-.08-.44v-.05c0-.45.26-.62.46-.51a1.53,1.53,0,0,1,.47,1c.45,1.7.88,3.18,1.4,4.83.33-1.13.66-2.17.9-3l.15-.58c.09-.34.17-.72.36-.78a.23.23,0,0,1,.12,0A1.19,1.19,0,0,1,375,274.54Z" style="fill:#455a64"></path><path d="M431.09,326.21l7.89,4.56c4.36,2.51,7.89-8.66,7.89-25s-3.54-31.55-7.89-34.07l-7.89-4.55L407,253.26c-1.25-.73-2.26.1-2.26,1.86l0,52.73a5.51,5.51,0,0,0,2.25,4.44Z" style="fill:#fff;opacity:0.7000000000000001"></path><path d="M407,312.29l7.07,4.12c7.65-1.15,12.85-9.33,12.83-22.15s-5.17-27-12.81-36.91l-7.1-4.09c-1.25-.73-2.26.1-2.26,1.86l0,11.81,0,7.45,0,14.21v19.26A5.51,5.51,0,0,0,407,312.29Z" style="fill:#263238"></path><path d="M404.75,296c5.06,1.87,9-2,8.95-9.39s-3.9-15.79-9-19.69l0,7.45,0,14.21Z" style="fill:#fff"></path><path d="M404.74,288.59c2.17.35,3.76-1.59,3.81-4.9a14.06,14.06,0,0,0-3.83-9.31Z" style="fill:#e0e0e0"></path><path d="M295.18,188.77l-7.89-4.56c-4.35-2.52-7.88,8.66-7.88,25s3.53,31.56,7.89,34.07l7.88,4.56,24.12,13.92c1.25.73,2.26-.1,2.25-1.86l0-52.73a5.54,5.54,0,0,0-2.24-4.45Z" style="fill:#fff;opacity:0.7000000000000001"></path><path d="M319.29,202.68l-7.08-4.11c-7.65,1.14-12.84,9.32-12.82,22.15s5.17,27,12.81,36.91l7.1,4.09c1.25.73,2.26-.1,2.25-1.86l0-11.82,0-7.44,0-14.21V207.13A5.54,5.54,0,0,0,319.29,202.68Z" style="fill:#263238"></path><path d="M321.53,219c-5.06-1.88-9,2-8.95,9.39s3.9,15.79,8.95,19.68l0-7.44,0-14.21Z" style="fill:#fff"></path><path d="M321.53,226.39c-2.16-.36-3.75,1.58-3.8,4.9a14.1,14.1,0,0,0,3.82,9.31Z" style="fill:#e0e0e0"></path></g></g><g id="freepik--Device--inject-956"><g id="freepik--tv-stand--inject-956"><path d="M294.55,304.44l-207.79,120a7.22,7.22,0,0,1-6.53,0L25.52,392.83a7.22,7.22,0,0,1-3.26-5.66V327.62A7.21,7.21,0,0,1,25.52,322l207.8-120a7.2,7.2,0,0,1,6.52,0l54.71,31.58a7.21,7.21,0,0,1,3.26,5.65v59.56A7.21,7.21,0,0,1,294.55,304.44Z" style="fill:#e0e0e0"></path><path d="M294.55,304.44l-207.79,120a7.22,7.22,0,0,1-6.53,0L25.52,392.83a7.22,7.22,0,0,1-3.26-5.66V327.62A7.21,7.21,0,0,1,25.52,322l207.8-120a7.2,7.2,0,0,1,6.52,0l54.71,31.58a7.21,7.21,0,0,1,3.26,5.65v59.56A7.21,7.21,0,0,1,294.55,304.44Z" style="opacity:0.2"></path><path d="M231.05,265.17a3,3,0,0,0,1-1.73l61.23,35.35a2.94,2.94,0,0,1-1,1.74L88,418.46,26.78,383.11Z" style="fill:#fafafa"></path><path id="freepik--shadow--inject-956" d="M204.14,305.24,238,324.79a6.72,6.72,0,0,0,6.08,0l41.77-24.38c1.68-1,1.68-2.55,0-3.52L252,277.34a6.72,6.72,0,0,0-6.08,0l-41.77,24.38C202.46,302.69,202.46,304.27,204.14,305.24Z" style="opacity:0.2"></path><path d="M208.42,301.47v2.88l31.36,18.11a2.87,2.87,0,0,0,1.13.39,3.14,3.14,0,0,0,2-.39l39.61-22.84v-3L244.05,318.9a6,6,0,0,1-5.42,0Z" style="fill:#FF0000"></path><path d="M208.42,301.47v2.88l31.36,18.11a2.87,2.87,0,0,0,1.13.39,3.14,3.14,0,0,0,2-.39l39.61-22.84v-3L244.05,318.9a6,6,0,0,1-5.42,0Z" style="fill:#fff;opacity:0.6000000000000001"></path><path d="M208.42,301.47v2.88l31.36,18.11a2.87,2.87,0,0,0,1.13.39l.44,0v-3.32a5.47,5.47,0,0,1-2.72-.65Z" style="fill:#FF0000;opacity:0.2"></path><path d="M238.63,318.9l-30.21-17.44a6,6,0,0,1-2.71-4.7v-5.59a6,6,0,0,1,2.71-4.7l38.46-22.17a6,6,0,0,1,5.43,0l30.21,17.44a6,6,0,0,1,2.71,4.7V292a5.85,5.85,0,0,1-2.71,4.6L244.06,318.9A6,6,0,0,1,238.63,318.9Z" style="fill:#455a64"></path><path d="M241.34,279.71l-32.92,6.76a6,6,0,0,0-2.71,4.7v5.59a6,6,0,0,0,2.71,4.7l30.21,17.44a5.46,5.46,0,0,0,2.71.65Z" style="fill:#263238"></path><path d="M208.42,289.61l30.21,17.44a6,6,0,0,0,5.43,0l38.46-22.18c1.49-.86,1.49-2.27,0-3.13L252.31,264.3a6,6,0,0,0-5.43,0l-38.46,22.17C206.92,287.34,206.92,288.74,208.42,289.61Z" style="fill:#37474f"></path><path d="M242.55,284.67c-1.61.93-1.61,2.44,0,3.36a6.5,6.5,0,0,0,5.83,0c1.61-.93,1.61-2.43,0-3.36A6.5,6.5,0,0,0,242.55,284.67Z" style="fill:#fafafa"></path><path d="M277.59,290.68a2.36,2.36,0,0,0-1.06,1.85c0,.69.48,1,1.06.64a2.32,2.32,0,0,0,1.06-1.85C278.65,290.64,278.18,290.35,277.59,290.68Z" style="fill:#fafafa"></path><path d="M277.59,294.78a2.35,2.35,0,0,0-1.06,1.85c0,.68.48,1,1.06.64a2.32,2.32,0,0,0,1.06-1.85C278.65,294.74,278.18,294.45,277.59,294.78Z" style="fill:#fafafa"></path><g id="freepik--Player--inject-956"><polygon points="232.8 330.25 174.97 296.87 99.8 340.27 157.63 373.65 232.8 330.25" style="opacity:0.2"></polygon><polygon points="160.52 367.42 160.52 369.09 174.98 360.74 174.98 359.07 160.52 367.42" style="fill:#FF0000"></polygon><polygon points="160.52 367.42 160.52 369.09 159.07 368.25 160.52 367.42" style="fill:#FF0000"></polygon><polygon points="160.52 367.42 160.52 369.09 159.07 368.25 160.52 367.42" style="opacity:0.30000000000000004"></polygon><polygon points="215.45 335.7 215.45 337.37 229.91 329.02 229.91 327.35 215.45 335.7" style="fill:#FF0000"></polygon><polygon points="215.46 335.7 215.45 337.37 214.01 336.54 215.46 335.7" style="fill:#FF0000"></polygon><polygon points="215.46 335.7 215.45 337.37 214.01 336.54 215.46 335.7" style="opacity:0.30000000000000004"></polygon><polygon points="157.63 369.09 157.63 352.39 99.8 319.01 99.8 335.7 157.63 369.09" style="fill:#FF0000"></polygon><polygon points="157.63 352.39 232.8 308.99 232.8 325.69 157.63 369.09 157.63 352.39" style="fill:#FF0000"></polygon><polygon points="157.63 352.39 232.8 308.99 232.8 325.69 157.63 369.09 157.63 352.39" style="fill:#fff;opacity:0.15"></polygon><polygon points="232.8 308.99 174.97 275.61 99.8 319.01 157.63 352.39 232.8 308.99" style="fill:#FF0000"></polygon><polygon points="232.8 308.99 174.97 275.61 99.8 319.01 157.63 352.39 232.8 308.99" style="fill:#fff;opacity:0.30000000000000004"></polygon><polygon points="147.82 363.42 148.59 363.87 148.59 347.18 147.82 346.73 147.82 363.42" style="opacity:0.30000000000000004"></polygon><polygon points="108.83 340.92 109.61 341.37 109.61 324.67 108.83 324.22 108.83 340.92" style="opacity:0.30000000000000004"></polygon><g style="opacity:0.5"><path d="M141.31,354.28a2.25,2.25,0,0,1-1.12-.34,5.32,5.32,0,0,1-2.4-4.16,1.58,1.58,0,0,1,2.58-1.49,5.33,5.33,0,0,1,2.4,4.16,1.8,1.8,0,0,1-.77,1.66A1.33,1.33,0,0,1,141.31,354.28Zm-2.06-6a1,1,0,0,0-.52.13,1.46,1.46,0,0,0-.59,1.34,4.93,4.93,0,0,0,2.23,3.86,1.23,1.23,0,0,0,2-1.19,4.92,4.92,0,0,0-2.22-3.85A2,2,0,0,0,139.25,348.31Z"></path></g><g style="opacity:0.5"><path d="M141.12,351.6a1.87,1.87,0,0,0-.84-1.45c-.46-.26-.84,0-.84.49a1.87,1.87,0,0,0,.84,1.45C140.74,352.35,141.12,352.14,141.12,351.6Z"></path></g><g style="opacity:0.5"><path d="M118,338.25a1.85,1.85,0,0,0-.84-1.45c-.46-.27-.84-.05-.84.48a1.85,1.85,0,0,0,.84,1.45C117.61,339,118,338.78,118,338.25Z"></path></g><g style="opacity:0.5"><path d="M118.18,340.93a2.22,2.22,0,0,1-1.12-.34,5.33,5.33,0,0,1-2.4-4.16,1.58,1.58,0,0,1,2.58-1.49,5.32,5.32,0,0,1,2.4,4.16,1.77,1.77,0,0,1-.77,1.65A1.34,1.34,0,0,1,118.18,340.93Zm-2.06-6a1,1,0,0,0-.52.14,1.44,1.44,0,0,0-.59,1.34,4.93,4.93,0,0,0,2.23,3.85,1.45,1.45,0,0,0,1.46.16,1.47,1.47,0,0,0,.58-1.34,4.9,4.9,0,0,0-2.22-3.85A1.9,1.9,0,0,0,116.12,335Z"></path></g><path d="M177.47,345.1l-.43-.25a.66.66,0,0,0-.67.06,2.12,2.12,0,0,0-1,1.65.67.67,0,0,0,.28.62l.44.25a.64.64,0,0,0,.67-.07,2.08,2.08,0,0,0,.95-1.65A.65.65,0,0,0,177.47,345.1Z" style="fill:#37474f"></path><path d="M175.85,346.81a.65.65,0,0,0,.28.62.64.64,0,0,0,.67-.07,2.08,2.08,0,0,0,.95-1.65.65.65,0,0,0-.28-.61.66.66,0,0,0-.67.06A2.11,2.11,0,0,0,175.85,346.81Z" style="fill:#FF0000"></path><path d="M220.41,320.32l-.44-.25a.64.64,0,0,0-.67.07,2.08,2.08,0,0,0-1,1.64.67.67,0,0,0,.27.62l.44.25a.66.66,0,0,0,.67-.06,2.11,2.11,0,0,0,1-1.65A.67.67,0,0,0,220.41,320.32Z" style="fill:#37474f"></path><path d="M218.78,322a.58.58,0,0,0,.95.55,2.11,2.11,0,0,0,1-1.65.67.67,0,0,0-.27-.62.66.66,0,0,0-.68.07A2.11,2.11,0,0,0,218.78,322Z" style="fill:#fafafa"></path><path d="M177.47,352.91l-.43-.25a.67.67,0,0,0-.67.07,2.09,2.09,0,0,0-1,1.65.69.69,0,0,0,.28.62l.44.25a.67.67,0,0,0,.67-.07,2.08,2.08,0,0,0,.95-1.65A.66.66,0,0,0,177.47,352.91Z" style="fill:#37474f"></path><path d="M175.85,354.63a.58.58,0,0,0,1,.55,2.08,2.08,0,0,0,.95-1.65.66.66,0,0,0-.28-.62.69.69,0,0,0-.67.07A2.1,2.1,0,0,0,175.85,354.63Z" style="fill:#fafafa"></path><path d="M172.79,350.73l-2-1.14a3,3,0,0,0-3.06.3,9.58,9.58,0,0,0-4.34,7.51,3.06,3.06,0,0,0,1.27,2.81l2,1.14a3,3,0,0,0,3.06-.3,9.58,9.58,0,0,0,4.34-7.51A3,3,0,0,0,172.79,350.73Z" style="fill:#37474f"></path><path d="M165.39,358.54a2.64,2.64,0,0,0,4.33,2.51,9.58,9.58,0,0,0,4.34-7.51,3,3,0,0,0-1.27-2.81,3.06,3.06,0,0,0-3.07.3A9.61,9.61,0,0,0,165.39,358.54Z" style="fill:#fafafa"></path><path d="M168.9,359.16a.58.58,0,0,0,.24.53.57.57,0,0,0,.58-.06,1.81,1.81,0,0,0,.83-1.42.57.57,0,0,0-.24-.53.58.58,0,0,0-.59.05A1.84,1.84,0,0,0,168.9,359.16Z" style="fill:#FF0000"></path><path d="M180.58,342.07l-.18.1V353l35.23-20.34.18-.1V321.73Zm34.52-9.91-34,19.62v-2.52l34-19.62Zm-34,16.28v-5.86l34-19.62v5.86Z" style="fill:#FF0000"></path><path d="M180.58,342.07l-.18.1V353l35.23-20.34.18-.1V321.73Zm34.52-9.91-34,19.62v-2.52l34-19.62Zm-34,16.28v-5.86l34-19.62v5.86Z" style="opacity:0.15"></path><polygon points="218.35 327.35 229.91 320.68 229.91 324.01 218.35 330.69 218.35 327.35"></polygon><path d="M224,325h0c.17,0,.19.2.19.29a1.28,1.28,0,0,1-.57,1,.41.41,0,0,1-.2.06c-.17,0-.19-.2-.19-.29a1.28,1.28,0,0,1,.57-1,.41.41,0,0,1,.2-.06m0-.18a.57.57,0,0,0-.29.09,1.45,1.45,0,0,0-.65,1.13c0,.3.14.47.36.47a.6.6,0,0,0,.29-.09,1.45,1.45,0,0,0,.65-1.13c0-.3-.14-.47-.36-.47Z" style="fill:#FF0000"></path><path d="M221,326.75h0c.16,0,.18.21.18.29a1.28,1.28,0,0,1-.56,1,.52.52,0,0,1-.21.07c-.16,0-.18-.2-.18-.29a1.28,1.28,0,0,1,.56-1,.52.52,0,0,1,.21-.07m0-.17a.54.54,0,0,0-.3.09,1.42,1.42,0,0,0-.65,1.13c0,.29.15.47.36.47a.57.57,0,0,0,.29-.09,1.44,1.44,0,0,0,.66-1.14c0-.29-.15-.46-.36-.46Z" style="fill:#FF0000"></path><path d="M227,323.28h0c.16,0,.18.2.18.29a1.3,1.3,0,0,1-.56,1,.52.52,0,0,1-.21.07c-.16,0-.18-.21-.18-.29a1.26,1.26,0,0,1,.56-1,.4.4,0,0,1,.21-.07m0-.18a.57.57,0,0,0-.29.09,1.44,1.44,0,0,0-.66,1.14c0,.29.15.46.36.46a.64.64,0,0,0,.3-.09,1.42,1.42,0,0,0,.65-1.13c0-.29-.15-.47-.36-.47Z" style="fill:#FF0000"></path><polygon points="229.91 324.01 229.46 323.76 229.46 320.94 229.91 320.68 229.91 324.01" style="fill:#37474f"></polygon><polygon points="218.35 330.69 218.35 330.18 229.46 323.76 229.91 324.01 218.35 330.69" style="fill:#263238"></polygon><polygon points="229.91 314 222.66 318.19 222.66 321.53 223.22 321.85 230.47 317.66 230.47 314.32 229.91 314" style="fill:#263238"></polygon><polygon points="230.47 317.66 230.47 314.32 223.22 318.51 223.22 321.85 230.47 317.66" style="fill:#fafafa"></polygon><polygon points="223.22 318.51 222.66 318.19 229.91 314 230.47 314.32 223.22 318.51" style="fill:#37474f"></polygon><path d="M144.37,324.71l-8.67,5,.77.45,8.67-5Zm5.78,3.34-8.67,5,.77.45,8.68-5Zm-2.89,8.34.77.45,8.68-5-.78-.45Zm5.78-6.68-8.67,5,.77.45,8.68-5Zm-17.34-10-8.68,5,.78.44,8.67-5Zm5.78,3.34-8.68,5,.78.44,8.67-5Zm-2.89-1.67-8.68,5,.78.44,8.67-5Zm8.67,5-8.67,5,.77.45,8.67-5Zm54.93-25-8.67,5,.77.45,8.68-5Zm-2.89-1.67-8.67,5,.77.45,8.68-5ZM196.41,298l-8.67,5,.77.45,8.68-5Zm8.68,5-8.68,5,.77.45,8.68-5Zm-17.35-10-8.68,5,.78.44,8.67-5Zm-2.89-1.67-8.68,5,.78.44,8.67-5Zm8.67,5-8.67,5,.77.44,8.67-5Zm-2.89-1.67-8.68,5,.78.44,8.67-5Z" style="fill:#FF0000"></path><polygon points="147.26 336.39 148.03 336.84 156.71 331.83 155.93 331.38 147.26 336.39" style="opacity:0.2"></polygon><polygon points="144.37 334.72 145.14 335.17 153.82 330.16 153.04 329.71 144.37 334.72" style="opacity:0.2"></polygon><polygon points="141.48 333.05 142.25 333.5 150.93 328.49 150.15 328.05 141.48 333.05" style="opacity:0.2"></polygon><polygon points="138.59 331.38 139.36 331.83 148.03 326.82 147.26 326.38 138.59 331.38" style="opacity:0.2"></polygon><polygon points="135.69 329.71 136.47 330.16 145.14 325.15 144.37 324.71 135.69 329.71" style="opacity:0.2"></polygon><polygon points="132.8 328.05 133.58 328.49 142.25 323.48 141.48 323.04 132.8 328.05" style="opacity:0.2"></polygon><polygon points="129.91 326.38 130.69 326.82 139.36 321.81 138.59 321.37 129.91 326.38" style="opacity:0.2"></polygon><polygon points="127.02 324.71 127.8 325.15 136.47 320.14 135.69 319.7 127.02 324.71" style="opacity:0.2"></polygon><polygon points="196.41 308.01 197.19 308.46 205.86 303.45 205.09 303 196.41 308.01" style="opacity:0.2"></polygon><polygon points="193.52 306.34 194.29 306.79 202.97 301.78 202.19 301.34 193.52 306.34" style="opacity:0.2"></polygon><polygon points="190.63 304.67 191.4 305.12 200.08 300.11 199.3 299.67 190.63 304.67" style="opacity:0.2"></polygon><polygon points="187.74 303 188.51 303.45 197.19 298.44 196.41 298 187.74 303" style="opacity:0.2"></polygon><polygon points="184.85 301.33 185.62 301.78 194.29 296.77 193.52 296.33 184.85 301.33" style="opacity:0.2"></polygon><polygon points="181.96 299.67 182.73 300.11 191.4 295.11 190.63 294.66 181.96 299.67" style="opacity:0.2"></polygon><polygon points="179.06 298 179.84 298.44 188.51 293.44 187.74 292.99 179.06 298" style="opacity:0.2"></polygon><polygon points="176.17 296.33 176.95 296.77 185.62 291.77 184.85 291.32 176.17 296.33" style="opacity:0.2"></polygon><polygon points="147.82 346.73 148.59 347.18 223.78 303.78 223 303.33 147.82 346.73" style="fill:#FF0000"></polygon><polygon points="108.84 324.23 109.61 324.67 184.8 281.27 184.02 280.83 108.84 324.23" style="fill:#FF0000"></polygon></g><polygon points="140.73 388.03 79.5 352.68 79.5 296.12 140.73 331.47 140.73 388.03" style="fill:#e0e0e0"></polygon><polygon points="140.73 388.03 79.5 352.68 79.5 296.12 140.73 331.47 140.73 388.03" style="opacity:0.2"></polygon><polygon points="144.73 323.86 144.73 390.94 140.73 393.25 140.73 326.17 144.73 323.86" style="fill:#ebebeb"></polygon><polygon points="108.12 380.03 113.47 376.94 132.55 387.96 127.2 391.05 108.12 380.03" style="fill:#FF0000"></polygon><polygon points="108.12 380.03 113.47 376.94 132.55 387.96 127.2 391.05 108.12 380.03" style="opacity:0.2"></polygon><path d="M132.55,388V371.42a6.25,6.25,0,0,1-2.84-4.92c0-1.81,1.27-2.54,2.85-1.64V348.33l-19.08-11v39.61Z" style="fill:#FF0000"></path><path d="M132.55,388V371.42a6.25,6.25,0,0,1-2.84-4.92c0-1.81,1.27-2.54,2.85-1.64V348.33l-19.08-11v39.61Z" style="opacity:0.4"></path><path d="M127.59,389.94a.91.91,0,0,1-.93-.08l-17.79-10.27V340l4.06-2.35,17.78,10.27a2.87,2.87,0,0,1,1.31,2.25v36.62a.93.93,0,0,1-.38.84Z" style="fill:#37474f"></path><path d="M112.93,337.62,108.87,340l17.79,10.26a2.78,2.78,0,0,1,.93,1l4-2.34a2.62,2.62,0,0,0-.93-1Z" style="fill:#263238"></path><polygon points="108.86 362.03 108.87 362.02 108.87 339.96 108.86 362.03" style="fill:#263238"></polygon><path d="M108.87,379.59l17.79,10.27c.72.41,1.3.07,1.3-.75V352.49a2.92,2.92,0,0,0-1.3-2.26L108.87,340Z" style="fill:#455a64"></path><polygon points="117.47 340.24 117.76 340.4 113.7 342.75 113.41 342.58 117.47 340.24"></polygon><line x1="116.99" y1="339.96" x2="117.47" y2="340.24"></line><polygon points="113.41 382.21 113.41 380.44 112.04 379.65 111.75 379.48 111.75 379.15 111.75 343.72 111.75 343.39 112.04 343.55 113.41 344.35 113.41 342.58 113.7 342.75 113.7 344.52 113.7 344.85 113.41 344.68 112.04 343.89 112.04 379.31 113.42 380.11 113.7 380.28 113.7 380.6 113.7 380.61 113.7 382.38 113.41 382.21"></polygon><path d="M115.45,370.73V356.42c0-.28.2-.39.44-.25l7.26,4.19a1,1,0,0,1,.43.75v14.31c0,.28-.19.39-.43.25l-7.26-4.19A1,1,0,0,1,115.45,370.73Z" style="fill:#fff"></path><path d="M115.88,371.48a1,1,0,0,1-.43-.75V356.42c0-.28.19-.39.43-.25l1.39.8v15.31Z" style="fill:#FF0000"></path><path d="M123.56,353.14v-1.76c0-1-1.81-2.8-4.06-4.1s-4.06-1.55-4.06-.58v7.12a1,1,0,0,0,.44.75l7.25,4.19c.24.13.44,0,.43-.25Z" style="fill:#fff;opacity:0.30000000000000004"></path><path d="M123.56,358.51v-1.58a10.11,10.11,0,0,0-4.07-5.2c-1.77-1-3.3-.75-4.06.51v1.58a1,1,0,0,0,.44.75l1.62.94,1,.59,2,1.13,1,.58,1.63.95C123.37,358.89,123.57,358.78,123.56,358.51Z" style="fill:#37474f"></path><path d="M121.5,357.81a4.52,4.52,0,0,0-2-3.15c-1-.59-1.86-.2-2,.85l1,.59,2,1.13Z" style="fill:#fff"></path><path d="M120.48,357.23a2.29,2.29,0,0,0-1-1.41c-.46-.27-.85-.14-1,.28Z" style="fill:#e0e0e0"></path><path d="M115.45,378.71v1.76c0,1,1.82,2.81,4.06,4.1s4.06,1.56,4.06.59V378a1,1,0,0,0-.43-.75l-7.26-4.18c-.24-.14-.44,0-.43.25Z" style="fill:#fff;opacity:0.30000000000000004"></path><path d="M115.45,373.35v1.57a10,10,0,0,0,4.06,5.2c1.77,1,3.3.76,4.06-.5V378a1,1,0,0,0-.43-.75l-1.63-.93-1-.6-2-1.12-1-.59-1.63-.94C115.64,373,115.44,373.07,115.45,373.35Z" style="fill:#37474f"></path><path d="M117.51,374a4.53,4.53,0,0,0,2,3.15c1,.59,1.86.21,2-.84l-1-.6-2-1.12Z" style="fill:#fff"></path><path d="M118.53,374.63a2.39,2.39,0,0,0,1,1.41c.46.26.85.13,1-.29Z" style="fill:#e0e0e0"></path><path d="M127.2,391.05V374.51a6.25,6.25,0,0,1-2.84-4.92c0-1.81,1.27-2.54,2.84-1.64V351.42l-19.09-11V380Z" style="fill:#FF0000"></path><path d="M127.2,391.05V374.51a6.25,6.25,0,0,1-2.84-4.92c0-1.81,1.27-2.54,2.84-1.64V351.42l-19.09-11V380Z" style="opacity:0.2"></path><polygon points="108.11 340.41 113.47 337.32 132.55 348.33 127.19 351.42 108.11 340.41" style="fill:#FF0000"></polygon><path d="M129,379.6l2-1.16a.61.61,0,0,0,.26-.45V359.77a.16.16,0,0,0-.26-.15l-2,1.17a.57.57,0,0,0-.26.45v18.21C128.74,379.62,128.85,379.69,129,379.6Z" style="fill:#f5f5f5"></path><polygon points="99.99 384.72 105.34 381.63 124.43 392.65 119.08 395.74 99.99 384.72" style="fill:#FF0000"></polygon><polygon points="99.99 384.72 105.34 381.63 124.43 392.65 119.08 395.74 99.99 384.72" style="opacity:0.2"></polygon><path d="M124.43,392.65V376.11a6.25,6.25,0,0,1-2.84-4.92c0-1.81,1.27-2.54,2.84-1.64V353l-19.08-11v39.61Z" style="fill:#FF0000"></path><path d="M119.46,394.63a.91.91,0,0,1-.93-.08l-17.78-10.27V344.66l4.06-2.35,17.77,10.27a2.87,2.87,0,0,1,1.31,2.25v36.62a.93.93,0,0,1-.37.84Z" style="fill:#37474f"></path><path d="M104.81,342.31l-4.06,2.35,17.78,10.26a2.7,2.7,0,0,1,.93,1l4.06-2.34a2.64,2.64,0,0,0-.94-1Z" style="fill:#263238"></path><polygon points="100.74 366.72 100.75 366.71 100.75 344.66 100.74 366.72" style="fill:#263238"></polygon><path d="M100.75,384.28l17.78,10.27c.72.41,1.3.07,1.3-.75V357.18a2.89,2.89,0,0,0-1.3-2.26l-17.78-10.26Z" style="fill:#455a64"></path><polygon points="109.35 344.93 109.64 345.1 105.58 347.44 105.28 347.27 109.35 344.93"></polygon><line x1="108.87" y1="344.65" x2="109.35" y2="344.93"></line><polygon points="105.29 386.9 105.29 385.13 103.92 384.34 103.63 384.17 103.63 383.84 103.63 348.41 103.63 348.08 103.92 348.24 105.29 349.04 105.29 347.27 105.58 347.44 105.57 349.21 105.58 349.54 105.29 349.37 103.92 348.58 103.92 384 105.29 384.81 105.57 384.97 105.57 385.29 105.58 385.3 105.57 387.07 105.29 386.9"></polygon><path d="M107.32,375.42V361.11c0-.27.19-.39.43-.25l7.26,4.19a1,1,0,0,1,.44.75v14.31c0,.28-.2.39-.44.25l-7.26-4.19A1,1,0,0,1,107.32,375.42Z" style="fill:#fff"></path><path d="M107.75,376.17a1,1,0,0,1-.43-.75V361.11c0-.27.19-.39.43-.25l1.39.8V377Z" style="fill:#FF0000"></path><path d="M115.44,357.83v-1.76c0-1-1.82-2.8-4.06-4.1s-4.06-1.55-4.06-.58v7.12a.93.93,0,0,0,.43.75l7.26,4.19c.24.13.44,0,.43-.25Z" style="fill:#fff;opacity:0.30000000000000004"></path><path d="M115.44,363.2v-1.58a10,10,0,0,0-4.06-5.2c-1.77-1-3.3-.75-4.06.51v1.58a.93.93,0,0,0,.43.75l1.63.94,1,.59,2,1.13,1,.59,1.63.94C115.25,363.58,115.45,363.47,115.44,363.2Z" style="fill:#37474f"></path><path d="M113.38,362.51a4.58,4.58,0,0,0-2-3.16c-1-.59-1.86-.2-2,.85l1,.59,2,1.13Z" style="fill:#fff"></path><path d="M112.36,361.92a2.33,2.33,0,0,0-1-1.41c-.46-.27-.85-.14-1,.28Z" style="fill:#e0e0e0"></path><path d="M107.33,383.4v1.76c0,1,1.81,2.81,4.06,4.1s4.06,1.56,4.06.59v-7.13A1,1,0,0,0,115,382l-7.25-4.18c-.24-.14-.44,0-.43.25Z" style="fill:#fff;opacity:0.30000000000000004"></path><path d="M107.33,378v1.57a10,10,0,0,0,4.07,5.2c1.77,1,3.3.76,4.06-.5v-1.59A1,1,0,0,0,115,382l-1.62-.93-1-.6-2-1.12-1-.59-1.63-.94C107.52,377.65,107.32,377.76,107.33,378Z" style="fill:#37474f"></path><path d="M109.39,378.73a4.52,4.52,0,0,0,2,3.15c1,.59,1.86.21,2-.84l-1-.6-2-1.12Z" style="fill:#fff"></path><path d="M110.41,379.32a2.33,2.33,0,0,0,1,1.41c.47.26.86.13,1-.29Z" style="fill:#e0e0e0"></path><path d="M119.08,395.74V379.2a6.2,6.2,0,0,1-2.84-4.92c0-1.81,1.26-2.54,2.84-1.64V356.11L100,345.1v39.62Z" style="fill:#FF0000"></path><polygon points="99.99 345.1 105.34 342.01 124.42 353.02 119.07 356.11 99.99 345.1" style="fill:#FF0000"></polygon><polygon points="99.99 345.1 105.34 342.01 124.42 353.02 119.07 356.11 99.99 345.1" style="fill:#fff;opacity:0.2"></polygon><path d="M120.87,384.29l2-1.16a.58.58,0,0,0,.26-.45V364.46c0-.16-.11-.23-.26-.15l-2,1.17a.57.57,0,0,0-.26.45v18.21C120.61,384.31,120.73,384.38,120.87,384.29Z" style="fill:#f5f5f5"></path><polygon points="91.87 389.42 97.22 386.32 116.31 397.34 110.95 400.43 91.87 389.42" style="fill:#FF0000"></polygon><polygon points="91.87 389.42 97.22 386.32 116.31 397.34 110.95 400.43 91.87 389.42" style="opacity:0.2"></polygon><path d="M116.3,397.34V380.8a6.2,6.2,0,0,1-2.84-4.92c0-1.81,1.26-2.54,2.84-1.64V357.71l-19.08-11v39.62Z" style="fill:#FF0000"></path><path d="M116.3,397.34V380.8a6.2,6.2,0,0,1-2.84-4.92c0-1.81,1.26-2.54,2.84-1.64V357.71l-19.08-11v39.62Z" style="opacity:0.4"></path><path d="M111.34,399.32a.91.91,0,0,1-.93-.08L92.62,389V349.35L96.68,347l17.78,10.27a2.87,2.87,0,0,1,1.31,2.25v36.62a.91.91,0,0,1-.38.84Z" style="fill:#37474f"></path><path d="M96.68,347l-4.06,2.35,17.79,10.26a2.78,2.78,0,0,1,.93,1l4-2.34a2.54,2.54,0,0,0-.93-1Z" style="fill:#263238"></path><polygon points="92.62 371.41 92.63 371.4 92.62 349.35 92.62 371.41" style="fill:#263238"></polygon><path d="M92.62,389l17.79,10.27c.72.41,1.3.08,1.3-.75V361.87a2.92,2.92,0,0,0-1.3-2.26L92.62,349.35Z" style="fill:#455a64"></path><polygon points="101.22 349.62 101.51 349.79 97.45 352.13 97.16 351.96 101.22 349.62"></polygon><line x1="100.74" y1="349.34" x2="101.22" y2="349.62"></line><polygon points="97.17 391.59 97.16 389.82 95.79 389.03 95.5 388.87 95.5 388.53 95.5 353.1 95.5 352.77 95.8 352.93 97.16 353.73 97.16 351.96 97.45 352.13 97.45 353.9 97.45 354.23 97.16 354.06 95.79 353.27 95.8 388.69 97.17 389.5 97.45 389.66 97.45 389.98 97.45 389.99 97.45 391.76 97.17 391.59"></polygon><path d="M99.2,380.11V365.8c0-.27.19-.39.43-.25l7.26,4.19a1,1,0,0,1,.43.75V384.8c0,.28-.19.39-.43.25l-7.26-4.19A1,1,0,0,1,99.2,380.11Z" style="fill:#fff"></path><path d="M99.63,380.86a1,1,0,0,1-.43-.75V365.8c0-.27.19-.39.43-.25l1.39.8v15.31Z" style="fill:#FF0000"></path><path d="M107.32,362.52v-1.76c0-1-1.82-2.8-4.07-4.1s-4.06-1.55-4.06-.58v7.12a.94.94,0,0,0,.44.75l7.25,4.19c.24.13.44,0,.44-.25Z" style="fill:#fff;opacity:0.30000000000000004"></path><path d="M107.32,367.89v-1.58a10.06,10.06,0,0,0-4.07-5.2c-1.77-1-3.3-.75-4.06.51v1.58a.94.94,0,0,0,.44.75l1.62.94,1,.59,2,1.13,1,.59,1.63.94C107.12,368.27,107.32,368.16,107.32,367.89Z" style="fill:#37474f"></path><path d="M105.25,367.2a4.5,4.5,0,0,0-2-3.15c-1-.6-1.86-.21-2,.84l1,.59,2,1.13Z" style="fill:#fff"></path><path d="M104.23,366.61a2.28,2.28,0,0,0-1-1.41c-.47-.27-.85-.14-1,.28Z" style="fill:#e0e0e0"></path><path d="M99.2,388.1v1.75c0,1,1.82,2.81,4.06,4.1s4.06,1.56,4.06.59v-7.12a1,1,0,0,0-.43-.76l-7.26-4.18c-.24-.14-.44,0-.43.25Z" style="fill:#fff;opacity:0.30000000000000004"></path><path d="M99.2,382.73v1.57a10,10,0,0,0,4.06,5.2c1.77,1,3.3.76,4.06-.5v-1.58a1,1,0,0,0-.43-.76l-1.63-.93-1-.6-2-1.12-1-.59-1.63-.94C99.39,382.34,99.19,382.46,99.2,382.73Z" style="fill:#37474f"></path><path d="M101.26,383.42a4.56,4.56,0,0,0,2,3.15c1,.59,1.86.21,2-.84l-1-.6-2-1.12Z" style="fill:#fff"></path><path d="M102.28,384a2.39,2.39,0,0,0,1,1.41c.46.26.85.13,1-.29Z" style="fill:#e0e0e0"></path><path d="M111,400.43V383.89a6.25,6.25,0,0,1-2.84-4.92c0-1.81,1.27-2.54,2.84-1.64V360.8l-19.09-11v39.62Z" style="fill:#FF0000"></path><path d="M111,400.43V383.89a6.25,6.25,0,0,1-2.84-4.92c0-1.81,1.27-2.54,2.84-1.64V360.8l-19.09-11v39.62Z" style="opacity:0.4"></path><polygon points="91.86 349.79 97.22 346.7 116.3 357.71 110.95 360.8 91.86 349.79" style="fill:#FF0000"></polygon><g style="opacity:0.2"><polygon points="91.86 349.79 97.22 346.7 116.3 357.71 110.95 360.8 91.86 349.79"></polygon></g><path d="M112.75,389l2-1.16a.61.61,0,0,0,.26-.45V369.15a.16.16,0,0,0-.26-.15l-2,1.17a.56.56,0,0,0-.26.45v18.21C112.49,389,112.6,389.07,112.75,389Z" style="fill:#f5f5f5"></path><polygon points="83.74 394.11 89.1 391.01 108.18 402.03 102.83 405.12 83.74 394.11" style="fill:#FF0000"></polygon><polygon points="83.74 394.11 89.1 391.01 108.18 402.03 102.83 405.12 83.74 394.11" style="opacity:0.2"></polygon><path d="M108.18,402V385.49a6.25,6.25,0,0,1-2.84-4.92c0-1.81,1.27-2.54,2.84-1.64V362.4l-19.09-11V391Z" style="fill:#FF0000"></path><path d="M108.18,402V385.49a6.25,6.25,0,0,1-2.84-4.92c0-1.81,1.27-2.54,2.84-1.64V362.4l-19.09-11V391Z" style="opacity:0.2"></path><path d="M103.21,404a.89.89,0,0,1-.92-.08L84.5,393.66V354l4.06-2.35L106.34,362a2.89,2.89,0,0,1,1.31,2.25v36.62a.92.92,0,0,1-.38.84Z" style="fill:#37474f"></path><path d="M88.56,351.69,84.5,354l17.78,10.27a2.61,2.61,0,0,1,.94,1l4-2.34a2.7,2.7,0,0,0-.93-1Z" style="fill:#263238"></path><polygon points="84.49 376.1 84.5 376.09 84.5 354.04 84.49 376.1" style="fill:#263238"></polygon><path d="M84.5,393.66l17.79,10.27c.71.41,1.29.08,1.29-.75V366.56a2.86,2.86,0,0,0-1.3-2.25L84.5,354Z" style="fill:#455a64"></path><polygon points="93.1 354.31 93.39 354.48 89.33 356.82 89.04 356.65 93.1 354.31"></polygon><line x1="92.62" y1="354.03" x2="93.1" y2="354.31"></line><polygon points="89.04 396.28 89.04 394.51 87.67 393.72 87.38 393.56 87.38 393.22 87.38 357.79 87.38 357.46 87.67 357.62 89.04 358.42 89.04 356.65 89.33 356.82 89.32 358.59 89.33 358.92 89.04 358.75 87.67 357.96 87.67 393.38 89.05 394.19 89.32 394.35 89.33 394.67 89.33 394.68 89.33 396.45 89.04 396.28"></polygon><path d="M91.07,384.8V370.49a.27.27,0,0,1,.44-.25l7.25,4.19a1,1,0,0,1,.44.75v14.31c0,.28-.2.39-.44.25l-7.25-4.19A1,1,0,0,1,91.07,384.8Z" style="fill:#fff"></path><path d="M91.51,385.55a1,1,0,0,1-.44-.75V370.49a.27.27,0,0,1,.44-.25l1.38.8v15.31Z" style="fill:#FF0000"></path><path d="M99.19,367.21v-1.76c0-1-1.82-2.8-4.06-4.1s-4.06-1.55-4.06-.58v7.12a.93.93,0,0,0,.43.75l7.26,4.19c.24.14.44,0,.43-.25Z" style="fill:#fff;opacity:0.30000000000000004"></path><path d="M99.19,372.58V371a10.16,10.16,0,0,0-4.07-5.2c-1.77-1-3.3-.75-4.06.51v1.58a.93.93,0,0,0,.43.75l1.63.94,1,.59,2,1.13,1,.59,1.63.94C99,373,99.2,372.85,99.19,372.58Z" style="fill:#37474f"></path><path d="M97.13,371.89a4.53,4.53,0,0,0-2-3.15c-1-.6-1.87-.21-2,.84l1,.59,2,1.13Z" style="fill:#fff"></path><path d="M96.11,371.3a2.29,2.29,0,0,0-1-1.41c-.46-.27-.85-.14-1,.28Z" style="fill:#e0e0e0"></path><path d="M91.08,392.79v1.75c0,1,1.82,2.81,4.06,4.1s4.06,1.56,4.06.59v-7.12a1,1,0,0,0-.44-.76l-7.25-4.18c-.24-.14-.44,0-.43.25Z" style="fill:#fff;opacity:0.30000000000000004"></path><path d="M91.08,387.42V389a10.07,10.07,0,0,0,4.07,5.2c1.77,1,3.3.76,4.06-.5v-1.58a1,1,0,0,0-.44-.76l-1.62-.93-1-.6-2-1.12-1-.59-1.63-.94C91.27,387,91.07,387.15,91.08,387.42Z" style="fill:#37474f"></path><path d="M93.14,388.11a4.52,4.52,0,0,0,2,3.15c1,.59,1.87.21,2-.84l-1-.6-2-1.12Z" style="fill:#fff"></path><path d="M94.16,388.7a2.35,2.35,0,0,0,1,1.41c.46.26.85.13,1-.29Z" style="fill:#e0e0e0"></path><path d="M102.83,405.12V388.58a6.25,6.25,0,0,1-2.84-4.92c0-1.81,1.27-2.54,2.84-1.64V365.49l-19.08-11V394.1Z" style="fill:#FF0000"></path><path d="M102.83,405.12V388.58a6.25,6.25,0,0,1-2.84-4.92c0-1.81,1.27-2.54,2.84-1.64V365.49l-19.08-11V394.1Z" style="opacity:0.2"></path><polygon points="83.74 354.48 89.09 351.39 108.18 362.4 102.82 365.49 83.74 354.48" style="fill:#FF0000"></polygon><path d="M104.62,393.67l2-1.16a.61.61,0,0,0,.26-.45V373.84c0-.16-.11-.23-.26-.15l-2,1.17a.59.59,0,0,0-.26.45v18.21C104.36,393.69,104.48,393.76,104.62,393.67Z" style="fill:#f5f5f5"></path><polygon points="75.62 398.8 80.97 395.7 100.06 406.72 94.7 409.81 75.62 398.8" style="fill:#FF0000"></polygon><polygon points="75.62 398.8 80.97 395.7 100.06 406.72 94.7 409.81 75.62 398.8" style="opacity:0.2"></polygon><path d="M100.06,406.72V390.18a6.25,6.25,0,0,1-2.84-4.92c0-1.81,1.27-2.54,2.84-1.64V367.09L81,356.08V395.7Z" style="fill:#FF0000"></path><path d="M95.09,408.7a.91.91,0,0,1-.93-.08L76.37,398.35V358.73l4.07-2.35,17.77,10.27a2.87,2.87,0,0,1,1.31,2.25v36.62a.89.89,0,0,1-.38.84Z" style="fill:#37474f"></path><path d="M80.44,356.38l-4.07,2.35L94.16,369a2.59,2.59,0,0,1,.93,1l4-2.34a2.54,2.54,0,0,0-.93-1Z" style="fill:#263238"></path><polygon points="76.37 380.79 76.38 380.78 76.37 358.73 76.37 380.79" style="fill:#263238"></polygon><path d="M76.37,398.35l17.79,10.27c.72.41,1.3.08,1.3-.75V371.25a2.86,2.86,0,0,0-1.3-2.25L76.37,358.73Z" style="fill:#455a64"></path><polygon points="84.97 359 85.27 359.17 81.2 361.51 80.91 361.34 84.97 359"></polygon><line x1="84.49" y1="358.72" x2="84.97" y2="359"></line><polygon points="80.92 400.97 80.91 399.2 79.55 398.41 79.25 398.25 79.25 397.91 79.25 362.49 79.25 362.15 79.55 362.31 80.92 363.11 80.91 361.34 81.21 361.51 81.2 363.28 81.21 363.61 80.91 363.44 79.55 362.65 79.55 398.07 80.92 398.88 81.2 399.04 81.2 399.36 81.21 399.37 81.2 401.14 80.92 400.97"></polygon><path d="M83,389.49V375.18c0-.27.19-.39.43-.25l7.26,4.19a1,1,0,0,1,.43.75v14.31c0,.28-.19.39-.43.25l-7.26-4.19A1,1,0,0,1,83,389.49Z" style="fill:#fff"></path><path d="M83.38,390.24a1,1,0,0,1-.43-.75V375.18c0-.27.19-.39.43-.25l1.39.8V391Z" style="fill:#FF0000"></path><path d="M91.07,371.9v-1.76c0-1-1.82-2.8-4.06-4.1S83,364.49,83,365.46v7.12a.91.91,0,0,0,.43.75l7.25,4.19c.25.14.44,0,.44-.25Z" style="fill:#fff;opacity:0.30000000000000004"></path><path d="M91.07,377.27V375.7A10,10,0,0,0,87,370.49c-1.76-1-3.29-.75-4.06.51v1.58a.91.91,0,0,0,.43.75l1.62.94,1,.59L88,376l1,.59,1.62.94C90.88,377.66,91.07,377.54,91.07,377.27Z" style="fill:#37474f"></path><path d="M89,376.58a4.54,4.54,0,0,0-2-3.15c-1-.6-1.86-.21-2,.84l1,.59L88,376Z" style="fill:#fff"></path><path d="M88,376a2.31,2.31,0,0,0-1-1.41c-.47-.27-.85-.14-1,.28Z" style="fill:#e0e0e0"></path><path d="M83,397.48v1.75c0,1,1.82,2.81,4.06,4.1s4.06,1.56,4.06.59V396.8a.94.94,0,0,0-.43-.76l-7.25-4.18a.27.27,0,0,0-.44.25Z" style="fill:#fff;opacity:0.30000000000000004"></path><path d="M83,392.11v1.57A10,10,0,0,0,87,398.89c1.76,1,3.29.75,4.06-.51V396.8a.94.94,0,0,0-.43-.76L89,395.11l-1-.6L86,393.39l-1-.59-1.63-.94A.27.27,0,0,0,83,392.11Z" style="fill:#37474f"></path><path d="M85,392.8A4.52,4.52,0,0,0,87,396c1,.59,1.86.21,2-.84l-1-.6L86,393.39Z" style="fill:#fff"></path><path d="M86,393.39a2.33,2.33,0,0,0,1,1.41c.47.26.85.13,1-.29Z" style="fill:#e0e0e0"></path><path d="M94.7,409.81V393.27a6.2,6.2,0,0,1-2.84-4.92c0-1.81,1.26-2.54,2.84-1.64V370.18l-19.08-11v39.62Z" style="fill:#FF0000"></path><polygon points="75.61 359.17 80.97 356.08 100.05 367.09 94.7 370.18 75.61 359.17" style="fill:#FF0000"></polygon><polygon points="75.61 359.17 80.97 356.08 100.05 367.09 94.7 370.18 75.61 359.17" style="fill:#fff;opacity:0.2"></polygon><path d="M96.5,398.36l2-1.16a.61.61,0,0,0,.26-.45V378.53a.16.16,0,0,0-.26-.15l-2,1.17a.56.56,0,0,0-.26.45v18.21C96.24,398.38,96.36,398.45,96.5,398.36Z" style="fill:#f5f5f5"></path><path d="M86,420.4l3.64,2.36-2.87,1.66a7.23,7.23,0,0,1-6.52,0L51.15,407.62,25.52,392.83a7.25,7.25,0,0,1-3.26-5.66V327.62a6.76,6.76,0,0,1,1-3.23l63.17,36.27Z" style="fill:#e0e0e0"></path><path d="M83.49,363v59.56c0,2.08,1.47,2.92,3.27,1.88l207.79-120a7.21,7.21,0,0,0,3.26-5.65V239.23c0-2.08-1.46-2.92-3.26-1.88l-207.79,120A7.22,7.22,0,0,0,83.49,363ZM88,363a2.92,2.92,0,0,1,1-1.73L293.29,243.3v55.49a2.94,2.94,0,0,1-1,1.74L88,418.46Z" style="fill:#ebebeb"></path><path d="M23.22,324.39l61.32,35.22a6.46,6.46,0,0,1,2.22-2.3l207.79-120c1.51-.87,2.77-.42,3.16,1a7.27,7.27,0,0,0-3.16-4.72L239.84,202a7.22,7.22,0,0,0-6.53,0L25.52,322A6.74,6.74,0,0,0,23.22,324.39Z" style="fill:#fafafa"></path></g><g id="freepik--TV--inject-956"><path id="freepik--shadow--inject-956" d="M233.41,214.31l8.61,4.94c2,1.16,2,3.05,0,4.21l-65.35,37.73c-2,1.16-2,3,0,4.2l4.8,2.74c2,1.16,2,3,0,4.2l-36.26,20.94a8.07,8.07,0,0,1-7.29,0l-4.8-2.73a8.07,8.07,0,0,0-7.29,0L60.16,328.45a8,8,0,0,1-7.28,0l-8.61-4.94c-2-1.16-2-3,0-4.2l181.86-105A8,8,0,0,1,233.41,214.31Z" style="fill:#e0e0e0"></path><path d="M161,227.16,135.26,242a4.8,4.8,0,0,0-2.07,3l-6.4,36.2a3.08,3.08,0,0,0,1.39,3l11.58,6.64a3.83,3.83,0,0,0,3.46,0l35.46-20.47a3.25,3.25,0,0,0,0-5.74l-7.75-4.43a4.39,4.39,0,0,1-1.93-3L166.16,230a4.25,4.25,0,0,0-1.82-2.92A3.7,3.7,0,0,0,161,227.16Z" style="fill:#37474f"></path><path d="M161,227.16,135.26,242a4.8,4.8,0,0,0-2.07,3l-6.4,36.2a3.08,3.08,0,0,0,1.39,3l11.58,6.64a3.83,3.83,0,0,0,3.46,0l35.46-20.47a3.25,3.25,0,0,0,0-5.74l-7.75-4.43a4.39,4.39,0,0,1-1.93-3L166.16,230a4.25,4.25,0,0,0-1.82-2.92A3.7,3.7,0,0,0,161,227.16Z" style="opacity:0.15"></path><path d="M141.49,284.3v6.9a3.51,3.51,0,0,0,1.73-.41l35.46-20.47a3.71,3.71,0,0,0,1.72-2.87,3.4,3.4,0,0,0-.68-1.87h-5.8Z" style="fill:#37474f"></path><path d="M164.23,229,138.5,243.89a4.83,4.83,0,0,0-2.07,3l-5.8,32.8a3.07,3.07,0,0,0,1.38,3l7.75,4.43a3.83,3.83,0,0,0,3.46,0l35.46-20.48a1.05,1.05,0,0,0,0-2l-7.75-4.43a4.39,4.39,0,0,1-1.93-3L166.16,230A1.19,1.19,0,0,0,164.23,229Z" style="fill:#37474f"></path><path d="M164.23,229a1.19,1.19,0,0,1,1.93,1l2.56,24.47-37.47,21.64,5.18-29.28a4.83,4.83,0,0,1,2.07-3Z" style="opacity:0.15"></path><path d="M178.68,264.58l-7.75-4.43a3.92,3.92,0,0,1-1.26-1.27l-38.8,22.4a3,3,0,0,0,1.14,1.34l7.75,4.43a3.83,3.83,0,0,0,3.46,0l35.46-20.48A1.05,1.05,0,0,0,178.68,264.58Z" style="fill:#455a64"></path><path d="M49.27,316.73l-.36-.21a5.37,5.37,0,0,1-2.42-4.19V168.59a5.33,5.33,0,0,1,2.43-4.18L233.66,58.18a5.39,5.39,0,0,1,4.84,0l0,0a5.34,5.34,0,0,1,2.42,4.19V206.1a5.34,5.34,0,0,1-2.42,4.19L54.11,316.73A5.36,5.36,0,0,1,49.27,316.73Z" style="fill:#455a64"></path><path d="M54.93,170.67l-7.73-4.46a4.92,4.92,0,0,0-.71,2.38V312.33a5.37,5.37,0,0,0,2.42,4.19l.36.21a5.36,5.36,0,0,0,4.84,0l.82-.47Z" style="fill:#263238"></path><path d="M51.69,315.33V171.6a5.32,5.32,0,0,1,2.42-4.19L238.46,61c1.34-.78,2.42-.15,2.42,1.39V206.1a5.34,5.34,0,0,1-2.42,4.19L54.11,316.73C52.77,317.5,51.69,316.88,51.69,315.33Z" style="fill:#37474f"></path><path d="M240.88,62.36l.24,45.21.09,45.2.08,45.21v5.65c0,1,0,1.84,0,2.87a6,6,0,0,1-1.13,2.8,5.26,5.26,0,0,1-1.07,1.09c-.45.33-.84.51-1.25.76l-2.44,1.42-4.89,2.83L211,226.74l-78.38,45.08L93.38,294.34,54.11,316.73l39-22.82,39.1-22.68,78.23-45.34,19.59-11.26,4.9-2.82,2.45-1.4c.4-.24.85-.47,1.17-.71a4.85,4.85,0,0,0,.9-.91,5.07,5.07,0,0,0,1-2.38c0-.85,0-1.86,0-2.78V198l.08-45.21.09-45.2Z" style="fill:#455a64"></path><path d="M147.67,257.2l7.12-4.11c.53-.31,1-.09,1,.49a2.08,2.08,0,0,1-1,1.6l-7.12,4.12c-.54.3-1,.08-1-.49A2.07,2.07,0,0,1,147.67,257.2Z" style="fill:#e0e0e0"></path><path d="M57.89,170.78,234.41,68.66c.76-.44,1.38-.08,1.38.8V199a3.07,3.07,0,0,1-1.38,2.4L57.89,303.31c-.77.44-1.39.08-1.39-.8V173.18A3.07,3.07,0,0,1,57.89,170.78Z" style="fill:#455a64"></path><path d="M57.27,303.75a1,1,0,0,1-.49-.12,1.23,1.23,0,0,1-.53-1.12V173.18a3.31,3.31,0,0,1,1.51-2.61h0L234.28,68.45a1.09,1.09,0,0,1,1.76,1V199a3.26,3.26,0,0,1-1.51,2.61L58,303.53A1.49,1.49,0,0,1,57.27,303.75ZM58,171a2.84,2.84,0,0,0-1.26,2.18V302.51a.61.61,0,0,0,1,.59L234.28,201.18a2.83,2.83,0,0,0,1.26-2.18V69.46a.6.6,0,0,0-1-.58Z" style="fill:#263238"></path><path d="M229.79,103.4c-.21.12-.38,0-.38-.36V81.36l-14.08,8.13c-.2.12-.37,0-.37-.36a1,1,0,0,1,.37-.79L229.79,80c.21-.12.37,0,.37.36v22.26A1,1,0,0,1,229.79,103.4Z" style="fill:#fafafa"></path><path d="M62.5,200c-.2.12-.37,0-.37-.36V177.36a1,1,0,0,1,.37-.79L77,168.23c.21-.12.37,0,.37.36a1,1,0,0,1-.37.79l-14.08,8.13v21.68A1,1,0,0,1,62.5,200Z" style="fill:#fafafa"></path><path d="M229.79,195.4l-14.46,8.35c-.2.12-.37,0-.37-.36a1,1,0,0,1,.37-.8l14.08-8.12V172.79a1,1,0,0,1,.38-.8c.21-.12.37,0,.37.36v22.26A1,1,0,0,1,229.79,195.4Z" style="fill:#fafafa"></path><path d="M77,283.64,62.5,292c-.2.12-.37,0-.37-.36V269.37a1,1,0,0,1,.37-.8c.21-.11.38.05.38.37v21.67L77,282.48c.21-.12.37,0,.37.37A1,1,0,0,1,77,283.64Z" style="fill:#fafafa"></path><path d="M69.3,188.41v-7.36l2.29-1.32a.5.5,0,0,1,.68.05,1.19,1.19,0,0,1,.29.89v1.86a2.83,2.83,0,0,1-.29,1.22,1.71,1.71,0,0,1-.68.83l-1.64.95V188a1,1,0,0,1-.09.4.6.6,0,0,1-.23.28.18.18,0,0,1-.23,0A.38.38,0,0,1,69.3,188.41Zm.65-3.88,1.64-.94a.61.61,0,0,0,.23-.28,1,1,0,0,0,.09-.4V181a.4.4,0,0,0-.09-.29.18.18,0,0,0-.23,0l-1.64,1Z" style="fill:#fafafa"></path><path d="M73.66,186.39V179a.88.88,0,0,1,.1-.41.62.62,0,0,1,.22-.27.18.18,0,0,1,.23,0,.41.41,0,0,1,.1.3V185l2.28-1.32a.18.18,0,0,1,.23,0,.37.37,0,0,1,.1.29.86.86,0,0,1-.1.41.55.55,0,0,1-.23.28Z" style="fill:#fafafa"></path><path d="M78,183.17l1.3-7.55a.75.75,0,0,1,.32-.55c.16-.1.27,0,.31.13l1.28,6.16a.78.78,0,0,1,0,.14,1,1,0,0,1-.09.41.61.61,0,0,1-.21.27q-.25.13-.33-.18l-.25-1.2-1.48.85-.28,1.61a.5.5,0,0,1-.1.23.59.59,0,0,1-.18.2c-.1.05-.18.05-.24,0a.46.46,0,0,1-.09-.31A1.5,1.5,0,0,1,78,183.17Zm1.62-5.8-.55,3.16,1.09-.63Z" style="fill:#fafafa"></path><path d="M84.34,176.46v3.27a.86.86,0,0,1-.1.41.57.57,0,0,1-.23.27.17.17,0,0,1-.23,0,.37.37,0,0,1-.1-.29v-3.27l-1.29-1.78V174a1,1,0,0,1,.09-.41.55.55,0,0,1,.23-.28.17.17,0,0,1,.23,0,.38.38,0,0,1,.1.3v.68l1,1.36,1-2.48v-.69a.86.86,0,0,1,.1-.41.63.63,0,0,1,.22-.29.21.21,0,0,1,.23,0,.43.43,0,0,1,.1.32v1Z" style="fill:#fafafa"></path><path d="M70.11,264.07l1.3-7.55a.78.78,0,0,1,.32-.56c.16-.09.27,0,.31.14l1.28,6.16a.68.68,0,0,1,0,.14.93.93,0,0,1-.09.4.51.51,0,0,1-.21.27c-.17.1-.28,0-.33-.17l-.25-1.2-1.48.85-.28,1.61a.61.61,0,0,1-.1.23.47.47,0,0,1-.18.19.18.18,0,0,1-.24,0,.41.41,0,0,1-.09-.3A1.5,1.5,0,0,1,70.11,264.07Zm1.62-5.8-.55,3.16,1.09-.63Z" style="fill:#fafafa"></path><path d="M75.75,256.73v-.25l-.67-1.08v6a.85.85,0,0,1-.1.4.54.54,0,0,1-.22.28.17.17,0,0,1-.23,0,.37.37,0,0,1-.1-.29V254.4l.84-.48.79,1.33.82-2.26.82-.47v7.36a.86.86,0,0,1-.1.41.55.55,0,0,1-.23.28.17.17,0,0,1-.23,0,.4.4,0,0,1-.09-.29v-6l-.66,1.79v.28a1,1,0,0,1-.09.41.63.63,0,0,1-.23.27.17.17,0,0,1-.23,0A.41.41,0,0,1,75.75,256.73Z" style="fill:#fafafa"></path><path d="M83.47,256l1-.57v-5.86l-1,.56a.17.17,0,0,1-.23,0,.41.41,0,0,1-.09-.3,1,1,0,0,1,.09-.4.61.61,0,0,1,.23-.28l1.62-.94v6.86l.65-.37v-2.07a1,1,0,0,1,.09-.41.66.66,0,0,1,.23-.28.18.18,0,0,1,.23,0,.4.4,0,0,1,.09.29v2.57a1,1,0,0,1-.09.41.66.66,0,0,1-.23.28l-2.6,1.5a.18.18,0,0,1-.23,0,.39.39,0,0,1-.1-.3.82.82,0,0,1,.1-.4A.66.66,0,0,1,83.47,256Z" style="fill:#fafafa"></path><path d="M90.45,253l-2.93,1.69v-3.43a1.86,1.86,0,0,1,.19-.82,1.2,1.2,0,0,1,.45-.56l2-1.13v-2.42l-2.3,1.33c-.1.05-.17.05-.23,0a.38.38,0,0,1-.1-.3.82.82,0,0,1,.1-.4.51.51,0,0,1,.23-.28l2.3-1.33a.35.35,0,0,1,.46,0,.78.78,0,0,1,.2.59v2.42a1.91,1.91,0,0,1-.2.83,1.18,1.18,0,0,1-.46.55l-2,1.14v2.43L90.45,252a.18.18,0,0,1,.23,0,.39.39,0,0,1,.1.29,1,1,0,0,1-.1.41A.67.67,0,0,1,90.45,253Z" style="fill:#fafafa"></path><path d="M93.18,244.87l.65-.37a.17.17,0,0,1,.23,0,.37.37,0,0,1,.1.28v.86a.85.85,0,0,1-.1.4.67.67,0,0,1-.22.28l-.67.38a.17.17,0,0,1-.22,0,.41.41,0,0,1-.09-.3v-.86a1,1,0,0,1,.09-.41A.74.74,0,0,1,93.18,244.87Zm0,3.44.65-.38a.19.19,0,0,1,.23,0,.38.38,0,0,1,.1.3v.85a.91.91,0,0,1-.1.41.6.6,0,0,1-.22.28l-.67.38a.16.16,0,0,1-.22,0,.4.4,0,0,1-.09-.29V249a1,1,0,0,1,.09-.41A.63.63,0,0,1,93.18,248.31Z" style="fill:#fafafa"></path><path d="M99.17,248l-2.93,1.7v-3.43a1.86,1.86,0,0,1,.19-.82,1.14,1.14,0,0,1,.45-.56l2-1.13v-2.42l-2.31,1.33a.18.18,0,0,1-.23,0,.43.43,0,0,1-.09-.3,1,1,0,0,1,.09-.41.74.74,0,0,1,.23-.28l2.31-1.33a.36.36,0,0,1,.46,0,.78.78,0,0,1,.19.59v2.42a1.86,1.86,0,0,1-.19.82,1.21,1.21,0,0,1-.46.56l-2,1.13v2.44L99.17,247a.18.18,0,0,1,.23,0,.41.41,0,0,1,.09.3,1,1,0,0,1-.09.41A.63.63,0,0,1,99.17,248Z" style="fill:#fafafa"></path><path d="M103.85,238.41v1.87a2.7,2.7,0,0,1-.26,1.2,1.24,1.24,0,0,1,.27.85v1.94a1.85,1.85,0,0,1-.19.81,1.21,1.21,0,0,1-.46.56L100.92,247a.17.17,0,0,1-.22,0,.39.39,0,0,1-.1-.3.88.88,0,0,1,.1-.41.64.64,0,0,1,.22-.28l2.28-1.31v-1.94a.38.38,0,0,0-.1-.3c-.06-.07-.13-.07-.22,0l-1.3.75a.18.18,0,0,1-.23,0,.41.41,0,0,1-.09-.3,1,1,0,0,1,.09-.41.57.57,0,0,1,.23-.27l1.3-.76a.57.57,0,0,0,.23-.27.88.88,0,0,0,.1-.41v-1.92l-2.31,1.33a.18.18,0,0,1-.23,0,.4.4,0,0,1-.09-.29,1,1,0,0,1,.09-.41.67.67,0,0,1,.23-.28l2.31-1.33a.34.34,0,0,1,.45,0A.78.78,0,0,1,103.85,238.41Z" style="fill:#fafafa"></path><path d="M71.39,273.12v-.25l-.67-1.08v6a.86.86,0,0,1-.1.41.59.59,0,0,1-.22.28.18.18,0,0,1-.23,0,.37.37,0,0,1-.1-.29v-7.37l.84-.48.79,1.32.82-2.25.82-.47v7.36a.86.86,0,0,1-.1.41A.6.6,0,0,1,73,277a.18.18,0,0,1-.23,0,.4.4,0,0,1-.09-.29v-6l-.66,1.8v.28a1,1,0,0,1-.09.4.61.61,0,0,1-.23.28.18.18,0,0,1-.23,0A.43.43,0,0,1,71.39,273.12Z" style="fill:#fafafa"></path><path d="M74.47,275.42l1.3-7.55a.75.75,0,0,1,.32-.55c.16-.1.26-.05.31.14l1.28,6.15a.78.78,0,0,1,0,.14,1,1,0,0,1-.09.41.69.69,0,0,1-.22.27c-.16.09-.27,0-.32-.18l-.25-1.2-1.48.85-.28,1.61a.59.59,0,0,1-.1.24.55.55,0,0,1-.18.19c-.1.05-.18.05-.24,0a.46.46,0,0,1-.09-.31A.71.71,0,0,1,74.47,275.42Zm1.62-5.8-.56,3.16,1.1-.63Z" style="fill:#fafafa"></path><path d="M80.77,268.71V272a1,1,0,0,1-.1.41.6.6,0,0,1-.23.28.18.18,0,0,1-.23,0,.38.38,0,0,1-.1-.3v-3.27l-1.3-1.78v-1.05a1,1,0,0,1,.1-.42.55.55,0,0,1,.23-.28.17.17,0,0,1,.23,0,.41.41,0,0,1,.1.3v.68l1,1.36,1-2.48v-.69a.86.86,0,0,1,.1-.41.6.6,0,0,1,.22-.28.18.18,0,0,1,.23,0,.39.39,0,0,1,.09.31v1Z" style="fill:#fafafa"></path><path d="M87.51,267.62v-5.95a1.85,1.85,0,0,1,.18-.78,1.24,1.24,0,0,1,.44-.54l2-1.16a.34.34,0,0,1,.44,0,.78.78,0,0,1,.18.57v5.94a1.81,1.81,0,0,1-.18.78,1.17,1.17,0,0,1-.44.54l-2,1.16a.33.33,0,0,1-.44,0A.78.78,0,0,1,87.51,267.62Zm2.61-1.55v-5.86l-2,1.14v5.86Z" style="fill:#fafafa"></path><path d="M91.87,259.14v-.42a1,1,0,0,1,.09-.41.74.74,0,0,1,.23-.28l2.93-1.69v3.06a1,1,0,0,1-.12.47l-1.19,2.24v2.32a1,1,0,0,1-.09.41.55.55,0,0,1-.23.28.18.18,0,0,1-.23,0,.37.37,0,0,1-.1-.29v-2.51a1.19,1.19,0,0,1,.11-.51l1.2-2.24v-1.85l-2,1.13a.75.75,0,0,1-.32.61.17.17,0,0,1-.23,0A.41.41,0,0,1,91.87,259.14Z" style="fill:#fafafa"></path><path d="M100.9,259.85l1-.57v-5.86l-1,.56a.18.18,0,0,1-.23,0,.41.41,0,0,1-.1-.3,1,1,0,0,1,.1-.41.57.57,0,0,1,.23-.27l1.62-.94v6.85l.64-.37v-2.07a1,1,0,0,1,.1-.4.55.55,0,0,1,.23-.28.18.18,0,0,1,.23,0,.41.41,0,0,1,.09.3v2.57a1,1,0,0,1-.09.4.61.61,0,0,1-.23.28l-2.61,1.5a.16.16,0,0,1-.23,0,.41.41,0,0,1-.09-.3,1,1,0,0,1,.09-.4A.63.63,0,0,1,100.9,259.85Z" style="fill:#fafafa"></path><path d="M107.89,256.8l-.32.18a.18.18,0,0,1-.23,0,.38.38,0,0,1-.1-.3.82.82,0,0,1,.1-.4.55.55,0,0,1,.23-.28v-3.28L105.29,254a.18.18,0,0,1-.23,0,.4.4,0,0,1-.09-.29v-2.58a1,1,0,0,1,.09-.4.61.61,0,0,1,.23-.28l2.6-1.5a.18.18,0,0,1,.23,0,.43.43,0,0,1,.09.3v6.85a1,1,0,0,1-.09.41A.67.67,0,0,1,107.89,256.8Zm-.32-5.1v-1.56l-2,1.13v1.56Z" style="fill:#fafafa"></path><path d="M112.25,254.28l-.33.19a.17.17,0,0,1-.22,0,.37.37,0,0,1-.1-.29.86.86,0,0,1,.1-.41.72.72,0,0,1,.22-.28v-3.28l-2.27,1.31a.18.18,0,0,1-.23,0,.41.41,0,0,1-.09-.3v-2.58a1,1,0,0,1,.09-.4.61.61,0,0,1,.23-.28l2.6-1.5a.17.17,0,0,1,.22,0,.37.37,0,0,1,.1.29v6.86a.93.93,0,0,1-.09.4A.61.61,0,0,1,112.25,254.28Zm-.32-5.1v-1.56l-2,1.13v1.56Z" style="fill:#fafafa"></path><path d="M115.79,251.75v-2.07l-2,1.12V246a1.07,1.07,0,0,1,.1-.42.68.68,0,0,1,.24-.28.17.17,0,0,1,.22,0,.38.38,0,0,1,.1.3v3.78l1.29-.74v-2.92a1,1,0,0,1,.09-.41.67.67,0,0,1,.23-.28.17.17,0,0,1,.23,0,.41.41,0,0,1,.09.3v2.91a.18.18,0,0,1,.23,0,.35.35,0,0,1,.1.29.86.86,0,0,1-.1.41.66.66,0,0,1-.23.28v2.08a1,1,0,0,1-.09.41.63.63,0,0,1-.23.27.18.18,0,0,1-.23,0A.41.41,0,0,1,115.79,251.75Z" style="fill:#fafafa"></path><path d="M205.45,106.24v.44a.86.86,0,0,1-.1.41.63.63,0,0,1-.22.29l-2.61,1.5a.17.17,0,0,1-.23,0,.41.41,0,0,1-.09-.3v-.44a1,1,0,0,1,.09-.41.57.57,0,0,1,.23-.27l2.61-1.51a.2.2,0,0,1,.22,0A.41.41,0,0,1,205.45,106.24Z" style="fill:#fafafa"></path><path d="M209.81,103.73v.44a.91.91,0,0,1-.1.41.6.6,0,0,1-.23.28l-2.6,1.5a.17.17,0,0,1-.23,0,.46.46,0,0,1-.09-.31v-.44a1,1,0,0,1,.09-.4.6.6,0,0,1,.23-.28l2.6-1.5a.18.18,0,0,1,.23,0A.38.38,0,0,1,209.81,103.73Z" style="fill:#fafafa"></path><path d="M212.21,99.73l.65-.37a.17.17,0,0,1,.23,0,.37.37,0,0,1,.1.28v.86a.85.85,0,0,1-.1.4.6.6,0,0,1-.22.28l-.66.38a.18.18,0,0,1-.23,0,.41.41,0,0,1-.09-.3v-.86a.82.82,0,0,1,.1-.4A.62.62,0,0,1,212.21,99.73Zm0,3.44.65-.38a.19.19,0,0,1,.23,0,.38.38,0,0,1,.1.3V104a.91.91,0,0,1-.1.41.6.6,0,0,1-.22.28l-.66.38a.17.17,0,0,1-.23,0,.4.4,0,0,1-.09-.29v-.86a.86.86,0,0,1,.1-.41A.56.56,0,0,1,212.21,103.17Z" style="fill:#fafafa"></path><path d="M218.53,98.69v.44a1,1,0,0,1-.1.41.58.58,0,0,1-.23.29l-2.6,1.5a.17.17,0,0,1-.23,0,.41.41,0,0,1-.09-.3v-.44a1,1,0,0,1,.09-.41.57.57,0,0,1,.23-.27l2.6-1.51a.21.21,0,0,1,.23,0A.41.41,0,0,1,218.53,98.69Z" style="fill:#fafafa"></path><path d="M222.88,96.18v.44a1,1,0,0,1-.09.41.6.6,0,0,1-.23.28l-2.6,1.5a.17.17,0,0,1-.23,0,.46.46,0,0,1-.1-.31v-.44a1,1,0,0,1,.1-.4.6.6,0,0,1,.23-.28l2.6-1.5a.17.17,0,0,1,.22,0A.35.35,0,0,1,222.88,96.18Z" style="fill:#fafafa"></path></g></g><g id="freepik--speech-bubble--inject-956"><g id="freepik--speech-bubble--inject-956"><g id="freepik--speech-bubble--inject-956"><path d="M423.18,176.27l3.49-6.55-2.81-8.09v-4.95l8.58,4.95v5L428.75,173a.48.48,0,0,1-.25.22h0Z" style="fill:#FF0000"></path><path d="M423.18,176.27l3.49-6.55-2.81-8.09v-4.95l8.58,4.95v5L428.75,173a.48.48,0,0,1-.25.22h0Z" style="opacity:0.2"></path><path d="M402.7,114.3a5.68,5.68,0,0,1,2.57-4.45l2.09-1.21a5.7,5.7,0,0,1,5.15,0l32.11,18.58a5.68,5.68,0,0,1,2.57,4.45V170a5.68,5.68,0,0,1-2.57,4.45l-2.09,1.21a5.7,5.7,0,0,1-5.15,0l-10.33-6-3.68,6.38a.55.55,0,0,1-1-.1l-3.89-11.23-13.22-7.66a5.68,5.68,0,0,1-2.57-4.45Z" style="fill:#FF0000"></path><path d="M447.19,170a5.68,5.68,0,0,1-2.57,4.45l-2.09,1.21a5.8,5.8,0,0,1-4.71.21c1.21.45,2.13-.23,2.13-1.7V135.85a5.25,5.25,0,0,0-.76-2.54l7.24-4.17a5.17,5.17,0,0,1,.75,2.53Z" style="opacity:0.2"></path><path d="M402.78,113.57c.3-1.09,1.3-1.44,2.48-.75l32.13,18.58a5.09,5.09,0,0,1,1.81,1.92l7.23-4.18a5.25,5.25,0,0,0-1.81-1.92l-32.11-18.58a5.76,5.76,0,0,0-5.15,0l-2.1,1.21A5.69,5.69,0,0,0,402.78,113.57Z" style="fill:#fff;opacity:0.30000000000000004"></path></g><path d="M421.9,130.75a8.46,8.46,0,0,0-4.17-1.26c-3.74,0-6.36,3.46-6.36,9.23,0,7.74,4.72,16.77,10.53,20.13a8.53,8.53,0,0,0,4.18,1.26c3.74,0,6.36-3.46,6.36-9.23C432.44,143.14,427.71,134.11,421.9,130.75Zm4.18,27.86a7,7,0,0,1-3.43-1.06c-5.3-3.06-9.78-11.69-9.78-18.83,0-4.7,1.91-7.73,4.86-7.73a6.93,6.93,0,0,1,3.42,1.06c5.31,3.06,9.79,11.69,9.79,18.83C430.94,155.58,429,158.61,426.08,158.61Zm-6.89-21c-.61-.75-1.32-.56-1.32.35v9.89c0,.91.71,1.92,1.32,1.88l8-.47c.62,0,.62-1.22,0-2Z" style="fill:#fff"></path></g></g><g id="freepik--Character--inject-956"><g id="freepik--character--inject-956"><g id="freepik--Bottom--inject-956"><path d="M364.62,410.16l-9-16.29-18.89,11.32,20.42,23.87s11.31-.65,13.24-6S367.41,412.1,364.62,410.16Z" style="fill:#b16668"></path><path d="M375,418.1a8.81,8.81,0,0,1,2.25,2.69c.64,1.06.2,6,.75,8.32s1,3,2,5.89c1.06,3.24,3.18,6.26.26,14.34s-7.18,11.79-10.7,13.64a9.16,9.16,0,0,1-4.19.81s-4.42-1.91-3.61-4.54S375,418.1,375,418.1Z" style="fill:#263238"></path><path d="M354.87,426.18c.08.85,1.2,2.2,1.65,2.91,1.51,2.39,2.1,5.56,2.54,8.33,2.05,13.09-3.41,19.45,3.34,24.64,2,1.36,6.17,1.21,12.93-6.67,3.45-4,5.71-12.53,4.62-16.47s-2.71-6.56-3.39-9.59,0-8.59-1.53-11.23a12,12,0,0,0-3.89-3.67c-1.2-.81-2.55-2.75-3.78-3.53s-1.88-1.62-2.74-.74L366,412c2.13,3.25.16,4.5,0,6.18a26.71,26.71,0,0,0,.6,5.38c-1.52-2.12-2.1-3.93-3.88-3.7s-2,.13-4.63,2.39S354.79,425.42,354.87,426.18Z" style="fill:#FF0000"></path><path d="M354.87,426.18c.08.85,1.2,2.2,1.65,2.91,1.51,2.39,2.1,5.56,2.54,8.33,2.05,13.09-3.41,19.45,3.34,24.64,2,1.36,6.17,1.21,12.93-6.67,3.45-4,5.71-12.53,4.62-16.47s-2.71-6.56-3.39-9.59,0-8.59-1.53-11.23a12,12,0,0,0-3.89-3.67c-1.2-.81-2.55-2.75-3.78-3.53s-1.88-1.62-2.74-.74L366,412c2.13,3.25.16,4.5,0,6.18a26.71,26.71,0,0,0,.6,5.38c-1.52-2.12-2.1-3.93-3.88-3.7s-2,.13-4.63,2.39S354.79,425.42,354.87,426.18Z" style="opacity:0.4"></path><path d="M375.33,455.39c3.45-4,5.71-12.53,4.62-16.47a35.66,35.66,0,0,0-1.32-3.84c0,.27.11.54.13.76.06.51.1,1,.13,1.53a11.7,11.7,0,0,1-.92,5.85c-.81,1.59-2.69,5.56-4.88,5.55-1.24,0-2.23-1.26-2.64-2.67-.17-.59-.43-2.18-.43-2.18a19.46,19.46,0,0,0-5.78,2.05c-3.26,1.95-3.17,2.42-3.17,2.42a8.38,8.38,0,0,1,0,2.78,6.93,6.93,0,0,1-1.31,2.71,4.26,4.26,0,0,1-.84.61c0,3,.67,5.39,3.5,7.57C364.36,463.42,368.57,463.27,375.33,455.39Z" style="opacity:0.30000000000000004"></path><path d="M359.06,437.42a43.6,43.6,0,0,1,.32,10.4c1,3.38,2.09,3.33,2.31,1.62s-1.73-9-3.17-14.95C358.74,435.49,358.91,436.48,359.06,437.42Z" style="fill:#37474f"></path><path d="M367.92,417c.26-1.61,1.15-4.11.26-5.62-.31-.17-.59-.32-.82-.47-1.33-.84-1.88-1.62-2.74-.74L366,412c2.13,3.25.16,4.5,0,6.18a26.71,26.71,0,0,0,.6,5.38c1.06,5.69,2.18,7.63,2.56,13s-.86,8.87-.12,9.21,2.28-.2,2.76-4.45-1.08-11.5-2.25-15S367.54,419.25,367.92,417Z" style="fill:#37474f"></path><path d="M370.38,444.31a.46.46,0,0,1-.28.13,12.77,12.77,0,0,0-8.73,4.59.54.54,0,0,1-.75,0,.53.53,0,0,1,0-.75,13.73,13.73,0,0,1,9.35-4.91.53.53,0,0,1,.44.91Z" style="fill:#ebebeb"></path><path d="M369.91,439.84a.5.5,0,0,1-.27.14,14.26,14.26,0,0,0-9.21,5,.52.52,0,0,1-.77,0,.54.54,0,0,1,0-.77,15.31,15.31,0,0,1,9.81-5.34.54.54,0,0,1,.46.93Z" style="fill:#ebebeb"></path><path d="M370.23,435a.54.54,0,0,1-.3.15,16.23,16.23,0,0,0-10.29,5.65.6.6,0,0,1-.88-.83,17.43,17.43,0,0,1,11-6,.61.61,0,0,1,.7.48A.59.59,0,0,1,370.23,435Z" style="fill:#ebebeb"></path><path d="M369.72,430.76a.61.61,0,0,1-.29.14,15.75,15.75,0,0,0-10.07,5.52.6.6,0,0,1-.83,0,.59.59,0,0,1,0-.83,17,17,0,0,1,10.71-5.87.59.59,0,0,1,.51,1Z" style="fill:#ebebeb"></path><path d="M368.38,426.62a.61.61,0,0,1-.3.15A15.74,15.74,0,0,0,358,432.28a.59.59,0,1,1-.86-.81,17,17,0,0,1,10.71-5.86.59.59,0,0,1,.51,1Z" style="fill:#ebebeb"></path><path d="M380.64,352.58s-30-5.94-53.85-1.8c-17.33,3-15.74,17.07-12.64,25.74,6.14,17.12,34.32,44.09,34.32,44.09s13.06-5.65,15.82-14.25l-7.15-15.11,21.52,6.13,2.37-3.07Z" style="fill:#37474f"></path><path d="M361.17,416.57c-.13-.4-13-40.74-16.48-46.29l.41-.26,1.16.92c4.21,8.62,15.43,43.73,15.93,45.31Z" style="fill:#263238"></path><path d="M343.35,415.49c3.09,3.17,5.12,5.12,5.12,5.12s13.06-5.65,15.82-14.25l-2.91-6.16Z" style="fill:#263238"></path><path d="M353.23,378.32a150.76,150.76,0,0,1,9.33,14.48l-5.42-1.55c-6.5-14.23-7.87-18.4-17.75-24.86C339.39,366.39,346.41,368.79,353.23,378.32Z" style="fill:#263238"></path><polygon points="356.21 412.64 345.14 421.68 338.89 425.61 345.37 439.43 366.16 429.48 356.21 412.64" style="fill:#b16668"></polygon><path d="M313.52,432.65c-4.74,1.87-7.67,3.75-9.85,6.61s-2.86,5.75-.78,9.22,5.9,7.53,10.43,7.26,7.33-1.39,11.54-3.67Z" style="fill:#263238"></path><path d="M351.37,436.66c.07,1.42-5.92,4.25-12.13,7.21-6.66,3.18-8.3,5.25-13.74,7.93-6.22,3.05-8.58,3.23-13.4,1.89s-10.78-8.24-6.63-14.59c3.38-5.18,7.75-6.6,14.4-8.35a124.12,124.12,0,0,0,15.53-5c4.8-1.86,8.75-5.21,9.74-4.05a38.45,38.45,0,0,0-4.75,4.28c-.25.42-.72,1.3.51.79a2.73,2.73,0,0,1,2-.18c.56.28,2.53,3.26,3.17,4.76.37.87,1.62,3.78.93,5-.27.49-2.08,1.79-1.47,2.15a3.55,3.55,0,0,0,1.85-.24c.43-.18,1-.3,1.4-.46S350.27,437.17,351.37,436.66Z" style="fill:#FF0000"></path><path d="M351.37,436.66c.07,1.42-5.92,4.25-12.13,7.21-6.66,3.18-8.3,5.25-13.74,7.93-6.22,3.05-8.58,3.23-13.4,1.89s-10.78-8.24-6.63-14.59c3.38-5.18,7.75-6.6,14.4-8.35a124.12,124.12,0,0,0,15.53-5c4.8-1.86,8.75-5.21,9.74-4.05a38.45,38.45,0,0,0-4.75,4.28c-.25.42-.72,1.3.51.79a2.73,2.73,0,0,1,2-.18c.56.28,2.53,3.26,3.17,4.76.37.87,1.62,3.78.93,5-.27.49-2.08,1.79-1.47,2.15a3.55,3.55,0,0,0,1.85-.24c.43-.18,1-.3,1.4-.46S350.27,437.17,351.37,436.66Z" style="opacity:0.4"></path><path d="M327.63,450.77c-.89.45-6.53,3.07-8.31,1.5s2.61-4.42,2.61-4.42.69-4.26-4.44-10.52c-.89.69-4.6.66-4.55-1.52s6.26-4.86,6.35-4.9c-6.35,1.7-10.54,3.16-13.82,8.19-4.15,6.35,1.8,13.25,6.63,14.59s7.18,1.16,13.4-1.89C326.12,451.49,327.08,451.09,327.63,450.77Z" style="opacity:0.30000000000000004"></path><path d="M321.33,447.42c-2.36.79-.74,2.93,2.7,2.24,5.17-1,9.46-4,15.21-5.79,6.21-3,12.55-5.73,12.14-7.3-1.12.42-3.49,1.41-3.49,1.41-.47.2-1.67.65-1.67.65-4.71,2-9.92,5.3-15,6.68C326.71,446.53,323.68,446.64,321.33,447.42Z" style="fill:#37474f"></path><path d="M317.83,438.14c2.15-1.25,2.53-2.31,6.75-4.25s11.36-6.09,15.77-8.66a52.57,52.57,0,0,0,4.79-3.55c-.73-.83-3.42-.06-6.11,1.64s-4.33,2.78-7,4.16c-5.18,3.12-11.09,5.22-14,7.13S315.68,439.39,317.83,438.14Z" style="fill:#37474f"></path><path d="M317.51,437.57a.76.76,0,0,0,.12.19,18.67,18.67,0,0,1,4,10.42.64.64,0,0,0,.59.59.52.52,0,0,0,.48-.61c-.66-7.13-4.19-11-4.38-11.21a.51.51,0,0,0-.76,0A.63.63,0,0,0,317.51,437.57Z" style="fill:#f0f0f0"></path><path d="M321.69,434.52a.45.45,0,0,0,.11.17,25.94,25.94,0,0,1,5,12.31.61.61,0,0,0,.6.56.51.51,0,0,0,.46-.62,26.67,26.67,0,0,0-5.31-13,.51.51,0,0,0-.76-.05A.61.61,0,0,0,321.69,434.52Z" style="fill:#f0f0f0"></path><path d="M330.89,446.56a.61.61,0,0,0,.5.38.52.52,0,0,0,.52-.56c-.25-7.55-5.11-14.63-5.34-14.88a.5.5,0,0,0-.76,0,.64.64,0,0,0,.05.83c.05.06,4.75,7,5,14A.54.54,0,0,0,330.89,446.56Z" style="fill:#f0f0f0"></path><path d="M334.75,444.09a.61.61,0,0,0,.49.38.51.51,0,0,0,.53-.55,22.21,22.21,0,0,0-5.63-14.11.49.49,0,0,0-.75,0,.66.66,0,0,0,.09.84,21.34,21.34,0,0,1,5.21,13.16A1.1,1.1,0,0,0,334.75,444.09Z" style="fill:#f0f0f0"></path><path d="M339.76,442a.59.59,0,0,0,.48.37.5.5,0,0,0,.53-.54c0-7.85-5.55-13.92-5.8-14.17a.49.49,0,0,0-.75,0,.63.63,0,0,0,.08.84c.05.05,5.37,5.93,5.4,13.22A.66.66,0,0,0,339.76,442Z" style="fill:#ebebeb"></path><path d="M378.76,352.22l63.51,11.65s.24,22.54-5,36.33a27.48,27.48,0,0,1-21.2,17.28,66.64,66.64,0,0,1-20.68-.38,52.52,52.52,0,0,1-11,6.48c-5.55,2.21-29.83,12.38-29.83,12.38s-9.85-3.18-9.17-15.21l28.71-29.92Z" style="fill:#37474f"></path><polygon points="382.32 382.55 349.36 375.09 349.51 374.02 382.47 381.49 382.32 382.55" style="fill:#263238"></polygon><path d="M438.32,373l-1.06-.17c-.19,1.23-.37,2.49-.55,3.76a121.26,121.26,0,0,1-2.51,13.61c-3-1.25-5.1-3.93-3.46-18.22l-1.07-.12c-1.6,14,.15,17.73,4.25,19.38-1.66,5.73-4.21,10.68-8.7,13.33C418.34,408.62,408.73,407,403,406a28,28,0,0,0-4.34-.57c-3,.08-4.94,1.52-12.94,7.56-2.07,1.56-4.55,3.44-7.57,5.69A129,129,0,0,1,351,433.92c.36.28.71.52,1,.74a131.34,131.34,0,0,0,26.78-15.16c3-2.25,5.51-4.13,7.58-5.69,7.78-5.88,9.62-7.27,12.32-7.35a26.31,26.31,0,0,1,4.13.55c5.88,1,15.73,2.74,22.95-1.51,8.58-5.06,10.4-17.65,12-28.76C438,375.47,438.13,374.22,438.32,373Z" style="fill:#263238"></path><path d="M400.57,409s-3.67,5.33-15.56,10.36c-6.31,2.68-26.51,12.27-34,14.58a13.35,13.35,0,0,0,3.59,2s24.28-10.17,29.83-12.38a52.52,52.52,0,0,0,11-6.48C400.65,412.55,400.57,409,400.57,409Z" style="fill:#263238"></path><path d="M370.15,395s2.33-2.51,4.68-5.27,6.14-8,15.89-7.6,28.49,2.06,28.49,2.06-19.55-3.32-26.3-4.45-11.24-.34-15.09,3.07-10.71,11.33-10.71,11.33Z" style="fill:#263238"></path><path d="M384.43,381.27a19.41,19.41,0,0,1-4.56-13.53s-2.34,8.9,1.39,15.36Z" style="fill:#263238"></path></g><g id="freepik--Top--inject-956"><path d="M396,284.42c-9,1.24-12.91,4.41-20.5,14.38-5.16,6.77-26.11,36.21-26.11,36.21L370,345.82l19.9-22.61Z" style="fill:#f0f0f0"></path><g id="freepik--Chest--inject-956"><path d="M381,312.6c2.55-21.19,11.09-27,14.94-28.18,0,0,8.22-.56,21.83,2.34s16.81,5.66,21.43,7.7c3.3,1.45,3,7.91,3.7,19.23.59,9.19.68,16.89.38,29.61-.25,10.65-.34,18.37-1.08,33.91-24.54,5.08-54.36-2.44-66.76-26.42a104.11,104.11,0,0,0,2.43-13.44C378.9,329.56,380.34,318.34,381,312.6Z" style="fill:#455a64"></path><g id="freepik--Head--inject-956"><path d="M394.25,249.31a14.3,14.3,0,0,0,.39,1.53,6.5,6.5,0,0,0,1.34,2.53c1.54,1.64,4.14,2.26,6.17,3,2.83,1.08,5.66,2.07,8.53,3L415.4,261c.28.09,1.73.36,1.87.63l9.54,18.49c1.49-5,7.25-9.76,10.09-13.95,2.75-4,4.47-7.23,4.72-11.32.14-2.41-1-5.85-2.68-6.75.46-2.45-1.54-11-13.36-16.45a27,27,0,0,0-10.37-2.58,23,23,0,0,0-14.89,4.6,15,15,0,0,0-3.57,3.76A16.27,16.27,0,0,0,394.25,249.31Z"></path><path d="M445.23,238.2a7.8,7.8,0,0,1,4.7,6.72,9.93,9.93,0,0,0-3.68-10.58,5.45,5.45,0,0,1,4.14.95c-1.4-4.24-8-3.83-8-3.83a18,18,0,0,0-3-2.11,6.84,6.84,0,0,0-4.87-.23A2.9,2.9,0,0,0,433,232.6a5,5,0,0,0-6.92,1.69,6.81,6.81,0,0,0-.26,4.93c1,3.57,3.65,6.48,6.67,8.63,1.78,1.27,4.66,3.16,6.83,2.92s4.41-2.66,2.89-5.25c.95,1.43,1.75,1.93,3.1,1.79C448.57,247,446.94,239.79,445.23,238.2Z"></path><path d="M433.83,274.27c-3.87,1.72-6-.91-6-.91l-1.45,17.54a30.58,30.58,0,0,1-22.79,8.17c-.62-3.14-.82-5.8,1.5-8.43l.56-8a49.54,49.54,0,0,1-6.07-1,10.73,10.73,0,0,1-7.59-9.14A46.51,46.51,0,0,1,393.55,255a15.43,15.43,0,0,0,.73-4.2c.07-3.79,1-5.89,2.35-8.91,4.87-3,14.43-3.51,23.27,3.46-1.79,5.55,1.09,11,5,13.65-.38,1.51-1,5.36,1.49,5.6,1.82.17,2.22-2.09,4.33-3.87s6.53-1.79,7.85,1.37C440.39,266.49,438.07,272.39,433.83,274.27Z" style="fill:#b16668"></path><path d="M433.82,270.85a2.05,2.05,0,1,1-2-2.11A2.05,2.05,0,0,1,433.82,270.85Z"></path><path d="M405.62,282.62c6.47,0,11.4-.08,15.29-4.3a40,40,0,0,0,4.77-7.09s-1.34,5.57-3.89,9.14c-2,2.76-6.21,4.74-16.32,4.38Z" style="fill:#9a4a4d"></path><path d="M410.55,257.63a1.81,1.81,0,1,0,2.07-1.59A1.84,1.84,0,0,0,410.55,257.63Z"></path><path d="M412.69,252.25l3.39,2.84a2.33,2.33,0,0,0-.29-3.2A2.17,2.17,0,0,0,412.69,252.25Z"></path><path d="M396,250.58l4.43-.44a2.15,2.15,0,0,0-2.36-2A2.34,2.34,0,0,0,396,250.58Z"></path><path d="M395.93,255a1.81,1.81,0,1,0,2.08-1.59A1.84,1.84,0,0,0,395.93,255Z"></path><path d="M397.32,262.08l5.74,3.8L407,254C404.87,252.83,401,257.92,397.32,262.08Z" style="fill:#9a4a4d"></path><path d="M410,270l-7.73.34a3.79,3.79,0,0,0,3.93,3.8A4.05,4.05,0,0,0,410,270Z" style="fill:#9a4a4d"></path><path d="M408.85,271a4.54,4.54,0,0,1,.92.17,4,4,0,0,1-3.61,2.91,3.59,3.59,0,0,1-1.23-.17A3.55,3.55,0,0,1,408.85,271Z" style="fill:#f28f8f"></path></g></g><g id="freepik--Tablet--inject-956"><g id="freepik--video-tape--inject-956"><path d="M370,359.75c-.18.16-.51.17-1,0L347,352l-16-36.54,3.13-2.55,22,7.73a4.32,4.32,0,0,1,2.23,2l14.8,33.77c.17.38.14.66,0,.81S370.14,359.6,370,359.75Z" style="fill:#37474f"></path><path d="M334.14,312.93,331,315.48l22,7.74a4.36,4.36,0,0,1,1.33.82l3.12-2.55a4.21,4.21,0,0,0-1.34-.83Z" style="fill:#263238"></path><polygon points="339.93 335.83 339.93 335.82 331.01 315.48 339.93 335.83" style="fill:#263238"></polygon><path d="M347,352l22,7.75c.88.31,1.33-.06,1-.82l-14.8-33.78a4.26,4.26,0,0,0-2.21-1.95l-22-7.74Z" style="fill:#455a64"></path><polygon points="339.75 314.9 340.1 315.02 336.98 317.58 336.62 317.46 339.75 314.9"></polygon><line x1="339.15" y1="314.69" x2="339.74" y2="314.9"></line><polygon points="352.64 354 351.92 352.37 350.23 351.77 349.87 351.65 349.74 351.34 335.42 318.67 335.28 318.36 335.64 318.48 337.34 319.08 336.62 317.45 336.98 317.58 337.69 319.21 337.83 319.52 337.47 319.39 335.78 318.79 350.1 351.46 351.8 352.07 352.14 352.19 352.27 352.49 352.28 352.5 352.99 354.13 352.64 354"></polygon><path d="M350,343.22,344.25,330c-.11-.25,0-.38.34-.27l9,3.16a1.38,1.38,0,0,1,.73.65l5.79,13.19c.11.26,0,.38-.34.28l-9-3.16A1.46,1.46,0,0,1,350,343.22Z" style="fill:#fff"></path><path d="M350.77,343.87a1.46,1.46,0,0,1-.73-.65L344.25,330c-.11-.25,0-.38.34-.27l1.71.6,6.19,14.12Z" style="fill:#FF0000"></path><path d="M351.07,326.2s-.32-.72-.71-1.62-3-2.41-5.73-3.38-4.7-1-4.31-.15l.71,1.62,2.17,4.95a1.36,1.36,0,0,0,.74.65l9,3.16c.3.1.45,0,.33-.28Z" style="fill:#fff;opacity:0.30000000000000004"></path><path d="M353.23,331.15l-.63-1.45a15.6,15.6,0,0,0-6.18-4.4c-2.18-.77-3.61-.37-3.86.86l.64,1.46a1.36,1.36,0,0,0,.74.65l2,.71,1.27.45,2.41.84,1.26.45,2,.71C353.2,331.53,353.35,331.41,353.23,331.15Z" style="fill:#37474f"></path><path d="M350.89,330.72a6.79,6.79,0,0,0-3.28-2.71c-1.26-.45-1.95,0-1.66,1l1.27.45,2.41.84Z" style="fill:#fff"></path><path d="M349.63,330.27a3.66,3.66,0,0,0-1.55-1.2c-.57-.2-.91,0-.86.36Z" style="fill:#e0e0e0"></path><path d="M353.27,350.58l.71,1.62c.39.89,2.95,2.41,5.73,3.39s4.7,1,4.3.14l-.71-1.62-2.17-4.95a1.4,1.4,0,0,0-.74-.65l-9-3.15c-.29-.11-.45,0-.33.27Z" style="fill:#fff;opacity:0.30000000000000004"></path><path d="M351.1,345.63l.63,1.45a15.6,15.6,0,0,0,6.18,4.4c2.19.78,3.61.38,3.86-.86l-.64-1.46a1.4,1.4,0,0,0-.74-.65l-2-.7-1.27-.45-2.41-.85-1.26-.44-2-.71C351.14,345.25,351,345.38,351.1,345.63Z" style="fill:#37474f"></path><path d="M353.45,346.07a6.86,6.86,0,0,0,3.28,2.71c1.25.45,1.95,0,1.66-1l-1.27-.45-2.41-.85Z" style="fill:#fff"></path><path d="M354.71,346.51a3.5,3.5,0,0,0,1.55,1.21c.57.19.9,0,.86-.36Z" style="fill:#e0e0e0"></path><path d="M367.21,350.08l1.55-1.27a.39.39,0,0,0,.08-.44l-7.36-16.8c-.07-.15-.21-.2-.32-.11l-1.56,1.27a.41.41,0,0,0-.08.44l7.36,16.8A.21.21,0,0,0,367.21,350.08Z" style="fill:#f5f5f5"></path></g><path d="M336.11,333.65c-1.74-1.93-1.63-2.23-.93-3.39a6.66,6.66,0,0,1,5.08-3.34c1.85-.15,3.71-.39,4.72,0s.41,2.48-1.93,3.28c-3.7,1.26-3.57,2.29-3.57,2.29a48.05,48.05,0,0,1,4.8-1.39,35.63,35.63,0,0,1,5.66.23c1.62.08,2.16,2.11-.47,3.11l3,.15c2.09.1,2.91,1.12,1.43,2.56a3,3,0,0,1-1.78.91s2.19-.25,2.31.48c.36,2.06-.93,2.76-5.2,4.52-3.43,1.42-4.41,3.3-4,4.74l.34.78s-1.8-.8-3.43-1.68c-1.19-.64-2.22-1.4-1.91-3.18,0,0-2.4.31-2.71-1.16a7.72,7.72,0,0,1,.23-3.25,2.64,2.64,0,0,1-1.59-2.33,4.28,4.28,0,0,1,.59-2.71Z" style="fill:#b16668"></path><path d="M349.47,334.44a13.44,13.44,0,0,0-2.69,0,8.91,8.91,0,0,0-2.49,1.09,32.88,32.88,0,0,0-4.37,3,31.27,31.27,0,0,0,4.76-2.32,14.27,14.27,0,0,1,2.24-1.18C347.71,334.82,348.63,334.7,349.47,334.44Z" style="fill:#9a4a4d"></path><path d="M352.1,338.06a5.77,5.77,0,0,0-2.88.22,15,15,0,0,0-2.65,1.17,27.57,27.57,0,0,0-4.72,3.23,54.93,54.93,0,0,0,5.09-2.55A15,15,0,0,1,352.1,338.06Z" style="fill:#9a4a4d"></path></g><path d="M388,364.35c-5.8-1.29-8.54-1.24-15.15-4.43a35.79,35.79,0,0,1-6.54-3.66,14.56,14.56,0,0,1-4.27-5,4.12,4.12,0,0,0-.59-1.07,8.43,8.43,0,0,0-.86-.83,8.14,8.14,0,0,1-1.6-1.61,12.76,12.76,0,0,1-1-2.23,8.52,8.52,0,0,0-.44-1,6.18,6.18,0,0,0-.67-.94,9.34,9.34,0,0,1-1.73-2.49,1.59,1.59,0,0,1,.16-1.5s-1-.87-1.27-1.18a9.12,9.12,0,0,1-1.18-1.45.9.9,0,0,1-.21-.69.74.74,0,0,1,.22-.33c1.56-1.48,3.67-.68,5.45.17,4.61,2.22,9.76,5.53,11.94,6.65s4.34,1.71,4.15.41-2.9-4.62-3.26-8.61c-.18-2,1.53-4.21,3.12-1.94,3.08,4.36,3.15,3.47,7,7.48,2.54,2.64,4.09,6.25,8.16,7.29s29.8,3.25,29.8,3.25l8.17-31.28s3.86-19.32,11.85-24.85c8.26,3.76,11.75,10.3,12.27,14.49.9,7.33.14,13.34-4.27,30.37-3.74,14.45-7.36,23.46-10.1,28.59-3.39,6.34-5.58,5.62-19.32,3.47C407.7,369.8,393.77,365.63,388,364.35Z" style="fill:#b16668"></path><path d="M419.21,350.59c5.39-.72,11.66,1.83,11.66,1.83a21.28,21.28,0,0,0-11.19-3.49Z" style="fill:#b16668"></path><path d="M355.4,339.81c.94.91,2,1.74,3,2.56s2,1.6,3.05,2.41c.51.39,1,.82,1.55,1.2s1.07.74,1.62,1.07c1.1.68,2.22,1.31,3.37,1.88l-1.6-1.1c-.54-.36-1.07-.72-1.6-1.1s-1.05-.73-1.56-1.13-1-.81-1.52-1.21c-1-.8-2.06-1.58-3.12-2.33Z" style="fill:#9a4a4d"></path><path d="M357.45,344.33a16.76,16.76,0,0,0,2,2.35c.73.71,1.48,1.37,2.25,2s1.56,1.26,2.37,1.84a22.24,22.24,0,0,0,2.51,1.61c-.78-.63-1.54-1.28-2.31-1.91l-2.3-1.92-2.3-1.92C358.92,345.75,358.17,345,357.45,344.33Z" style="fill:#9a4a4d"></path><path d="M407.44,349.5c2.55,3,1.72,17,0,20.42a103.28,103.28,0,0,0,24.81,4.1c3.09.06,4.69-2,7.46-8.46s8.62-23.09,11.19-35.17,2.88-20.41.21-25.87-6.39-8-11.88-10.06c-3.55,2.05-9.1,8-12.62,23L418.78,350Z" style="fill:#fafafa"></path><path d="M418.78,350a32.83,32.83,0,0,1,11.19,4.3s-2.43-5.15-10.67-6.48Z" style="fill:#e0e0e0"></path></g></g></g></svg>