<svg xmlns="http://www.w3.org/2000/svg" viewBox="0 0 750 500"><g id="freepik--Floor--inject-954"><path d="M704.05,464.16c0,.15-150.91.26-337,.26S30,464.31,30,464.16s150.88-.26,337.07-.26S704.05,464,704.05,464.16Z" style="fill:#263238"></path></g><g id="freepik--Table--inject-954"><path d="M154.63,315.79v95.45H449.16V315.79Zm265,57.81H180.21V322.49H419.59Z" style="fill:#455a64"></path><rect x="145.34" y="307.41" width="317" height="14.71" style="fill:#455a64"></rect><path d="M460.64,322.12c0,.14-70.08.26-156.5.26s-156.51-.12-156.51-.26,70.06-.26,156.51-.26S460.64,322,460.64,322.12Z" style="fill:#263238"></path><path d="M460.64,306.68c0,.14-70.08.26-156.5.26s-156.51-.12-156.51-.26,70.06-.26,156.51-.26S460.64,306.54,460.64,306.68Z" style="fill:#263238"></path><rect x="154.63" y="391.73" width="25.59" height="73.73" style="fill:#455a64"></rect><rect x="419.48" y="390.38" width="29.68" height="73.73" style="fill:#455a64"></rect><path d="M419.48,411.24c-.15,0-.26-19.94-.26-44.52s.11-44.52.26-44.52.26,19.93.26,44.52S419.62,411.24,419.48,411.24Z" style="fill:#263238"></path><path d="M180.21,411.75c-.14,0-.26-20-.26-44.63s.12-44.63.26-44.63.27,20,.27,44.63S180.36,411.75,180.21,411.75Z" style="fill:#263238"></path></g><g id="freepik--device-2--inject-954"><rect x="218.9" y="363.98" width="158.11" height="9.28" style="fill:#263238"></rect><path d="M377,373.25s0-.19,0-.58,0-1,0-1.73c0-1.54,0-3.85-.05-7l.08.08c-21.45.1-84.18.18-158.1.18h0l.27-.26c0,3.17,0,6.33,0,9.27l-.26-.26,112,.11,33.7.08,9.15,0h2.39l.82,0s-.26,0-.79,0l-2.35,0-9.09,0-33.64.07-112.24.11h-.26v-9.79h.27c73.92,0,136.65.07,158.1.17h.08V364c0,3.13,0,5.45,0,7,0,.75,0,1.32,0,1.71S377,373.25,377,373.25Z" style="fill:#455a64"></path><rect x="202.56" y="328.45" width="186.05" height="39.15" style="fill:#263238"></rect><path d="M388.61,367.6s0-.23,0-.68,0-1.12,0-2c0-1.76,0-4.33,0-7.68,0-6.7-.05-16.47-.08-28.81l.14.15-186,.11h0l.26-.26V367.6l-.26-.25,132.62.11,39.18.07,10.57,0,2.74,0h.94l-.91,0-2.71,0-10.51,0-39.12.07-132.8.12h-.25v-.26c0-12.6,0-25.74,0-39.15v-.26h.27l186,.11h.15v.15c0,12.38-.06,22.18-.08,28.89,0,3.34,0,5.9,0,7.65,0,.86,0,1.51,0,2S388.61,367.6,388.61,367.6Z" style="fill:#455a64"></path><rect x="208.62" y="354.1" width="7.55" height="9.84" style="fill:#FF0000"></rect><rect x="220.71" y="354.1" width="7.55" height="9.84" style="fill:#455a64"></rect><rect x="229.79" y="354" width="7.55" height="9.84" style="fill:#455a64"></rect><rect x="238.66" y="354" width="7.55" height="9.84" style="fill:#455a64"></rect><rect x="247.53" y="354" width="7.55" height="9.84" style="fill:#455a64"></rect><rect x="280.14" y="354" width="7.55" height="9.84" style="fill:#455a64"></rect><rect x="270.87" y="354" width="7.55" height="9.84" style="fill:#455a64"></rect><rect x="323.41" y="354.1" width="7.55" height="9.84" style="fill:#e0e0e0"></rect><rect x="314.13" y="354.1" width="7.55" height="9.84" style="fill:#FF0000"></rect><rect x="208.57" y="332.3" width="174.04" height="19.42" style="fill:#455a64"></rect><rect x="311.59" y="337.71" width="45.96" height="10.7" rx="1.81" style="fill:#263238"></rect><path d="M293.9,347.93s0-.25,0-.72,0-1.17,0-2.06c0-1.83,0-4.48-.07-7.92l.13.12c-14.34.08-43.15.14-76.28.14h0l.26-.26h0v10.69l-.26-.26,54.2.11,16.16.08,4.38,0,1.15,0,.4,0h-.37l-1.11,0-4.32,0-16.1.07-54.39.12h-.26V337.24h0c-.06,0,.49-.5.26-.26h0c33.13,0,61.94,0,76.28.13H294v.13c0,3.47,0,6.15-.07,8,0,.88,0,1.55,0,2S293.9,347.93,293.9,347.93Z" style="fill:#263238"></path><path d="M318.62,345.06a1.49,1.49,0,0,1,0,.33h-2a1.38,1.38,0,0,1,0-.66h.65a5.47,5.47,0,0,0,0-1,1.55,1.55,0,0,1,0-.33,1.51,1.51,0,0,1,0-.32,1.42,1.42,0,0,1,0-.33,1.69,1.69,0,0,1,0-.33,1.42,1.42,0,0,1,0-.33h-.49a1.69,1.69,0,0,1,0-.33,1.55,1.55,0,0,1,0-.33h.49a1.69,1.69,0,0,1,0-.33,1.55,1.55,0,0,1,0-.33h.66a1.06,1.06,0,0,1,0,.33,1.15,1.15,0,0,1,0,.33,1.06,1.06,0,0,1,0,.33,1.15,1.15,0,0,1,0,.33,1,1,0,0,1,0,.33,1.15,1.15,0,0,1,0,.33,1,1,0,0,1,0,.33,1,1,0,0,1,0,.32,4.12,4.12,0,0,0,0,1,1.06,1.06,0,0,1,0,.33h.66A1.49,1.49,0,0,1,318.62,345.06Z" style="fill:#fff"></path><path d="M320.51,344.4a1.55,1.55,0,0,1,0,.33h-.41a1.38,1.38,0,0,1,0-.66h-.25a1.83,1.83,0,0,1,0-.66,1.51,1.51,0,0,1,0-.32,1.42,1.42,0,0,1,0-.33,1.69,1.69,0,0,1,0-.33,1.42,1.42,0,0,1,0-.33h.25a1.15,1.15,0,0,1,0-.33,1.06,1.06,0,0,1,0-.33h.41a1.55,1.55,0,0,1,0,.33,1.69,1.69,0,0,1,0,.33,1.42,1.42,0,0,1,0,.33,1.69,1.69,0,0,1,0,.33,1.42,1.42,0,0,1,0,.33,1.51,1.51,0,0,1,0,.32,5.47,5.47,0,0,0,0,1Zm.79-3h-.82a1.66,1.66,0,0,1,0-.33,1.49,1.49,0,0,1,0-.33h.82a1.55,1.55,0,0,1,0,.33A1.69,1.69,0,0,1,321.3,341.44Zm-.82,3.29h.82a1.83,1.83,0,0,1,0,.66h-.82a1.38,1.38,0,0,1,0-.66Zm1.51-1.64a1.51,1.51,0,0,1,0,.32,1.83,1.83,0,0,1,0,.66h-.25a1.38,1.38,0,0,1,0,.66h-.41a5.47,5.47,0,0,0,0-1,1.55,1.55,0,0,1,0-.33,1.51,1.51,0,0,1,0-.32,1.42,1.42,0,0,1,0-.33,1.69,1.69,0,0,1,0-.33,1.42,1.42,0,0,1,0-.33,1.69,1.69,0,0,1,0-.33,1.55,1.55,0,0,1,0-.33h.41a1.06,1.06,0,0,1,0,.33,1.15,1.15,0,0,1,0,.33H322a1.42,1.42,0,0,1,0,.33,1.69,1.69,0,0,1,0,.33A1.42,1.42,0,0,1,322,343.09Z" style="fill:#fff"></path><path d="M324.6,342.1a1.42,1.42,0,0,1,0,.33,1.69,1.69,0,0,1,0,.33h-.83a1.69,1.69,0,0,1,0-.33,1.42,1.42,0,0,1,0-.33,1.69,1.69,0,0,1,0-.33,1.55,1.55,0,0,1,0-.33h.83a1.55,1.55,0,0,1,0,.33A1.69,1.69,0,0,1,324.6,342.1Zm0,2.3a1.83,1.83,0,0,0,0,.66,1.55,1.55,0,0,1,0,.33h-.83a5.47,5.47,0,0,0,0-1,1.55,1.55,0,0,1,0-.33h.83A1.55,1.55,0,0,1,324.63,344.4Z" style="fill:#fff"></path><path d="M327.1,344.4a1.55,1.55,0,0,1,0,.33h-.41a1.38,1.38,0,0,1,0-.66h-.25a1.83,1.83,0,0,1,0-.66,1.51,1.51,0,0,1,0-.32,1.42,1.42,0,0,1,0-.33,1.69,1.69,0,0,1,0-.33,1.42,1.42,0,0,1,0-.33h.25a1.15,1.15,0,0,1,0-.33,1.06,1.06,0,0,1,0-.33h.41a1.55,1.55,0,0,1,0,.33,1.69,1.69,0,0,1,0,.33,1.42,1.42,0,0,1,0,.33,1.69,1.69,0,0,1,0,.33,1.42,1.42,0,0,1,0,.33,1.51,1.51,0,0,1,0,.32,5.47,5.47,0,0,0,0,1Zm.79-3h-.82a1.69,1.69,0,0,1,0-.33,1.55,1.55,0,0,1,0-.33h.82a1.49,1.49,0,0,1,0,.33A1.66,1.66,0,0,1,327.89,341.44Zm-.82,3.29h.82a1.38,1.38,0,0,1,0,.66h-.82a1.83,1.83,0,0,1,0-.66Zm1.51-1.64a1.51,1.51,0,0,1,0,.32,1.83,1.83,0,0,1,0,.66h-.25a1.38,1.38,0,0,1,0,.66h-.41a5.47,5.47,0,0,0,0-1,1.55,1.55,0,0,1,0-.33,1.51,1.51,0,0,1,0-.32,1.42,1.42,0,0,1,0-.33,1.69,1.69,0,0,1,0-.33,1.42,1.42,0,0,1,0-.33,1.69,1.69,0,0,1,0-.33,1.55,1.55,0,0,1,0-.33h.41a1.06,1.06,0,0,1,0,.33,1.15,1.15,0,0,1,0,.33h.25a1.42,1.42,0,0,1,0,.33,1.69,1.69,0,0,1,0,.33A1.42,1.42,0,0,1,328.58,343.09Z" style="fill:#fff"></path><path d="M330.4,344.4a1.06,1.06,0,0,1,0,.33H330a1.83,1.83,0,0,1,0-.66h-.25a1.83,1.83,0,0,1,0-.66,1.51,1.51,0,0,1,0-.32,1.42,1.42,0,0,1,0-.33,1.69,1.69,0,0,1,0-.33,1.42,1.42,0,0,1,0-.33H330a1.69,1.69,0,0,1,0-.33,1.55,1.55,0,0,1,0-.33h.41a1.06,1.06,0,0,1,0,.33,1.15,1.15,0,0,1,0,.33,1,1,0,0,1,0,.33,1.15,1.15,0,0,1,0,.33,1,1,0,0,1,0,.33,1,1,0,0,1,0,.32,4.12,4.12,0,0,0,0,1Zm.79-3h-.83a1.69,1.69,0,0,1,0-.33,1.55,1.55,0,0,1,0-.33h.83a1.55,1.55,0,0,1,0,.33A1.69,1.69,0,0,1,331.19,341.44Zm-.83,3.29h.83a1.83,1.83,0,0,1,0,.66h-.83a1.83,1.83,0,0,1,0-.66Zm1.52-1.64a1.51,1.51,0,0,1,0,.32,1.83,1.83,0,0,1,0,.66h-.25a1.83,1.83,0,0,1,0,.66h-.41a4.12,4.12,0,0,0,0-1,1.49,1.49,0,0,1,0-.33,1.47,1.47,0,0,1,0-.32,1.34,1.34,0,0,1,0-.33,1.66,1.66,0,0,1,0-.33,1.34,1.34,0,0,1,0-.33,1.66,1.66,0,0,1,0-.33,1.49,1.49,0,0,1,0-.33h.41a1.55,1.55,0,0,1,0,.33,1.69,1.69,0,0,1,0,.33h.25a1.42,1.42,0,0,1,0,.33,1.69,1.69,0,0,1,0,.33A1.42,1.42,0,0,1,331.88,343.09Z" style="fill:#fff"></path><rect x="352.67" y="343.44" width="1.43" height="1.43" style="fill:#fff"></rect><path d="M382.61,364a.86.86,0,0,1,0-.19v-.51c0-.48,0-1.13,0-2,0-1.72-.05-4.17-.08-7.26l.15.15c-10.42.07-28,.11-48,.11h0c.52-.52.14-.14.26-.25h0v5c0,1.65,0,3.28,0,4.88l-.25-.26,34.16.11,10.14.08,2.75,0,.72,0a.87.87,0,0,1,.26,0h-.23l-.69,0L379,364l-10.08.08-34.34.11h-.26V354.08h0c.11-.12-.26.25.26-.27h0c20,0,37.61.05,48,.12h.14v.14c0,3.12-.06,5.61-.08,7.35,0,.81,0,1.45,0,1.92S382.61,364,382.61,364Z" style="fill:#455a64"></path></g><g id="freepik--Videotapes--inject-954"><path d="M200.91,413.87h73.91a0,0,0,0,1,0,0v28.27a2.23,2.23,0,0,1-2.23,2.23H203.14a2.23,2.23,0,0,1-2.23-2.23V413.87a0,0,0,0,1,0,0Z" transform="translate(666.68 190.72) rotate(89.93)" style="fill:#263238"></path><rect x="220.09" y="425.97" width="70.77" height="7.76" transform="translate(685 173.84) rotate(89.93)" style="fill:#263238"></rect><rect x="202.98" y="419" width="73.91" height="20.23" transform="translate(668.75 188.65) rotate(89.93)" style="fill:#FF0000"></rect><path d="M250,403.27a14.72,14.72,0,0,0-11.7-4.06c-6.66.48-8.54,4.62-8.54,4.62v9l20.24,0Z" style="fill:#e0e0e0"></path><path d="M250.08,453.16a14.72,14.72,0,0,1-11.68,4.09c-6.67-.46-8.56-4.59-8.56-4.59v-9l20.24,0Z" style="fill:#e0e0e0"></path><rect x="227.63" y="420.86" width="24.6" height="18" rx="1.77" transform="translate(669.5 189.39) rotate(89.93)" style="fill:#fff"></rect><path d="M230.74,443.69a9.3,9.3,0,1,0,18.59,0Z" style="fill:#263238"></path><path d="M245.25,444.34a1.93,1.93,0,0,0,0-.24v-.43l-10.46,0a5.34,5.34,0,0,0,5.31,5.27A4.91,4.91,0,0,0,245.25,444.34Z" style="fill:#f5f5f5"></path><path d="M250.17,406a15,15,0,0,0-11.84-4.2c-6.66.48-8.59,4.78-8.59,4.78l0,8.8,20.48,0Z" style="fill:#263238"></path><path d="M229.67,415.37v0l0-8.81a7.42,7.42,0,0,1,1.81-2.22,11.42,11.42,0,0,1,6.81-2.57c.42,0,.85-.05,1.27-.05a15,15,0,0,1,6.58,1.46,14.76,14.76,0,0,1,3.68,2.52,1.88,1.88,0,0,0,.32.27h0v9.4h0Zm.09-8.82,0,8.77,20.43,0V406a3.71,3.71,0,0,1-.32-.27,14.54,14.54,0,0,0-3.66-2.52,15.3,15.3,0,0,0-7.83-1.4,11.62,11.62,0,0,0-6.78,2.56A7.36,7.36,0,0,0,229.76,406.55Z" style="fill:#455a64"></path><path d="M245.44,415.32s-.51-5.16-5.45-5.16a5.29,5.29,0,0,0-5.47,5.13Z" style="fill:#f5f5f5"></path><path d="M237.84,443.68a2.19,2.19,0,0,0,4.38,0" style="fill:#e0e0e0"></path><path d="M235.48,443.68v-.05h.75v.05a4.62,4.62,0,0,0,.11.91v0l-.73.2v-.05A4.53,4.53,0,0,1,235.48,443.68Zm2,3.72,0,0,.38-.57,0,0a3.71,3.71,0,0,0,1.7.64,3.54,3.54,0,0,0,.92,0h.05l.09.74h0a3.52,3.52,0,0,1-.56,0l-.53,0a4.64,4.64,0,0,1-2-.76l0,0Zm5.41-1.18,0,0a3.81,3.81,0,0,0,.84-1.62l0,0a4,4,0,0,0,.09-.86v-.05h.75v.05a4.71,4.71,0,0,1-.11,1.08,4.81,4.81,0,0,1-1,1.95l0,0Z" style="fill:#e0e0e0"></path><path d="M242.11,415.28a2.2,2.2,0,0,0-4.39,0" style="fill:#e0e0e0"></path><path d="M239.31,410.81h0a2.61,2.61,0,0,1,.55,0,2.57,2.57,0,0,1,.55,0,4.48,4.48,0,0,1,2,.76l0,0-.42.63,0,0a3.76,3.76,0,0,0-1.7-.64l-.46,0-.46,0h0Zm4.28,3.56.74-.18v0a4.4,4.4,0,0,1,.13,1.09h0v.05h-.76v-.05a3.41,3.41,0,0,0-.11-.9Z" style="fill:#e0e0e0"></path><path d="M254.34,466.62v-2.21l3.58.08-.09-69.79-3.57-.08v-2.47h5.9a2,2,0,0,1,2,2l.09,70.47a2,2,0,0,1-2,2Z" style="fill:#263238"></path><path d="M254.34,466.62l.45,0,1.3,0,2.09,0h1.33a4.28,4.28,0,0,0,1.46-.15,1.89,1.89,0,0,0,1.07-1.14,2.24,2.24,0,0,0,.1-.87c0-.31,0-.63,0-1,0-1.31,0-2.74,0-4.26,0-3.07,0-6.55-.06-10.4,0-7.71-.05-16.87-.09-27.05,0-5.09,0-10.44,0-16,0-2.77,0-5.59,0-8.45v-2.15c0-.35,0-.74,0-1.07a1.66,1.66,0,0,0-.3-.88,1.81,1.81,0,0,0-1.67-.77h-5.69l.26-.26v2.47l-.26-.26,3.58.08h.25v.25c0,32.2,0,58.91-.07,69.79v.09h-.09l-3.58-.12.06,0c0,.72,0,1.26,0,1.65s0,.56,0,.56,0-.16,0-.53,0-.95,0-1.68v-.06h.06l3.58,0-.09.1c-.1-10.88-.2-37.59-.25-69.79l.25.26-3.58-.08H254v-.25c0-.81,0-1.63,0-2.47v-.26h6a2.35,2.35,0,0,1,2.1,1,2.26,2.26,0,0,1,.39,1.15c0,.39,0,.73,0,1.1v2.15q0,4.29,0,8.45v16c0,10.17,0,19.34,0,27.05,0,3.85,0,7.33,0,10.4,0,1.52,0,3,0,4.26v1a2.52,2.52,0,0,1-.13.94,2.11,2.11,0,0,1-1.2,1.26,4.25,4.25,0,0,1-1.56.13h-1.35l-2.1,0-1.28,0A3,3,0,0,1,254.34,466.62Z" style="fill:#455a64"></path><path d="M220.83,427.67h24.6a0,0,0,0,1,0,0v2.62a1.79,1.79,0,0,1-1.79,1.79h-21a1.79,1.79,0,0,1-1.79-1.79v-2.62A0,0,0,0,1,220.83,427.67Z" transform="matrix(0, 1, -1, 0, 662.71, 196.2)" style="fill:#FF0000"></path><path d="M238.84,440.09c-.14,0-.26-4.58-.27-10.22a100.54,100.54,0,0,1,.25-10.23,100.19,100.19,0,0,1,.27,10.23A97,97,0,0,1,238.84,440.09Z" style="fill:#263238"></path><path d="M241.3,440.09c-.14,0-.26-4.58-.27-10.23a97,97,0,0,1,.25-10.22c.14,0,.26,4.58.27,10.22A97.17,97.17,0,0,1,241.3,440.09Z" style="fill:#263238"></path><path d="M243.76,440.09a98.33,98.33,0,0,1-.28-10.23c0-5.65.11-10.22.25-10.22a98,98,0,0,1,.28,10.22C244,435.51,243.9,440.09,243.76,440.09Z" style="fill:#263238"></path><path d="M234.46,419.34v.43l-2.11.28h0l2.11.28v.39l-2.72-.41v-.57Z" style="fill:#fff"></path><path d="M234.46,420.93v.43h-1.11v.46h1.11v.43h-2.72v-.43H233v-.46h-1.22v-.42Z" style="fill:#fff"></path><path d="M231.88,422.65a.78.78,0,0,1,.51-.16h.15v.41h-.18c-.18,0-.27.07-.27.22a.18.18,0,0,0,.07.16.28.28,0,0,0,.2.06.56.56,0,0,0,.3-.08A1.14,1.14,0,0,0,233,423a1.61,1.61,0,0,1,.42-.36.82.82,0,0,1,.42-.11.7.7,0,0,1,.5.16.62.62,0,0,1,.18.48.57.57,0,0,1-.18.46.68.68,0,0,1-.5.16h-.12v-.41h.14a.31.31,0,0,0,.21-.05.21.21,0,0,0,.06-.16c0-.14-.09-.21-.26-.21a.48.48,0,0,0-.28.08,1.85,1.85,0,0,0-.31.29,1.5,1.5,0,0,1-.42.37,1,1,0,0,1-.44.1.74.74,0,0,1-.52-.17.62.62,0,0,1-.18-.48A.61.61,0,0,1,231.88,422.65Z" style="fill:#fff"></path><path d="M229.86,422.76a88,88,0,0,1-.27-9.59,85.37,85.37,0,0,1,.25-9.59,91.17,91.17,0,0,1,.27,9.59A91.49,91.49,0,0,1,229.86,422.76Z" style="fill:#455a64"></path><path d="M236.31,409.7c-.05,0,.12-.36.55-.75a4.92,4.92,0,0,1,2-1,4.82,4.82,0,0,1,2.25-.06c.56.13.87.32.85.38a13.47,13.47,0,0,0-3,.18A13.06,13.06,0,0,0,236.31,409.7Z" style="fill:#455a64"></path><path d="M235,408.72a5.18,5.18,0,0,1,3.23-2.16,5.12,5.12,0,0,1,3.87.17,15.45,15.45,0,0,0-3.73.33A16.64,16.64,0,0,0,235,408.72Z" style="fill:#455a64"></path><path d="M234,406.53a7.06,7.06,0,0,1,4.23-2,6.93,6.93,0,0,1,4.65.57,13,13,0,0,0-8.88,1.46Z" style="fill:#455a64"></path><path d="M236.83,449.22c.07-.14,1.21.37,2.7.58s2.72.06,2.75.21a4.24,4.24,0,0,1-2.82.3A4.29,4.29,0,0,1,236.83,449.22Z" style="fill:#455a64"></path><path d="M235.76,449.69a19.71,19.71,0,0,0,3.62,1.09,19.5,19.5,0,0,0,3.78-.14,6.7,6.7,0,0,1-7.4-.95Z" style="fill:#455a64"></path><path d="M235.36,415.31h0a4.39,4.39,0,0,1,1.14-3l0,0,.57.5,0,0a3.7,3.7,0,0,0-.85,1.61,4.35,4.35,0,0,0-.11.9v.05h-.75Z" style="fill:#FF0000"></path><rect x="280.19" y="428.22" width="79.34" height="12.19" rx="1.16" style="fill:#263238"></rect><path d="M359.53,429.38a2.57,2.57,0,0,0-.12-.44,1.15,1.15,0,0,0-1.06-.67l-5.27.05-19.4.09-28.78,0-17,0h-4.46c-.73,0-1.53,0-2.22,0a.89.89,0,0,0-.78.92v9.83a.88.88,0,0,0,.41.76.84.84,0,0,0,.43.14h16.48l17,0,28.78.05,11,0h3.47a1.33,1.33,0,0,0,.94-.21c.56-.39.38-1.13.42-1.76s0-1.24,0-1.81c0-2.27,0-4.05.05-5.28,0-.58,0-1,0-1.37s0-.47,0-.47,0,.16,0,.47,0,.79,0,1.37c0,1.23,0,3,.05,5.28,0,.57,0,1.18,0,1.81,0,.32,0,.65,0,1a1.26,1.26,0,0,1-.5,1,1.54,1.54,0,0,1-1.09.28h-3.47l-11,0-28.78.06h-33.5a1.37,1.37,0,0,1-.68-.22,1.41,1.41,0,0,1-.65-1.2v-9.83a1.3,1.3,0,0,1,.15-.66,1.38,1.38,0,0,1,1.08-.77c.82,0,1.53,0,2.29,0H304.9l28.78.06,19.4.08,5.27.05a1.19,1.19,0,0,1,1.11.75A.87.87,0,0,1,359.53,429.38Z" style="fill:#455a64"></path><rect x="289.97" y="440.52" width="79.34" height="12.19" rx="1.16" style="fill:#263238"></rect><path d="M369.32,441.68a2.32,2.32,0,0,0-.12-.44,1.13,1.13,0,0,0-1.06-.67l-5.28.05-19.4.08-28.77.06H293.24c-.74,0-1.54,0-2.22,0a.87.87,0,0,0-.69.49.88.88,0,0,0-.1.43v9.83a.91.91,0,0,0,.84.9h33.48l28.77.06,11.06,0h3.47a1.25,1.25,0,0,0,.93-.21c.57-.38.39-1.13.42-1.75s0-1.24,0-1.82c0-2.27,0-4,.05-5.27,0-.58,0-1,0-1.37s0-.47,0-.47,0,.16,0,.47,0,.79,0,1.37c0,1.23,0,3,.05,5.27,0,.58,0,1.18,0,1.82v1a1.3,1.3,0,0,1-.49,1,1.55,1.55,0,0,1-1.09.27h-3.47l-11.06,0-28.77.05-17,0H291a1.33,1.33,0,0,1-.67-.22,1.43,1.43,0,0,1-.66-1.2v-9.83a1.52,1.52,0,0,1,.15-.66,1.45,1.45,0,0,1,1.09-.78c.82,0,1.52,0,2.29,0h4.46l17,0,28.77.05,19.4.09,5.28.05a1.2,1.2,0,0,1,1.11.75A.87.87,0,0,1,369.32,441.68Z" style="fill:#455a64"></path><rect x="274.05" y="415.96" width="79.34" height="12.19" rx="1.16" style="fill:#FF0000"></rect><rect x="279.93" y="452.89" width="79.34" height="12.19" rx="1.16" style="fill:#263238"></rect><path d="M359.28,454.05a2.57,2.57,0,0,0-.12-.44,1.17,1.17,0,0,0-1.06-.67l-5.28.05-19.4.08-28.77.06-17,0H283.2c-.74,0-1.54,0-2.23,0a.85.85,0,0,0-.68.49.88.88,0,0,0-.1.43v9.83a.89.89,0,0,0,.42.76.81.81,0,0,0,.42.14h16.48l17,0,28.77.05,11.06,0h3.47a1.35,1.35,0,0,0,.93-.21c.57-.39.39-1.13.42-1.76s0-1.24,0-1.81c0-2.27,0-4.05.05-5.28,0-.58,0-1,0-1.37s0-.47,0-.47,0,.16,0,.47,0,.79,0,1.37c0,1.23,0,3,.05,5.28,0,.57,0,1.17,0,1.81v1a1.26,1.26,0,0,1-.5,1,1.58,1.58,0,0,1-1.08.28h-3.47l-11.06,0-28.77.06H281a1.33,1.33,0,0,1-.67-.22,1.42,1.42,0,0,1-.66-1.2v-9.83a1.55,1.55,0,0,1,.15-.66,1.41,1.41,0,0,1,1.09-.77c.82,0,1.52,0,2.29,0h21.45l28.77.06,19.4.08,5.28,0a1.21,1.21,0,0,1,1.11.75A.87.87,0,0,1,359.28,454.05Z" style="fill:#455a64"></path><rect x="289.97" y="431.01" width="54.9" height="6.85" rx="1.18" style="fill:#fff"></rect><path d="M330.33,433.92l-.7.47a10.91,10.91,0,0,1-2.15,1.1,4.56,4.56,0,0,1-3.73-.12,2.52,2.52,0,0,1-1.39-1.9,1,1,0,0,1,.71-1.07.74.74,0,0,1,.7.12,1,1,0,0,1,.33.65,3.08,3.08,0,0,1-1.35,2.57,3.26,3.26,0,0,1-3.11.34,2.66,2.66,0,0,1-1.32-1.07,1.56,1.56,0,0,1-.23-.87,1.09,1.09,0,0,1,.44-.81,1,1,0,0,1,.91-.21.89.89,0,0,1,.57.76,1.56,1.56,0,0,1-1.06,1.48,5,5,0,0,1-3.78.09,1.91,1.91,0,0,1-1.29-1.49,1.38,1.38,0,0,1,.34-1,.93.93,0,0,1,1-.31,1.29,1.29,0,0,1,.54,1.87,3.14,3.14,0,0,1-1.69,1.24,5.18,5.18,0,0,1-4.18-.3,2,2,0,0,1-1.26-1.72,1.16,1.16,0,0,1,.63-.91.78.78,0,0,1,1,.35,1.16,1.16,0,0,1,0,1.1,2.19,2.19,0,0,1-.73.78,4.49,4.49,0,0,1-3.95.55,2.21,2.21,0,0,1-1.5-1.29,1.18,1.18,0,0,1,.16-1,.9.9,0,0,1,.91-.43,1.16,1.16,0,0,1,.63,1.68c-1.35,2.32-5,2.06-6-.07a1.19,1.19,0,0,1,.5-1.51.82.82,0,0,1,.83.08,1.18,1.18,0,0,1,.43.69,1.49,1.49,0,0,1-.59,1.39,4,4,0,0,1-1.29.69A5.1,5.1,0,0,1,297,436a2.8,2.8,0,0,1-2-1.25,1.14,1.14,0,0,1,.8-1.68,1.08,1.08,0,0,1,.95,1.3,1.66,1.66,0,0,1-.87,1.07,3,3,0,0,1-1,.31,7.45,7.45,0,0,1-.84.07l.21,0,.62-.08a3.12,3.12,0,0,0,.95-.32,1.61,1.61,0,0,0,.82-1,1,1,0,0,0-.87-1.18,1,1,0,0,0-.7,1.53,2.69,2.69,0,0,0,1.92,1.17,5.05,5.05,0,0,0,2.6-.16,4,4,0,0,0,1.23-.67,1.3,1.3,0,0,0,.53-1.23c-.07-.47-.57-.9-1-.66a1,1,0,0,0-.42,1.3c.91,2,4.45,2.21,5.67.05a1,1,0,0,0-.49-1.41c-.57-.12-1,.64-.84,1.18a2,2,0,0,0,1.38,1.16,4.16,4.16,0,0,0,1.92.18,4.24,4.24,0,0,0,1.84-.71c.54-.35,1-1,.67-1.61a.57.57,0,0,0-.76-.26.93.93,0,0,0-.51.75c0,.65.56,1.19,1.15,1.51a5,5,0,0,0,4,.29,3,3,0,0,0,1.58-1.15,1.09,1.09,0,0,0-.43-1.58c-.6-.21-1.13.51-1.08,1.1a1.72,1.72,0,0,0,1.17,1.31,4.73,4.73,0,0,0,3.62-.08,1.34,1.34,0,0,0,.95-1.28.68.68,0,0,0-.43-.6.86.86,0,0,0-.75.17,1.07,1.07,0,0,0-.17,1.45,2.51,2.51,0,0,0,1.23,1,3.1,3.1,0,0,0,3-.32,2.89,2.89,0,0,0,1.29-2.41.67.67,0,0,0-.84-.66.91.91,0,0,0-.62.94,2.37,2.37,0,0,0,1.31,1.79,4.5,4.5,0,0,0,3.66.16,11.77,11.77,0,0,0,2.15-1.07Z" style="fill:#263238"></path><path d="M333,436.14a4.39,4.39,0,0,1,.51-1.63,4.44,4.44,0,0,1,.94-1.41c.05,0-.36.67-.75,1.5S333.1,436.16,333,436.14Z" style="fill:#263238"></path><path d="M334.09,435.89a9.42,9.42,0,0,1,.9-1.79,9,9,0,0,1,1.08-1.68,10.74,10.74,0,0,1-.9,1.78A10.52,10.52,0,0,1,334.09,435.89Z" style="fill:#263238"></path><path d="M335.28,436.39s.5-.86,1.1-1.94,1-2,1.08-1.95a11.31,11.31,0,0,1-2.18,3.89Z" style="fill:#263238"></path><rect x="284.19" y="455.56" width="54.9" height="6.85" rx="1.18" style="fill:#fff"></rect><path d="M324.55,458.48s-.24.17-.7.46a11.58,11.58,0,0,1-2.14,1.11,4.55,4.55,0,0,1-3.74-.13,2.5,2.5,0,0,1-1.39-1.89,1.05,1.05,0,0,1,.71-1.08.76.76,0,0,1,.7.12,1,1,0,0,1,.33.66,3.06,3.06,0,0,1-1.35,2.56,3.29,3.29,0,0,1-3.11.35,2.63,2.63,0,0,1-1.32-1.08,1.54,1.54,0,0,1-.23-.87,1.14,1.14,0,0,1,.44-.81,1,1,0,0,1,.92-.2.84.84,0,0,1,.56.76,1.51,1.51,0,0,1-1.06,1.47,4.94,4.94,0,0,1-3.78.09,1.91,1.91,0,0,1-1.29-1.49,1.39,1.39,0,0,1,.34-1,.94.94,0,0,1,1-.31,1.31,1.31,0,0,1,.55,1.88,3.25,3.25,0,0,1-1.7,1.24,5.18,5.18,0,0,1-4.18-.31,2,2,0,0,1-1.26-1.71,1.18,1.18,0,0,1,.63-.92.79.79,0,0,1,1,.36,1.14,1.14,0,0,1,0,1.09,2.19,2.19,0,0,1-.73.78,4.35,4.35,0,0,1-1.93.74,4.46,4.46,0,0,1-2-.18,2.23,2.23,0,0,1-1.5-1.29,1.2,1.2,0,0,1,.16-1,.88.88,0,0,1,.92-.42,1.15,1.15,0,0,1,.62,1.67c-1.34,2.33-5,2.07-6-.07a1.18,1.18,0,0,1,.5-1.51.83.83,0,0,1,.83.08,1.14,1.14,0,0,1,.42.7,1.43,1.43,0,0,1-.59,1.38,4.1,4.1,0,0,1-1.28.69,5.11,5.11,0,0,1-2.67.15,2.77,2.77,0,0,1-2-1.25,1.14,1.14,0,0,1,.8-1.67,1.07,1.07,0,0,1,.95,1.29,1.7,1.7,0,0,1-.87,1.08,2.94,2.94,0,0,1-1,.3,5.27,5.27,0,0,1-.84.07l.21,0a5.51,5.51,0,0,0,.62-.08,2.8,2.8,0,0,0,1-.32,1.61,1.61,0,0,0,.82-1,1,1,0,0,0-.87-1.18,1,1,0,0,0-.7,1.52,2.68,2.68,0,0,0,1.92,1.17,4.94,4.94,0,0,0,2.6-.16,3.76,3.76,0,0,0,1.23-.66,1.3,1.3,0,0,0,.53-1.24c-.07-.47-.57-.89-1-.66a1,1,0,0,0-.41,1.3c.9,2,4.45,2.22,5.67.05a1,1,0,0,0-.49-1.4c-.58-.12-1,.64-.85,1.18a2.06,2.06,0,0,0,1.38,1.16,4.33,4.33,0,0,0,1.93.17,4.08,4.08,0,0,0,1.83-.71c.55-.34,1-1,.67-1.6a.57.57,0,0,0-.76-.27,1,1,0,0,0-.51.75c0,.66.56,1.2,1.15,1.51a5,5,0,0,0,4,.29,3,3,0,0,0,1.59-1.15,1.09,1.09,0,0,0-.43-1.57c-.61-.21-1.14.51-1.09,1.09a1.72,1.72,0,0,0,1.17,1.32,4.77,4.77,0,0,0,3.62-.08,1.36,1.36,0,0,0,1-1.28.69.69,0,0,0-.44-.61.83.83,0,0,0-.75.18,1.08,1.08,0,0,0-.17,1.44,2.51,2.51,0,0,0,1.24,1,3.11,3.11,0,0,0,2.95-.32,2.91,2.91,0,0,0,1.29-2.41.66.66,0,0,0-.84-.66.91.91,0,0,0-.62.93,2.44,2.44,0,0,0,1.32,1.8,4.47,4.47,0,0,0,3.65.15,12.56,12.56,0,0,0,2.15-1.06Z" style="fill:#263238"></path><path d="M327.26,460.69a4.32,4.32,0,0,1,.51-1.62,4.18,4.18,0,0,1,1-1.42s-.36.67-.76,1.51S327.32,460.71,327.26,460.69Z" style="fill:#263238"></path><path d="M328.31,460.44a9.42,9.42,0,0,1,.9-1.79,9.63,9.63,0,0,1,1.08-1.68,9.42,9.42,0,0,1-.9,1.79A10.13,10.13,0,0,1,328.31,460.44Z" style="fill:#263238"></path><path d="M329.5,461c-.05,0,.5-.87,1.1-1.94s1-2,1.08-1.95a7.82,7.82,0,0,1-.9,2.05A7.69,7.69,0,0,1,329.5,461Z" style="fill:#263238"></path><rect x="282.52" y="418.23" width="48.07" height="7.03" rx="1.24" style="fill:#fff"></rect><path d="M324.56,421.44h-1.42l-3.87,0c-3.27,0-7.79,0-12.78.06l-7,.13-3.07.06a24.31,24.31,0,0,0-2.66.12,5.2,5.2,0,0,0-2,.75,2.79,2.79,0,0,1-1.6.49,1.32,1.32,0,0,1-1-.42.74.74,0,0,1-.18-.33s0,.12.21.3a1.32,1.32,0,0,0,.93.37,2.75,2.75,0,0,0,1.53-.51,5.24,5.24,0,0,1,2.07-.79,22.29,22.29,0,0,1,2.68-.15l3.07-.08,7-.15c5-.08,9.51-.06,12.78,0l3.87.11,1.05.05A3.35,3.35,0,0,1,324.56,421.44Z" style="fill:#263238"></path><rect x="333.77" y="419.15" width="3.83" height="3.83" style="fill:#fff"></rect><rect x="339.58" y="419.54" width="3.83" height="3.83" style="fill:#fff"></rect></g><g id="freepik--device-1--inject-954"><rect x="265.33" y="274.09" width="76.18" height="32.59" style="fill:#263238"></rect><rect x="136.73" y="84.07" width="326.34" height="194.42" style="fill:#263238"></rect><path d="M463.08,278.49c0-1.63-.08-75.27-.21-194.42l.21.2-326.32.06h0l.26-.26c0,68.86,0,134.59,0,194.42l-.24-.24,326.35.24-326.35.24h-.24v-.24c0-59.83,0-125.56,0-194.42v-.26h.29l326.32,0h.2v.21C463.15,203.22,463.08,276.86,463.08,278.49Z" style="fill:#455a64"></path><rect x="148.49" y="95.11" width="302.52" height="170.61" style="fill:#455a64"></rect><path d="M176,123.12a4.06,4.06,0,0,1,.09.93,4.19,4.19,0,0,1-.09.93h-.93a4.1,4.1,0,0,1,.09.94,4.31,4.31,0,0,1-.09.93h-4.67a4,4,0,0,1,.1.93,4.14,4.14,0,0,1-.1.93,4,4,0,0,1,.1.94,4.14,4.14,0,0,1-.1.93,4,4,0,0,1,.1.93,4.3,4.3,0,0,1-.1.94h-1.86a3.76,3.76,0,0,1-.1-.94,3.53,3.53,0,0,1,.1-.93,3.63,3.63,0,0,1-.1-.93,3.56,3.56,0,0,1,.1-.94,3.63,3.63,0,0,1-.1-.93,3.53,3.53,0,0,1,.1-.93,3.73,3.73,0,0,1-.1-.93,3.56,3.56,0,0,1,.1-.94,3.63,3.63,0,0,1-.1-.93,3.53,3.53,0,0,1,.1-.93,3.76,3.76,0,0,1-.1-.94,3.53,3.53,0,0,1,.1-.93,3.63,3.63,0,0,1-.1-.93,3.53,3.53,0,0,1,.1-.93h6.53a4.06,4.06,0,0,1,.09.93,4.19,4.19,0,0,1-.09.93H176a4.06,4.06,0,0,1,.09.93A4.35,4.35,0,0,1,176,123.12Zm-2,.93a4.06,4.06,0,0,1,.09-.93,4.35,4.35,0,0,1-.09-.94,4.06,4.06,0,0,1,.09-.93h-3.73a4,4,0,0,1,.1.93,4.3,4.3,0,0,1-.1.94,4,4,0,0,1,.1.93,4.14,4.14,0,0,1-.1.93h3.73A4.19,4.19,0,0,1,174,124.05Z" style="fill:#fff"></path><path d="M185.4,131.51a4.35,4.35,0,0,1-.09.94h-6.53a3.76,3.76,0,0,1-.1-.94,3.53,3.53,0,0,1,.1-.93,3.63,3.63,0,0,1-.1-.93,3.56,3.56,0,0,1,.1-.94,3.63,3.63,0,0,1-.1-.93,3.53,3.53,0,0,1,.1-.93,3.73,3.73,0,0,1-.1-.93,3.56,3.56,0,0,1,.1-.94,3.63,3.63,0,0,1-.1-.93,3.53,3.53,0,0,1,.1-.93,3.76,3.76,0,0,1-.1-.94,3.53,3.53,0,0,1,.1-.93,3.63,3.63,0,0,1-.1-.93,3.53,3.53,0,0,1,.1-.93h1.86a4,4,0,0,1,.1.93,4.14,4.14,0,0,1-.1.93,4,4,0,0,1,.1.93,4.3,4.3,0,0,1-.1.94,4,4,0,0,1,.1.93,4.14,4.14,0,0,1-.1.93,4,4,0,0,1,.1.94,4.27,4.27,0,0,1-.1.93,4,4,0,0,1,.1.93,4.14,4.14,0,0,1-.1.93,4,4,0,0,1,.1.94,4.14,4.14,0,0,1-.1.93h4.67A4.06,4.06,0,0,1,185.4,131.51Z" style="fill:#fff"></path><path d="M194.63,130.58a3.53,3.53,0,0,1,.1.93,3.76,3.76,0,0,1-.1.94h-1.86a4.35,4.35,0,0,1-.09-.94,4.06,4.06,0,0,1,.09-.93,4.19,4.19,0,0,1-.09-.93,4.1,4.1,0,0,1,.09-.94H189a4.1,4.1,0,0,1,.09.94,4.19,4.19,0,0,1-.09.93,4.06,4.06,0,0,1,.09.93,4.35,4.35,0,0,1-.09.94h-1.87a4.35,4.35,0,0,1-.09-.94,4.06,4.06,0,0,1,.09-.93,4.19,4.19,0,0,1-.09-.93,4.1,4.1,0,0,1,.09-.94h.7a4.19,4.19,0,0,1-.09-.93,4.06,4.06,0,0,1,.09-.93,4.31,4.31,0,0,1-.09-.93,4.1,4.1,0,0,1,.09-.94h.47a4.14,4.14,0,0,1-.1-.93,4,4,0,0,1,.1-.93h.7a4.3,4.3,0,0,1-.1-.94,4,4,0,0,1,.1-.93h.46a4.19,4.19,0,0,1-.09-.93,4.06,4.06,0,0,1,.09-.93h2.8a4,4,0,0,1,.1.93,4.14,4.14,0,0,1-.1.93h.47a4.06,4.06,0,0,1,.09.93,4.35,4.35,0,0,1-.09.94h.7a4.06,4.06,0,0,1,.09.93,4.19,4.19,0,0,1-.09.93h.46a3.56,3.56,0,0,1,.1.94,3.73,3.73,0,0,1-.1.93,3.53,3.53,0,0,1,.1.93,3.63,3.63,0,0,1-.1.93h.7a3.56,3.56,0,0,1,.1.94A3.63,3.63,0,0,1,194.63,130.58ZM192,125.92a4.1,4.1,0,0,1,.09-.94h-.47a4.19,4.19,0,0,1-.09-.93,4.06,4.06,0,0,1,.09-.93h-1.4a3.53,3.53,0,0,1,.1.93,3.63,3.63,0,0,1-.1.93h-.46a4.1,4.1,0,0,1,.09.94,4.31,4.31,0,0,1-.09.93h2.33A4.31,4.31,0,0,1,192,125.92Z" style="fill:#fff"></path><path d="M204,121.25a4,4,0,0,1,.1.93,4.3,4.3,0,0,1-.1.94H203a4.06,4.06,0,0,1,.09.93,4.19,4.19,0,0,1-.09.93h-.93a4.1,4.1,0,0,1,.09.94,4.31,4.31,0,0,1-.09.93h-.94a3.53,3.53,0,0,1,.1.93,3.63,3.63,0,0,1-.1.93,3.56,3.56,0,0,1,.1.94,3.63,3.63,0,0,1-.1.93,3.53,3.53,0,0,1,.1.93,3.76,3.76,0,0,1-.1.94H199.3a4.3,4.3,0,0,1-.1-.94,4,4,0,0,1,.1-.93,4.14,4.14,0,0,1-.1-.93,4,4,0,0,1,.1-.94,4.14,4.14,0,0,1-.1-.93,4,4,0,0,1,.1-.93h-.93a3.73,3.73,0,0,1-.1-.93,3.56,3.56,0,0,1,.1-.94h-.94a4.19,4.19,0,0,1-.09-.93,4.06,4.06,0,0,1,.09-.93h-.93a4.35,4.35,0,0,1-.09-.94,4.06,4.06,0,0,1,.09-.93,4.19,4.19,0,0,1-.09-.93,4.06,4.06,0,0,1,.09-.93h1.87a4.06,4.06,0,0,1,.09.93,4.19,4.19,0,0,1-.09.93,4.06,4.06,0,0,1,.09.93,4.35,4.35,0,0,1-.09.94h.93a4.06,4.06,0,0,1,.09.93,4.19,4.19,0,0,1-.09.93h1.86a4.19,4.19,0,0,1-.09-.93,4.06,4.06,0,0,1,.09-.93h.94a3.76,3.76,0,0,1-.1-.94,3.53,3.53,0,0,1,.1-.93,3.63,3.63,0,0,1-.1-.93,3.53,3.53,0,0,1,.1-.93H204a4,4,0,0,1,.1.93A4.14,4.14,0,0,1,204,121.25Z" style="fill:#fff"></path><path d="M180.37,239.4a4.31,4.31,0,0,1-.09.93,4.06,4.06,0,0,1,.09.93,4.19,4.19,0,0,1-.09.93h-.93a4.1,4.1,0,0,1,.09.94,4.25,4.25,0,0,1-.09.93h-5.6a4.25,4.25,0,0,1-.09-.93,4.1,4.1,0,0,1,.09-.94h-.93a4.14,4.14,0,0,1-.1-.93,4,4,0,0,1,.1-.93h1.86a3.53,3.53,0,0,1,.1.93,3.63,3.63,0,0,1-.1.93h3.73a4.19,4.19,0,0,1-.09-.93,4.06,4.06,0,0,1,.09-.93,4.31,4.31,0,0,1-.09-.93,4.1,4.1,0,0,1,.09-.94h-4.66a4.19,4.19,0,0,1-.09-.93,4.06,4.06,0,0,1,.09-.93h-.93a4.3,4.3,0,0,1-.1-.94,4,4,0,0,1,.1-.93,4.14,4.14,0,0,1-.1-.93,4,4,0,0,1,.1-.93h.93a4.35,4.35,0,0,1-.09-.94,4.06,4.06,0,0,1,.09-.93h5.6a4.06,4.06,0,0,1,.09.93,4.35,4.35,0,0,1-.09.94h.93a4.06,4.06,0,0,1,.09.93,4.19,4.19,0,0,1-.09.93h-1.87a4.19,4.19,0,0,1-.09-.93,4.06,4.06,0,0,1,.09-.93h-3.73a3.53,3.53,0,0,1,.1.93,3.63,3.63,0,0,1-.1.93,3.53,3.53,0,0,1,.1.93,3.76,3.76,0,0,1-.1.94h4.67a4.06,4.06,0,0,1,.09.93,4.19,4.19,0,0,1-.09.93h.93A4.1,4.1,0,0,1,180.37,239.4Z" style="fill:#fff"></path><path d="M189.7,243.13a4.25,4.25,0,0,1-.09.93h-6.53a4.2,4.2,0,0,1-.1-.93,4,4,0,0,1,.1-.94,4.14,4.14,0,0,1-.1-.93,4,4,0,0,1,.1-.93,4.27,4.27,0,0,1-.1-.93,4,4,0,0,1,.1-.94,4.14,4.14,0,0,1-.1-.93,4,4,0,0,1,.1-.93,4.3,4.3,0,0,1-.1-.94,4,4,0,0,1,.1-.93,4.14,4.14,0,0,1-.1-.93,4,4,0,0,1,.1-.93,4.3,4.3,0,0,1-.1-.94,4,4,0,0,1,.1-.93h1.86a3.53,3.53,0,0,1,.1.93,3.76,3.76,0,0,1-.1.94,3.53,3.53,0,0,1,.1.93,3.63,3.63,0,0,1-.1.93,3.53,3.53,0,0,1,.1.93,3.76,3.76,0,0,1-.1.94,3.53,3.53,0,0,1,.1.93,3.63,3.63,0,0,1-.1.93,3.56,3.56,0,0,1,.1.94,3.73,3.73,0,0,1-.1.93,3.53,3.53,0,0,1,.1.93,3.63,3.63,0,0,1-.1.93h4.67A4.1,4.1,0,0,1,189.7,243.13Z" style="fill:#fff"></path><path d="M198.94,234.73a4.06,4.06,0,0,1,.09.93,4.35,4.35,0,0,1-.09.94H198a4,4,0,0,1,.1.93,4.14,4.14,0,0,1-.1.93h-4.66a4.1,4.1,0,0,1,.09.94,4.31,4.31,0,0,1-.09.93,4.06,4.06,0,0,1,.09.93,4.19,4.19,0,0,1-.09.93,4.1,4.1,0,0,1,.09.94,4.25,4.25,0,0,1-.09.93h-1.87a4.25,4.25,0,0,1-.09-.93,4.1,4.1,0,0,1,.09-.94,4.19,4.19,0,0,1-.09-.93,4.06,4.06,0,0,1,.09-.93,4.31,4.31,0,0,1-.09-.93,4.1,4.1,0,0,1,.09-.94,4.19,4.19,0,0,1-.09-.93,4.06,4.06,0,0,1,.09-.93,4.35,4.35,0,0,1-.09-.94,4.06,4.06,0,0,1,.09-.93,4.19,4.19,0,0,1-.09-.93,4.06,4.06,0,0,1,.09-.93,4.35,4.35,0,0,1-.09-.94,4.06,4.06,0,0,1,.09-.93H198a4,4,0,0,1,.1.93,4.3,4.3,0,0,1-.1.94h.94a4.06,4.06,0,0,1,.09.93A4.19,4.19,0,0,1,198.94,234.73Zm-2,.93a4.06,4.06,0,0,1,.09-.93,4.19,4.19,0,0,1-.09-.93,4.06,4.06,0,0,1,.09-.93h-3.73a4.06,4.06,0,0,1,.09.93,4.19,4.19,0,0,1-.09.93,4.06,4.06,0,0,1,.09.93,4.35,4.35,0,0,1-.09.94h3.73A4.35,4.35,0,0,1,197,235.66Z" style="fill:#fff"></path><path d="M212.79,241.26a3.63,3.63,0,0,1-.1.93h-1.16a3.63,3.63,0,0,1-.1-.93,3.53,3.53,0,0,1,.1-.93h-.7a4.27,4.27,0,0,1-.1-.93,4,4,0,0,1,.1-.94,4.14,4.14,0,0,1-.1-.93,4,4,0,0,1,.1-.93,4.3,4.3,0,0,1-.1-.94,4,4,0,0,1,.1-.93h.7a3.63,3.63,0,0,1-.1-.93,3.53,3.53,0,0,1,.1-.93h1.16a3.53,3.53,0,0,1,.1.93,3.63,3.63,0,0,1-.1.93,3.53,3.53,0,0,1,.1.93,3.76,3.76,0,0,1-.1.94,3.53,3.53,0,0,1,.1.93,3.63,3.63,0,0,1-.1.93,3.56,3.56,0,0,1,.1.94,3.73,3.73,0,0,1-.1.93A3.53,3.53,0,0,1,212.79,241.26Zm2.24-8.39h-2.34a4.35,4.35,0,0,1-.09-.94,4.06,4.06,0,0,1,.09-.93H215a4.06,4.06,0,0,1,.09.93A4.35,4.35,0,0,1,215,232.87Zm-2.34,9.32H215a4.1,4.1,0,0,1,.09.94,4.25,4.25,0,0,1-.09.93h-2.34a4.25,4.25,0,0,1-.09-.93A4.1,4.1,0,0,1,212.69,242.19Zm4.29-4.66a4.19,4.19,0,0,1-.09.93,4.1,4.1,0,0,1,.09.94,4.31,4.31,0,0,1-.09.93h-.7a4.06,4.06,0,0,1,.09.93,4.19,4.19,0,0,1-.09.93H215a3.63,3.63,0,0,1-.1-.93,3.53,3.53,0,0,1,.1-.93,3.73,3.73,0,0,1-.1-.93,3.56,3.56,0,0,1,.1-.94,3.63,3.63,0,0,1-.1-.93,3.53,3.53,0,0,1,.1-.93,3.76,3.76,0,0,1-.1-.94,3.53,3.53,0,0,1,.1-.93,3.63,3.63,0,0,1-.1-.93,3.53,3.53,0,0,1,.1-.93h1.16a4.06,4.06,0,0,1,.09.93,4.19,4.19,0,0,1-.09.93h.7a4.06,4.06,0,0,1,.09.93,4.35,4.35,0,0,1-.09.94A4.06,4.06,0,0,1,217,237.53Z" style="fill:#fff"></path><path d="M224.35,234.73a4,4,0,0,1,.1.93,4.3,4.3,0,0,1-.1.94H222a4.35,4.35,0,0,1-.09-.94,4.06,4.06,0,0,1,.09-.93,4.19,4.19,0,0,1-.09-.93,4.06,4.06,0,0,1,.09-.93h2.33a4,4,0,0,1,.1.93A4.14,4.14,0,0,1,224.35,234.73Zm.1,6.53a4.14,4.14,0,0,1-.1.93,4,4,0,0,1,.1.94,4.2,4.2,0,0,1-.1.93H222a4.25,4.25,0,0,1-.09-.93,4.1,4.1,0,0,1,.09-.94,4.19,4.19,0,0,1-.09-.93,4.06,4.06,0,0,1,.09-.93h2.33A4,4,0,0,1,224.45,241.26Z" style="fill:#fff"></path><path d="M231.44,241.26a4.19,4.19,0,0,1-.09.93h-1.17a4.19,4.19,0,0,1-.09-.93,4.06,4.06,0,0,1,.09-.93h-.7a4.31,4.31,0,0,1-.09-.93,4.1,4.1,0,0,1,.09-.94,4.19,4.19,0,0,1-.09-.93,4.06,4.06,0,0,1,.09-.93,4.35,4.35,0,0,1-.09-.94,4.06,4.06,0,0,1,.09-.93h.7a4.19,4.19,0,0,1-.09-.93,4.06,4.06,0,0,1,.09-.93h1.17a4.06,4.06,0,0,1,.09.93,4.19,4.19,0,0,1-.09.93,4.06,4.06,0,0,1,.09.93,4.35,4.35,0,0,1-.09.94,4.06,4.06,0,0,1,.09.93,4.19,4.19,0,0,1-.09.93,4.1,4.1,0,0,1,.09.94,4.31,4.31,0,0,1-.09.93A4.06,4.06,0,0,1,231.44,241.26Zm2.24-8.39h-2.33a4.35,4.35,0,0,1-.09-.94,4.06,4.06,0,0,1,.09-.93h2.33a4.06,4.06,0,0,1,.09.93A4.35,4.35,0,0,1,233.68,232.87Zm-2.33,9.32h2.33a4.1,4.1,0,0,1,.09.94,4.25,4.25,0,0,1-.09.93h-2.33a4.25,4.25,0,0,1-.09-.93A4.1,4.1,0,0,1,231.35,242.19Zm4.29-4.66a4.19,4.19,0,0,1-.09.93,4.1,4.1,0,0,1,.09.94,4.31,4.31,0,0,1-.09.93h-.7a4.06,4.06,0,0,1,.09.93,4.19,4.19,0,0,1-.09.93h-1.17a4.19,4.19,0,0,1-.09-.93,4.06,4.06,0,0,1,.09-.93,4.31,4.31,0,0,1-.09-.93,4.1,4.1,0,0,1,.09-.94,4.19,4.19,0,0,1-.09-.93,4.06,4.06,0,0,1,.09-.93,4.35,4.35,0,0,1-.09-.94,4.06,4.06,0,0,1,.09-.93,4.19,4.19,0,0,1-.09-.93,4.06,4.06,0,0,1,.09-.93h1.17a4.06,4.06,0,0,1,.09.93,4.19,4.19,0,0,1-.09.93h.7a4.06,4.06,0,0,1,.09.93,4.35,4.35,0,0,1-.09.94A4.06,4.06,0,0,1,235.64,237.53Z" style="fill:#fff"></path><path d="M240.77,241.26a4.19,4.19,0,0,1-.09.93h-1.17a4.19,4.19,0,0,1-.09-.93,4.06,4.06,0,0,1,.09-.93h-.7a4.31,4.31,0,0,1-.09-.93,4.1,4.1,0,0,1,.09-.94,4.19,4.19,0,0,1-.09-.93,4.06,4.06,0,0,1,.09-.93,4.35,4.35,0,0,1-.09-.94,4.06,4.06,0,0,1,.09-.93h.7a4.19,4.19,0,0,1-.09-.93,4.06,4.06,0,0,1,.09-.93h1.17a4.06,4.06,0,0,1,.09.93,4.19,4.19,0,0,1-.09.93,4.06,4.06,0,0,1,.09.93,4.35,4.35,0,0,1-.09.94,4.06,4.06,0,0,1,.09.93,4.19,4.19,0,0,1-.09.93,4.1,4.1,0,0,1,.09.94,4.31,4.31,0,0,1-.09.93A4.06,4.06,0,0,1,240.77,241.26Zm2.24-8.39h-2.33a3.76,3.76,0,0,1-.1-.94,3.53,3.53,0,0,1,.1-.93H243a4.06,4.06,0,0,1,.09.93A4.35,4.35,0,0,1,243,232.87Zm-2.33,9.32H243a4.1,4.1,0,0,1,.09.94,4.25,4.25,0,0,1-.09.93h-2.33a3.68,3.68,0,0,1-.1-.93A3.56,3.56,0,0,1,240.68,242.19Zm4.29-4.66a3.63,3.63,0,0,1-.1.93,3.56,3.56,0,0,1,.1.94,3.73,3.73,0,0,1-.1.93h-.7a3.53,3.53,0,0,1,.1.93,3.63,3.63,0,0,1-.1.93H243a4.19,4.19,0,0,1-.09-.93,4.06,4.06,0,0,1,.09-.93,4.31,4.31,0,0,1-.09-.93,4.1,4.1,0,0,1,.09-.94,4.19,4.19,0,0,1-.09-.93,4.06,4.06,0,0,1,.09-.93,4.35,4.35,0,0,1-.09-.94,4.06,4.06,0,0,1,.09-.93,4.19,4.19,0,0,1-.09-.93,4.06,4.06,0,0,1,.09-.93h1.16a3.53,3.53,0,0,1,.1.93,3.63,3.63,0,0,1-.1.93h.7a3.53,3.53,0,0,1,.1.93,3.76,3.76,0,0,1-.1.94A3.53,3.53,0,0,1,245,237.53Z" style="fill:#fff"></path><path d="M252.34,234.73a4.06,4.06,0,0,1,.09.93,4.35,4.35,0,0,1-.09.94H250a4.35,4.35,0,0,1-.09-.94,4.06,4.06,0,0,1,.09-.93,4.19,4.19,0,0,1-.09-.93,4.06,4.06,0,0,1,.09-.93h2.34a4.06,4.06,0,0,1,.09.93A4.19,4.19,0,0,1,252.34,234.73Zm.09,6.53a4.19,4.19,0,0,1-.09.93,4.1,4.1,0,0,1,.09.94,4.25,4.25,0,0,1-.09.93H250a4.25,4.25,0,0,1-.09-.93,4.1,4.1,0,0,1,.09-.94,4.19,4.19,0,0,1-.09-.93,4.06,4.06,0,0,1,.09-.93h2.34A4.06,4.06,0,0,1,252.43,241.26Z" style="fill:#fff"></path><path d="M259.42,241.26a4.19,4.19,0,0,1-.09.93h-1.16a3.63,3.63,0,0,1-.1-.93,3.53,3.53,0,0,1,.1-.93h-.7a3.73,3.73,0,0,1-.1-.93,3.56,3.56,0,0,1,.1-.94,3.63,3.63,0,0,1-.1-.93,3.53,3.53,0,0,1,.1-.93,3.76,3.76,0,0,1-.1-.94,3.53,3.53,0,0,1,.1-.93h.7a3.63,3.63,0,0,1-.1-.93,3.53,3.53,0,0,1,.1-.93h1.16a4.06,4.06,0,0,1,.09.93,4.19,4.19,0,0,1-.09.93,4.06,4.06,0,0,1,.09.93,4.35,4.35,0,0,1-.09.94,4.06,4.06,0,0,1,.09.93,4.19,4.19,0,0,1-.09.93,4.1,4.1,0,0,1,.09.94,4.31,4.31,0,0,1-.09.93A4.06,4.06,0,0,1,259.42,241.26Zm2.24-8.39h-2.33a4.35,4.35,0,0,1-.09-.94,4.06,4.06,0,0,1,.09-.93h2.33a3.53,3.53,0,0,1,.1.93A3.76,3.76,0,0,1,261.66,232.87Zm-2.33,9.32h2.33a3.56,3.56,0,0,1,.1.94,3.68,3.68,0,0,1-.1.93h-2.33a4.25,4.25,0,0,1-.09-.93A4.1,4.1,0,0,1,259.33,242.19Zm4.29-4.66a4.19,4.19,0,0,1-.09.93,4.1,4.1,0,0,1,.09.94,4.31,4.31,0,0,1-.09.93h-.7a4.06,4.06,0,0,1,.09.93,4.19,4.19,0,0,1-.09.93h-1.17a4.19,4.19,0,0,1-.09-.93,4.06,4.06,0,0,1,.09-.93,4.31,4.31,0,0,1-.09-.93,4.1,4.1,0,0,1,.09-.94,4.19,4.19,0,0,1-.09-.93,4.06,4.06,0,0,1,.09-.93,4.35,4.35,0,0,1-.09-.94,4.06,4.06,0,0,1,.09-.93,4.19,4.19,0,0,1-.09-.93,4.06,4.06,0,0,1,.09-.93h1.17a4.06,4.06,0,0,1,.09.93,4.19,4.19,0,0,1-.09.93h.7a4.06,4.06,0,0,1,.09.93,4.35,4.35,0,0,1-.09.94A4.06,4.06,0,0,1,263.62,237.53Z" style="fill:#fff"></path><path d="M268.75,241.26a4.19,4.19,0,0,1-.09.93h-1.17a4.19,4.19,0,0,1-.09-.93,4.06,4.06,0,0,1,.09-.93h-.7a4.31,4.31,0,0,1-.09-.93,4.1,4.1,0,0,1,.09-.94,4.19,4.19,0,0,1-.09-.93,4.06,4.06,0,0,1,.09-.93,4.35,4.35,0,0,1-.09-.94,4.06,4.06,0,0,1,.09-.93h.7a4.19,4.19,0,0,1-.09-.93,4.06,4.06,0,0,1,.09-.93h1.17a4.06,4.06,0,0,1,.09.93,4.19,4.19,0,0,1-.09.93,4.06,4.06,0,0,1,.09.93,4.35,4.35,0,0,1-.09.94,4.06,4.06,0,0,1,.09.93,4.19,4.19,0,0,1-.09.93,4.1,4.1,0,0,1,.09.94,4.31,4.31,0,0,1-.09.93A4.06,4.06,0,0,1,268.75,241.26Zm2.24-8.39h-2.33a4.35,4.35,0,0,1-.09-.94,4.06,4.06,0,0,1,.09-.93H271a4.06,4.06,0,0,1,.09.93A4.35,4.35,0,0,1,271,232.87Zm-2.33,9.32H271a4.1,4.1,0,0,1,.09.94,4.25,4.25,0,0,1-.09.93h-2.33a4.25,4.25,0,0,1-.09-.93A4.1,4.1,0,0,1,268.66,242.19Zm4.29-4.66a4.19,4.19,0,0,1-.09.93,4.1,4.1,0,0,1,.09.94,4.31,4.31,0,0,1-.09.93h-.7a4.06,4.06,0,0,1,.09.93,4.19,4.19,0,0,1-.09.93H271a4.19,4.19,0,0,1-.09-.93,4.06,4.06,0,0,1,.09-.93,4.31,4.31,0,0,1-.09-.93,4.1,4.1,0,0,1,.09-.94,4.19,4.19,0,0,1-.09-.93,4.06,4.06,0,0,1,.09-.93,4.35,4.35,0,0,1-.09-.94,4.06,4.06,0,0,1,.09-.93,4.19,4.19,0,0,1-.09-.93,4.06,4.06,0,0,1,.09-.93h1.17a4.06,4.06,0,0,1,.09.93,4.19,4.19,0,0,1-.09.93h.7a4.06,4.06,0,0,1,.09.93,4.35,4.35,0,0,1-.09.94A4.06,4.06,0,0,1,273,237.53Z" style="fill:#fff"></path><path d="M389.31,129.7a3.56,3.56,0,0,1,.08.81,3.83,3.83,0,0,1-.08.81h-4.06a3.27,3.27,0,0,1-.08-.81,3.07,3.07,0,0,1,.08-.81Z" style="fill:#fff"></path><path d="M397.42,129.7a3.56,3.56,0,0,1,.08.81,3.83,3.83,0,0,1-.08.81h-4.06a3.83,3.83,0,0,1-.08-.81,3.56,3.56,0,0,1,.08-.81Z" style="fill:#fff"></path><path d="M404.51,128.07a3.15,3.15,0,0,1,.09.82,3.23,3.23,0,0,1-.09.81h-2a3.23,3.23,0,0,1-.09-.81,3.15,3.15,0,0,1,.09-.82,3.23,3.23,0,0,1-.09-.81,3.12,3.12,0,0,1,.09-.81h2a3.12,3.12,0,0,1,.09.81A3.23,3.23,0,0,1,404.51,128.07Zm.09,5.68a3.23,3.23,0,0,1-.09.81,3.12,3.12,0,0,1,.09.81,3.26,3.26,0,0,1-.09.82h-2a3.26,3.26,0,0,1-.09-.82,3.12,3.12,0,0,1,.09-.81,3.23,3.23,0,0,1-.09-.81,3.12,3.12,0,0,1,.09-.81h2A3.12,3.12,0,0,1,404.6,133.75Z" style="fill:#fff"></path><path d="M413.64,129.7a3.56,3.56,0,0,1,.08.81,3.83,3.83,0,0,1-.08.81h-4.06a3.83,3.83,0,0,1-.08-.81,3.56,3.56,0,0,1,.08-.81Z" style="fill:#fff"></path><path d="M421.75,129.7a3.07,3.07,0,0,1,.08.81,3.27,3.27,0,0,1-.08.81h-4.06a3.83,3.83,0,0,1-.08-.81,3.56,3.56,0,0,1,.08-.81Z" style="fill:#fff"></path></g><g id="freepik--Plant--inject-954"><path d="M77.08,421.68s-22.51-25.91-31-51.81-4.46-22.94-4.46-22.94,11.47,25.17,20.18,37.33,24.2,30,24.2,30Z" style="fill:#455a64"></path><path d="M81.56,351a1.31,1.31,0,0,0-2.44.83c1.37,9.1,4.34,30.46,4.22,44.31-.15,18,0,24.95,0,24.95h9.37s-1.67-37.2-3.78-48.54C87.45,364.57,84.3,355.74,81.56,351Z" style="fill:#455a64"></path><path d="M86.67,418a99,99,0,0,0,7.71-28c.77-6.62-.6-15.57-2.65-27.52a74.51,74.51,0,0,1-1.19-13.24,2.24,2.24,0,0,1,4.2-1.05c1.13,2,4.4,8.91,5.23,13.23,2.27,11.8,4.84,17.7,2.88,28.88s-9.23,28.43-9.23,28.43Z" style="fill:#455a64"></path><path d="M95.11,418.79s24.71-53.11,26.42-61,7.54-26,8.23-25,1.71,10.62-2.74,21.58-23.47,66-23.47,66H95.11" style="fill:#455a64"></path><path d="M84,416.41a4.54,4.54,0,0,1-.69-.47c-.44-.34-1.1-.8-1.91-1.46a87.57,87.57,0,0,1-6.65-5.87,111.66,111.66,0,0,1-17.93-23,151.69,151.69,0,0,1-12.24-26.51c-1.24-3.53-2.15-6.42-2.73-8.42-.31-1-.51-1.79-.66-2.32a4.71,4.71,0,0,1-.19-.82,4.74,4.74,0,0,1,.29.79c.19.57.44,1.33.75,2.29.65,2,1.61,4.85,2.9,8.35a159.53,159.53,0,0,0,12.34,26.37,116.12,116.12,0,0,0,17.74,23c2.64,2.63,4.9,4.63,6.51,6,.78.68,1.43,1.17,1.85,1.53A6.16,6.16,0,0,1,84,416.41Z" style="fill:#263238"></path><path d="M86.67,390.93a8,8,0,0,1-.23-1.55c-.11-1.1-.27-2.54-.45-4.26-.39-3.6-1-8.55-1.88-14s-1.85-10.35-2.6-13.88c-.37-1.7-.67-3.1-.9-4.19a7.69,7.69,0,0,1-.28-1.55,11.13,11.13,0,0,1,.48,1.5c.27,1,.64,2.4,1.06,4.16.85,3.52,1.89,8.41,2.77,13.87s1.42,10.43,1.72,14c.15,1.81.25,3.27.29,4.28A9.41,9.41,0,0,1,86.67,390.93Z" style="fill:#263238"></path><path d="M92.46,347.84a5,5,0,0,1,.29.67c.18.5.43,1.16.74,2s.7,1.91,1.06,3.16.84,2.65,1.2,4.25c.2.8.4,1.63.61,2.5s.36,1.79.55,2.73c.4,1.89.65,3.93,1,6.08a98.84,98.84,0,0,1,.59,14.07,98.59,98.59,0,0,1-1.6,14c-.45,2.12-.85,4.14-1.38,6-.26.93-.47,1.83-.74,2.68s-.54,1.67-.79,2.45c-.47,1.57-1,2.94-1.5,4.16s-.9,2.25-1.29,3.08l-.88,1.91a3.1,3.1,0,0,1-.34.65,4.31,4.31,0,0,1,.25-.69l.78-1.95c.36-.85.78-1.88,1.2-3.11s1-2.59,1.42-4.16c.24-.78.5-1.6.76-2.45s.46-1.76.7-2.68c.52-1.85.9-3.87,1.33-6a102.56,102.56,0,0,0,1.55-13.93,102.91,102.91,0,0,0-.54-14c-.29-2.13-.52-4.17-.9-6.05-.18-.94-.32-1.86-.52-2.73s-.39-1.69-.57-2.49c-.34-1.6-.78-3-1.12-4.26s-.68-2.31-1-3.18-.48-1.49-.64-2A3.82,3.82,0,0,1,92.46,347.84Z" style="fill:#263238"></path><path d="M129.47,333.86s0,.08,0,.24-.06.41-.11.69c-.1.6-.24,1.5-.48,2.64-.48,2.28-1.27,5.57-2.51,9.56s-2.92,8.67-4.92,13.81-4.31,10.74-6.51,16.71-3.94,11.76-5.56,17-3.11,10-4.58,13.93a87.8,87.8,0,0,1-3.9,9.08c-.5,1.05-1,1.84-1.25,2.38-.14.24-.25.44-.35.6s-.12.21-.13.2a.77.77,0,0,1,.08-.22c.09-.17.18-.38.3-.63.27-.56.69-1.36,1.17-2.42,1-2.1,2.33-5.2,3.73-9.12s2.9-8.65,4.47-13.94,3.29-11.11,5.53-17.08,4.53-11.57,6.54-16.7,3.75-9.78,5-13.74,2.13-7.23,2.67-9.5c.27-1.13.44-2,.58-2.61.06-.28.12-.5.16-.68A.81.81,0,0,1,129.47,333.86Z" style="fill:#263238"></path><path d="M53.26,322.13a2.13,2.13,0,0,0-3.5,2.17,62.15,62.15,0,0,0,3.11,8c3.39,7.22,13.38,33.13,18.05,47.36s11.25,40.77,11.25,40.77l10-1.62S83,375.18,74.1,359.46C66.94,346.84,59.77,328.59,53.26,322.13Z" style="fill:#455a64"></path><path d="M73.65,388.53a7.23,7.23,0,0,1,.51,1.2c.3.78.7,1.92,1.15,3.35.92,2.85,2,6.82,3.18,11.24s2.07,8.43,2.72,11.35c.3,1.38.56,2.53.76,3.45a6,6,0,0,1,.2,1.29,6.14,6.14,0,0,1-.4-1.24l-.92-3.42c-.76-3-1.76-6.94-2.87-11.3s-2.2-8.4-3-11.26l-1-3.39A5.51,5.51,0,0,1,73.65,388.53Z" style="fill:#263238"></path><path d="M87.18,419.6a1.45,1.45,0,0,1-.05-.27c0-.21-.07-.46-.12-.78-.1-.69-.19-1.72-.4-3-.37-2.63-1-6.4-2.1-11a154.16,154.16,0,0,0-4.67-15.94c-2-5.91-4.61-12.29-7.52-18.9-5.87-13.21-11.73-24.92-15.58-33.58-2-4.32-3.46-7.84-4.45-10.3-.51-1.22-.87-2.19-1.12-2.84-.11-.3-.21-.54-.28-.74a1.09,1.09,0,0,1-.08-.26,1.31,1.31,0,0,1,.13.24l.33.72,1.21,2.8c1.05,2.43,2.61,5.93,4.6,10.23,3.93,8.61,9.85,20.29,15.73,33.51,2.91,6.62,5.47,13,7.49,19a148.51,148.51,0,0,1,4.58,16c1,4.63,1.62,8.42,1.93,11.06.18,1.31.24,2.34.31,3,0,.32,0,.58.06.79A.92.92,0,0,1,87.18,419.6Z" style="fill:#263238"></path><path d="M92.15,418.79a9.57,9.57,0,0,1-.34-1.68c-.2-1.17-.46-2.71-.77-4.58-.69-3.87-1.74-9.19-3.25-15s-3.18-11-4.47-14.66c-.64-1.79-1.17-3.26-1.56-4.38a9.27,9.27,0,0,1-.53-1.63,12.94,12.94,0,0,1,.72,1.55c.43,1,1,2.49,1.72,4.33a147.21,147.21,0,0,1,4.63,14.66,151.86,151.86,0,0,1,3.1,15.06c.29,1.94.5,3.52.62,4.61A11.29,11.29,0,0,1,92.15,418.79Z" style="fill:#263238"></path><rect x="73.68" y="417.36" width="38.94" height="47.44" style="fill:#FF0000"></rect><g style="opacity:0.30000000000000004"><rect x="73.68" y="417.36" width="38.94" height="47.44"></rect></g><rect x="65.65" y="417.36" width="34.55" height="47.44" style="fill:#FF0000"></rect></g><g id="freepik--speech-bubble--inject-954"><path d="M559,174.31A34.35,34.35,0,1,1,514,155.83,34.35,34.35,0,0,1,559,174.31Z" style="fill:#fff"></path><path d="M560.18,176.73l-.22-.52-.6-1.53c-.14-.34-.28-.72-.45-1.13s-.42-.83-.65-1.31l-.78-1.52a6.77,6.77,0,0,0-.47-.81l-.55-.84a32.9,32.9,0,0,0-6.49-7.54A34.38,34.38,0,0,0,538.58,155l-1.76-.59c-.6-.17-1.22-.29-1.85-.44l-.94-.22a6,6,0,0,0-1-.18l-2-.26-1-.13-1,0-2.07-.07c-.69,0-1.39.08-2.09.12l-1.07.07-.53,0-.53.09a31.25,31.25,0,0,0-4.3.88c-.71.2-1.45.37-2.16.61l-2.13.83c-.36.14-.72.26-1.07.43l-1,.52c-.69.36-1.4.69-2.08,1.08a35.57,35.57,0,0,0-3.95,2.72l-.95.75c-.16.13-.33.25-.48.38l-.44.43-1.78,1.71c-.57.6-1.09,1.26-1.64,1.89-.26.32-.56.62-.8,1l-.73,1a39.26,39.26,0,0,0-2.68,4.37l-1.06,2.38-.26.59c-.08.21-.15.42-.22.63l-.42,1.24-.42,1.26-.31,1.29-.3,1.3-.15.65c0,.22-.06.44-.09.67-.12.88-.24,1.77-.35,2.67s-.07,1.8-.1,2.71A34.09,34.09,0,0,0,499.67,208l1.68,2.13,1.87,1.95.47.48.51.43,1,.87,1,.86,1.09.76,1.07.76.54.37.57.33,2.27,1.28a39.47,39.47,0,0,0,4.75,1.94l1.2.4c.4.14.81.21,1.22.31.82.18,1.62.4,2.44.55l2.45.33.6.08.62,0,1.21,0a36.3,36.3,0,0,0,4.79-.15c.78-.09,1.55-.25,2.32-.36l1.14-.2c.38-.07.75-.19,1.12-.28l2.2-.6c.72-.23,1.41-.53,2.11-.79a30.72,30.72,0,0,0,4-1.84l.48-.24.46-.28.9-.58c.59-.39,1.2-.73,1.76-1.15l1.62-1.27.8-.63.73-.7,1.43-1.37a5.58,5.58,0,0,0,.66-.72l.63-.73c.42-.49.84-1,1.23-1.45l1.07-1.52A34.49,34.49,0,0,0,561,195c.11-.47.22-.93.32-1.39s.12-.93.18-1.38l.18-1.31c0-.22.07-.43.08-.65s0-.42,0-.63c0-.83.06-1.63.09-2.39s-.08-1.48-.11-2.17l-.06-1a5.63,5.63,0,0,0-.1-.93c-.1-.6-.19-1.16-.27-1.69s-.15-1-.25-1.44-.22-.82-.31-1.17l-.42-1.59c-.09-.36-.13-.54-.13-.54s.06.18.16.53.26.9.45,1.59l.33,1.17c.1.43.17.92.26,1.44s.19,1.08.29,1.68a7.11,7.11,0,0,1,.11.94c0,.33,0,.66.07,1,0,.69.12,1.41.12,2.18s-.05,1.56-.07,2.4l0,.64c0,.21,0,.42-.08.64,0,.43-.11.88-.17,1.33s-.12.91-.18,1.38-.21.93-.32,1.4a34.33,34.33,0,0,1-5.26,12.13l-1.07,1.53c-.39.49-.82,1-1.24,1.46l-.63.74a6.59,6.59,0,0,1-.67.73L550.83,213l-.74.71-.8.63-1.63,1.29c-.56.42-1.18.77-1.77,1.16l-.91.58c-.15.1-.3.2-.46.29l-.48.25a32.63,32.63,0,0,1-4,1.86c-.7.26-1.4.56-2.12.79l-2.22.61c-.38.09-.74.22-1.13.29l-1.15.2c-.78.12-1.55.28-2.34.37a38.66,38.66,0,0,1-4.83.16l-1.22,0c-.21,0-.42,0-.62,0l-.61-.08-2.48-.32c-.82-.15-1.63-.37-2.46-.55-.4-.11-.83-.17-1.23-.31l-1.21-.41a38.49,38.49,0,0,1-4.79-1.95l-2.29-1.3-.57-.32-.55-.38-1.09-.76L506,215l-1-.87-1-.87-.51-.44-.47-.49-1.89-2-1.7-2.15a34.49,34.49,0,0,1-6.84-20.84c0-.92.07-1.83.1-2.74l.36-2.7c0-.22.05-.44.09-.67l.15-.65.31-1.32.31-1.3.42-1.26.43-1.26.21-.63.27-.6q.54-1.22,1.08-2.4a38.49,38.49,0,0,1,2.7-4.41l.74-1.05c.24-.35.54-.65.81-1,.55-.63,1.08-1.29,1.65-1.9l1.8-1.72.44-.43c.16-.14.33-.26.49-.39l1-.76a36,36,0,0,1,4-2.73c.69-.39,1.41-.72,2.11-1.08l1-.53c.35-.17.72-.29,1.08-.43l2.15-.83c.72-.25,1.46-.41,2.18-.62a33.24,33.24,0,0,1,4.33-.88l.54-.08a4.9,4.9,0,0,1,.54,0l1.07-.07c.71,0,1.41-.12,2.11-.12l2.08.08,1,0,1,.13,2,.27a7.89,7.89,0,0,1,1,.18l.95.22c.62.16,1.25.29,1.86.45l1.77.6a34.45,34.45,0,0,1,11.42,6.65,32.57,32.57,0,0,1,6.49,7.6c.18.29.36.58.54.85a6.17,6.17,0,0,1,.47.82l.76,1.53c.24.48.47.91.65,1.32s.3.79.43,1.13l.57,1.55C560.12,176.54,560.18,176.73,560.18,176.73Z" style="fill:#263238"></path><path d="M562.87,211.93s-.32.2-.79.66a4.6,4.6,0,0,0-1.23,2.45,4.49,4.49,0,0,0,.09,1.88,3.72,3.72,0,0,0,1.16,1.8,4.11,4.11,0,0,0,6.93-3.38,3.77,3.77,0,0,0-.7-2,4.34,4.34,0,0,0-1.43-1.23,4.48,4.48,0,0,0-2.69-.53c-.65.08-1,.24-1,.21a1,1,0,0,1,.24-.12,1.69,1.69,0,0,1,.32-.11,3.34,3.34,0,0,1,.43-.11,4.52,4.52,0,0,1,2.81.46,4.46,4.46,0,0,1,1.54,1.27,4,4,0,0,1,.79,2.16,4.61,4.61,0,0,1-.53,2.48,4.34,4.34,0,0,1-1.91,1.93,4.42,4.42,0,0,1-2.71.33,4.8,4.8,0,0,1-2.28-1.12,3.91,3.91,0,0,1-1.21-1.94,4.63,4.63,0,0,1,1.31-4.5,3.89,3.89,0,0,1,.35-.28,1.1,1.1,0,0,1,.28-.17A.81.81,0,0,1,562.87,211.93Z" style="fill:#263238"></path><path d="M540.47,185a8.29,8.29,0,0,0-2.16-4.46,7.92,7.92,0,0,0-4.17-2.49,6.38,6.38,0,0,0-7,3.37,6.35,6.35,0,0,0-1.92-2,6.5,6.5,0,0,0-5-.93,7.93,7.93,0,0,0-4.1,2.59,8.23,8.23,0,0,0-2.07,4.51,10,10,0,0,0,1.32,6.16,14.26,14.26,0,0,0,4.94,4.54c3.22,1.89,7.46,4.25,7.46,4.25s3.53-2.7,6.71-4.66a14.24,14.24,0,0,0,4.84-4.64A10,10,0,0,0,540.47,185Z" style="fill:#FF0000"></path></g><g id="freepik--Character--inject-954"><path d="M682.22,241.14c-5.48-9.11-7-18.4-8.44-30-2.72-22.5-9.58-48.05-41.67-46.49,0,0-24.18,1.09-31.7,18.36-4,9.27-5.36,41.48-7,70.46a5.13,5.13,0,0,1-.28,1.39l-1.29,8.6c-2,5.73-3.49,7.47-3.85,13.54l-2.45,40.25a5,5,0,0,0,4.69,5.29c10.81.62,35.51-.53,40.29-2.2a72.45,72.45,0,0,0,43.16-41.93c.52-1.31,7.43-2.47,8.83-2.4C696.15,276.66,691.75,257,682.22,241.14Z" style="fill:#263238"></path><path d="M625.84,175l2-1.87,21.47,9.23a6,6,0,0,1,5.57,6l-1.8,70.59c-.08,4.78,1.24,10.34-1.74,14.09l-3.51,4.86c-7.14,9-23.4,5.58-28.66-4.64a7.38,7.38,0,0,1-.72-1.84,14.3,14.3,0,0,1-.29-1.59c-.51-5.69-.44-10.62-.44-10.62-.24-6.24-.31-8.8-.31-8.75S604.22,248.6,601,231.48c-1.59-8.51-1-20.15-.22-31.61C601.85,184,613.08,174.67,625.84,175Z" style="fill:#ffbf9d"></path><path d="M626.68,212.4a2.2,2.2,0,0,0,2.19,2.17,2.11,2.11,0,0,0,2.22-2,2.23,2.23,0,0,0-2.19-2.17A2.11,2.11,0,0,0,626.68,212.4Z" style="fill:#263238"></path><path d="M604.56,212.4a2.2,2.2,0,0,0,2.19,2.17,2.11,2.11,0,0,0,2.22-2,2.22,2.22,0,0,0-2.19-2.17A2.12,2.12,0,0,0,604.56,212.4Z" style="fill:#263238"></path><path d="M603,204.46c.28.28,1.92-1,4.29-1.06s4.14,1.08,4.39.78c.13-.13-.17-.65-.94-1.18a6.1,6.1,0,0,0-3.53-1,5.87,5.87,0,0,0-3.4,1.2C603.06,203.8,602.82,204.33,603,204.46Z" style="fill:#263238"></path><path d="M627,205.25c.31.25,1.81-1.19,4.16-1.5s4.23.65,4.45.33c.11-.14-.23-.62-1.06-1.07a6,6,0,0,0-3.61-.61,5.86,5.86,0,0,0-3.26,1.54C627,204.59,626.85,205.14,627,205.25Z" style="fill:#263238"></path><path d="M618.33,222.31c0-.14-1.47-.35-3.87-.59-.61-.05-1.19-.15-1.3-.56a3.09,3.09,0,0,1,.36-1.81c.52-1.48,1.08-3,1.66-4.66,2.31-6.64,4-12.08,3.69-12.17s-2.35,5.21-4.66,11.84q-.84,2.46-1.59,4.69a3.55,3.55,0,0,0-.25,2.39,1.57,1.57,0,0,0,1,.86,4.47,4.47,0,0,0,1,.11A16.09,16.09,0,0,0,618.33,222.31Z" style="fill:#263238"></path><path d="M617.46,250.42a43.78,43.78,0,0,0,22.85-6.76s-5.46,12.05-22.71,10.91Z" style="fill:#ff9a6c"></path><path d="M619.49,228a4.27,4.27,0,0,1,3.79-1.69,3.89,3.89,0,0,1,2.73,1.37,2.48,2.48,0,0,1,.27,2.82,2.87,2.87,0,0,1-3.09.87,9,9,0,0,1-3.08-1.72,2.56,2.56,0,0,1-.7-.69.79.79,0,0,1,0-.88" style="fill:#ff9a6c"></path><path d="M625.35,223.76c-.38,0-.32,2.56-2.47,4.45s-4.9,1.68-4.91,2c0,.16.62.48,1.78.48a6.43,6.43,0,0,0,4.11-1.55,5.62,5.62,0,0,0,1.91-3.73C625.83,224.37,625.53,223.74,625.35,223.76Z" style="fill:#263238"></path><path d="M624.94,193.71c.32.61,2.63,0,5.43,0s5.14.43,5.43-.19c.13-.3-.34-.85-1.32-1.35a9.05,9.05,0,0,0-4.15-.87,9,9,0,0,0-4.12,1C625.25,192.85,624.8,193.42,624.94,193.71Z" style="fill:#263238"></path><path d="M603.53,194.28c.44.53,2.05-.07,4-.15s3.64.26,4-.31c.16-.28-.12-.82-.86-1.31a5.84,5.84,0,0,0-6.47.38C603.56,193.46,603.34,194,603.53,194.28Z" style="fill:#263238"></path><path d="M653.81,218.44s-12.22,3.5-18.4-26.61C633.29,181.53,624,173,624,173l3.87-1.07s23.78,7.29,24.18,7.6,5.75,12.52,5.75,12.52Z" style="fill:#263238"></path><path d="M650.85,217.26c0-1.29,1.36-4.34,2.62-4.58,3.36-.61,9.45-.51,9.74,8.06.4,11.72-11.44,9.7-11.48,9.37S651,221.68,650.85,217.26Z" style="fill:#ffbf9d"></path><path d="M655.16,225.55c.05,0,.21.13.56.28a2.06,2.06,0,0,0,1.53,0c1.22-.5,2.2-2.5,2.18-4.61a6.63,6.63,0,0,0-.67-2.91,2.35,2.35,0,0,0-1.59-1.51,1,1,0,0,0-1.18.6c-.15.33-.07.56-.13.59s-.25-.19-.18-.68a1.33,1.33,0,0,1,.44-.75,1.54,1.54,0,0,1,1.12-.34,2.88,2.88,0,0,1,2.19,1.75,6.91,6.91,0,0,1,.82,3.24c0,2.37-1.13,4.62-2.81,5.16a2.17,2.17,0,0,1-1.87-.24C655.19,225.83,655.12,225.57,655.16,225.55Z" style="fill:#ff9a6c"></path><path d="M645.71,212.52a16.28,16.28,0,0,1-1.74-.39,10.59,10.59,0,0,1-4.12-2.51,15.29,15.29,0,0,1-2.11-2.6,19.53,19.53,0,0,1-1.69-3.46,73.33,73.33,0,0,1-2.33-8.57,89,89,0,0,0-2.5-8.56,48.08,48.08,0,0,0-2.89-6.68,35.83,35.83,0,0,0-2.59-4.17c-.34-.48-.63-.82-.82-1.06a2.05,2.05,0,0,0-.3-.35,2.49,2.49,0,0,0,.25.39c.17.25.45.61.77,1.09a40.89,40.89,0,0,1,2.49,4.2,50.33,50.33,0,0,1,2.82,6.68c.9,2.58,1.72,5.47,2.47,8.54a71.31,71.31,0,0,0,2.36,8.59,19.36,19.36,0,0,0,1.74,3.5,14.51,14.51,0,0,0,2.18,2.62,10.42,10.42,0,0,0,4.23,2.46A6.38,6.38,0,0,0,645.71,212.52Z" style="fill:#263238"></path><path d="M671,208.93a1.86,1.86,0,0,0-.19-.5l-.65-1.39c-.57-1.21-1.46-2.91-2.65-5s-2.68-4.49-4.47-7.08-3.9-5.35-6.27-8.12-4.79-5.25-7.07-7.43-4.45-4-6.32-5.49-3.42-2.63-4.53-3.37l-1.27-.85a2,2,0,0,0-.47-.27,2.26,2.26,0,0,0,.41.36l1.21.93c1.07.79,2.58,2,4.41,3.49s4,3.39,6.22,5.56,4.64,4.68,7,7.42,4.45,5.49,6.27,8,3.34,4.94,4.55,7,2.16,3.71,2.78,4.89c.3.53.55,1,.74,1.34A2.89,2.89,0,0,0,671,208.93Z" style="fill:#455a64"></path><path d="M569.76,318.74l-5,21.43-57.67-7L500.66,351s57.17,16.81,61.22,17.81,18.55,1.72,24.22-11.93c4-9.77,3.48-34.84,3.48-34.84Z" style="fill:#ffbf9d"></path><path d="M604.2,265.93l13.59-4c9.2,10.92,20.77,7,35.78-3.57,0,0,26.85,6.05,31.9,13s-8.17,94.23-8.17,94.23l7.12,24.3c.89,3.34,5.31,15.41,1.87,15.72L586.71,408l4.44-49.21c0-.49-4.44-44.55-4.44-44.55,1.13,2.12,4-26.87,4-26.87Z" style="fill:#FF0000"></path><polygon points="533.74 290.47 537.68 293.8 544.75 366.41 507.79 369.36 499.85 366.86 524.08 345.51 533.74 290.47" style="fill:#e0e0e0"></polygon><rect x="496.36" y="292.22" width="40.88" height="72.88" transform="translate(-28.48 49.8) rotate(-5.37)" style="fill:#e0e0e0"></rect><path d="M540.56,363c0,.14-9.09,1.12-20.33,2.17s-20.36,1.8-20.38,1.66,9.09-1.12,20.33-2.18S540.54,362.89,540.56,363Z" style="fill:#263238"></path><polygon points="536.54 320.27 495.78 323.49 496.28 328.87 537.13 325.87 536.54 320.27" style="fill:#455a64"></polygon><polygon points="536.97 325.65 496.27 328.87 496.82 334.56 537.56 331.25 536.97 325.65" style="fill:#FF0000"></polygon><polygon points="537.4 331.18 496.71 334.4 497.26 340.09 538 336.78 537.4 331.18" style="fill:#263238"></polygon><polygon points="536.03 315.23 495.27 318.45 495.81 323.47 536.57 320.24 536.03 315.23" style="fill:#fafafa"></polygon><path d="M540.56,363a1.71,1.71,0,0,1-.06-.36l-.12-1.07c-.11-1-.25-2.37-.44-4.16-.36-3.65-.88-8.9-1.53-15.4-1.25-13.1-3-31.25-4.93-51.54l-.06-.64.49.41,3.94,3.33.08.06v.11c0,.08,0,.16,0,.24,3.3,33,6,61.2,7.07,72.41l0,.22-.17-.14-3.25-2.58-.81-.66-.26-.23.3.21.85.63,3.28,2.48-.15.08c-1.21-11.18-4.1-39.37-7.4-72.36l0-.25.09.17-3.94-3.32.43-.22c1.87,20.26,3.54,38.37,4.74,51.45.58,6.53,1,11.79,1.38,15.46.15,1.8.26,3.21.35,4.19l.08,1.1A2.72,2.72,0,0,1,540.56,363Z" style="fill:#263238"></path><path d="M497.19,307.26l1.3-.1,1.35,6.31h0l.34-6.45,1.18-.09-.59,8.32-1.72.14Z" style="fill:#263238"></path><path d="M502,306.88l1.29-.1.26,3.35L505,310l-.27-3.35,1.3-.1.65,8.22-1.29.1-.3-3.7-1.38.11L504,315l-1.29.1Z" style="fill:#263238"></path><path d="M507.83,314.28a2.26,2.26,0,0,1-.61-1.5l0-.47,1.22-.09,0,.56c0,.53.29.78.74.74a.6.6,0,0,0,.48-.23,1,1,0,0,0,.12-.64,1.73,1.73,0,0,0-.31-.89,4.57,4.57,0,0,0-.94-.88,5.12,5.12,0,0,1-1.22-1.19,2.62,2.62,0,0,1-.42-1.26,2.14,2.14,0,0,1,.38-1.54,1.83,1.83,0,0,1,1.39-.65,1.78,1.78,0,0,1,1.44.42,2.2,2.2,0,0,1,.6,1.49l0,.35-1.22.09,0-.42a.93.93,0,0,0-.21-.6.6.6,0,0,0-.5-.16c-.43,0-.62.31-.58.84a1.49,1.49,0,0,0,.3.81,4.67,4.67,0,0,0,.95.87,4.78,4.78,0,0,1,1.22,1.2,2.74,2.74,0,0,1,.41,1.32,2.18,2.18,0,0,1-.37,1.59,1.9,1.9,0,0,1-1.41.66A1.81,1.81,0,0,1,507.83,314.28Z" style="fill:#263238"></path><g style="opacity:0.30000000000000004"><polygon points="533.93 292.52 536.57 294.75 543.93 365.65 540.56 363.03 533.93 292.52"></polygon></g><path d="M494.43,331.16a4.76,4.76,0,0,0,.26,5.15,7.17,7.17,0,0,0,4.16,2.06,20.13,20.13,0,0,0,10.43-.08c1.34-.33,1-2.42.61-3.22a2.88,2.88,0,0,0-1.56-1.4c-4.82-.81-9.17-2-13.9-2.51" style="fill:#ffbf9d"></path><path d="M495.35,336.29c-.88,1.42-.33,3.74.81,5a7.26,7.26,0,0,0,4.16,2.06,20.14,20.14,0,0,0,10.43-.09c1.34-.33.77-3,.4-3.82a1.66,1.66,0,0,0-1.35-.8l-14.46-2.43" style="fill:#ffbf9d"></path><path d="M496.82,341.3c-.88,1.41-.33,3.74.81,5a7.26,7.26,0,0,0,4.16,2.06,20.14,20.14,0,0,0,10.43-.09c1.34-.33.77-3,.4-3.82a1.66,1.66,0,0,0-1.35-.8l-14.47-2.43" style="fill:#ffbf9d"></path><path d="M509.83,337.74a4.89,4.89,0,0,1-2.09,1,16.91,16.91,0,0,1-2.44.46,11.34,11.34,0,0,1-3.06-.09,20.53,20.53,0,0,1-3-.68,23.21,23.21,0,0,1-2.37-.75,5.19,5.19,0,0,1-2-1.21c0-.08.8.4,2.11.83.66.22,1.47.41,2.37.63a25.31,25.31,0,0,0,2.92.63,15.22,15.22,0,0,0,5.35-.2C509,338.06,509.8,337.65,509.83,337.74Z" style="fill:#ff9a6c"></path><path d="M511.21,343.05a4.48,4.48,0,0,1-1.91,1.38,9.14,9.14,0,0,1-5.52.56,19.49,19.49,0,0,1-5.25-1.93,8.61,8.61,0,0,1-2-1.22,11.65,11.65,0,0,1,2.14.86,24.73,24.73,0,0,0,5.18,1.74,9.89,9.89,0,0,0,5.31-.37C510.47,343.57,511.16,343,511.21,343.05Z" style="fill:#ff9a6c"></path><path d="M604.76,265.77s-21.87,5.43-29.89,35.43l-10.6,27.36,25,6.17Z" style="fill:#FF0000"></path><path d="M591.83,293.07a8.42,8.42,0,0,1-.19,1.6c-.16,1.11-.38,2.57-.64,4.32-.51,3.66-1.12,8.72-1.55,14.34a115.18,115.18,0,0,0-.34,14.39c.06.92.12,1.75.23,2.47a14.84,14.84,0,0,0,.31,1.84c.24,1,.5,1.51.44,1.54s-.08-.12-.2-.37a5.6,5.6,0,0,1-.43-1.12,14.63,14.63,0,0,1-.41-1.85c-.13-.72-.22-1.56-.3-2.48a95.37,95.37,0,0,1,.19-14.46c.43-5.63,1.1-10.7,1.7-14.35.31-1.82.58-3.3.8-4.31A11,11,0,0,1,591.83,293.07Z" style="fill:#263238"></path><g style="opacity:0.30000000000000004"><path d="M591.83,296.66a45.53,45.53,0,0,0-2.39,35,177,177,0,0,1,2.39-35"></path></g><g style="opacity:0.30000000000000004"><polygon points="664.62 305.17 658.13 338.31 665.53 342.84 666.14 333.66 662.37 333.28 664.62 305.17"></polygon></g><path d="M688.21,406.28l-.45-2.22-20.16.65L664,398.58c-13.23-20.41-21.45-28.36-39.81-26.69h0a34.72,34.72,0,0,0-18.87,7.73l-16.27,12.76c-25.3-6.9-63.76-17.69-83.53-23.24a29.2,29.2,0,0,0-23.79,3.6l-.37.24a29.23,29.23,0,0,0-12.58,31.16h0A29.22,29.22,0,0,0,482,422.44c10,6.11,25.45,15.55,38.74,23.5L519,447.32l11.74,19.32,24.19-7.45c15.5-2.22,48.24-6.49,51.62-6.93,17.4,11.91,38.53,17.36,61.88,4.55,8.12-4.45,13.74-11.21,17.33-20.21A53.35,53.35,0,0,0,688.21,406.28Z" style="fill:#263238"></path><path d="M521.46,449.65s-11.62,2.51-22,1c-9.73-1.45-31.5,0-31.5,12.87,0,14.3,29,10.76,40.38,8.5S531,467.65,531,467.65Z" style="fill:#455a64"></path><path d="M495.38,468a48.09,48.09,0,0,1-2.26-10.07A48.09,48.09,0,0,1,495.38,468Z" style="fill:#263238"></path><path d="M499.34,468.15a48.57,48.57,0,0,1-1.41-10.28,23.16,23.16,0,0,1,1,5.1A23.83,23.83,0,0,1,499.34,468.15Z" style="fill:#263238"></path><path d="M503.17,466.66a18.93,18.93,0,0,1-.82-4.46,18,18,0,0,1-.26-4.53,18.93,18.93,0,0,1,.82,4.46A19.21,19.21,0,0,1,503.17,466.66Z" style="fill:#263238"></path><path d="M509.18,465.16a10.49,10.49,0,0,1-1.49-3.83,10.17,10.17,0,0,1-.43-4.09,854.21,854.21,0,0,1,1.92,7.92Z" style="fill:#263238"></path><path d="M510.47,459.93a5.19,5.19,0,0,1,1.52-.1,13,13,0,0,1,4.08.8,4.76,4.76,0,0,1,1.25.67,1.93,1.93,0,0,1,.79,1.42,2.14,2.14,0,0,1-2.63,1.91,5.36,5.36,0,0,1-3-2.16,9.44,9.44,0,0,1-.44-11,1.45,1.45,0,0,1,.86-.52,1.2,1.2,0,0,1,1,.3,2.58,2.58,0,0,1,.72,1.56,7.73,7.73,0,0,1-.15,2.91,8.1,8.1,0,0,1-2,3.66,6.79,6.79,0,0,1-.85.76,1.45,1.45,0,0,1-.34.2s.41-.37,1-1.1a8.41,8.41,0,0,0,1.74-3.61,7.83,7.83,0,0,0,.08-2.75,2.17,2.17,0,0,0-.6-1.26.74.74,0,0,0-1.12.19,9.05,9.05,0,0,0,.49,10.3,5,5,0,0,0,2.69,2,1.69,1.69,0,0,0,2.08-1.4,1.45,1.45,0,0,0-.6-1.09,4.14,4.14,0,0,0-1.13-.65,14.29,14.29,0,0,0-3.95-.94C511,460,510.47,460,510.47,459.93Z" style="fill:#263238"></path><path d="M529.81,465.76l-.29.09-.88.22-3.36.77c-2.93.64-7.19,1.54-12.47,2.56s-11.59,2.18-18.66,3.14a50.85,50.85,0,0,1-11.21.56,24.22,24.22,0,0,1-5.88-1.12,16.1,16.1,0,0,1-2.82-1.26,8.63,8.63,0,0,1-2.47-2l0,0a6.08,6.08,0,0,1-1-1.22,7.55,7.55,0,0,1-.59-6.25,10,10,0,0,1,3.72-4.87,18.58,18.58,0,0,1,5.3-2.62c.92-.27,1.83-.59,2.75-.79s1.82-.43,2.73-.56c7.28-1.15,13.9-.56,19.41-.56,2.76,0,5.25,0,7.43-.16a48.89,48.89,0,0,0,5.56-.7l2-.42,1.44-.41.89-.25.31-.07s-.09.05-.29.12l-.88.3-1.43.47-2,.47a45,45,0,0,1-5.58.8c-2.2.17-4.7.27-7.47.24-5.51.05-12.13-.49-19.31.68-.9.13-1.79.37-2.7.55s-1.79.53-2.7.79a18.32,18.32,0,0,0-5.14,2.56,9.41,9.41,0,0,0-3.52,4.6,7,7,0,0,0,.53,5.79,5.43,5.43,0,0,0,.91,1.09l0,0,0,0a8.3,8.3,0,0,0,2.3,1.83,15.35,15.35,0,0,0,2.72,1.21,23.88,23.88,0,0,0,5.74,1.11,50.65,50.65,0,0,0,11.1-.53c7.06-.93,13.37-2,18.66-3s9.55-1.81,12.49-2.39l3.39-.67.88-.16A1,1,0,0,1,529.81,465.76Z" style="fill:#263238"></path><path d="M487.32,472.64a19,19,0,0,1-.28-3c-.13-1.83-.35-4.36-.72-7.13s-.83-5.27-1.18-7.08a18.14,18.14,0,0,1-.51-2.93,13.26,13.26,0,0,1,.89,2.85,62.22,62.22,0,0,1,1.35,7.08,65.28,65.28,0,0,1,.57,7.19A12.8,12.8,0,0,1,487.32,472.64Z" style="fill:#263238"></path><path d="M551.13,422.06c-.09.12-9.37-6.64-20.73-15.11S509.92,391.52,510,391.39s9.37,6.64,20.73,15.11S551.22,421.94,551.13,422.06Z" style="fill:#455a64"></path><path d="M641.5,420.76s-.07.08-.23.21l-.7.59-2.75,2.19-2,1.58c-.73.58-1.59,1.11-2.48,1.74l-2.87,2c-.51.34-1,.71-1.57,1.06l-1.71,1c-2.35,1.4-4.88,3-7.75,4.46-1.43.74-2.88,1.56-4.42,2.32l-4.77,2.26c-6.58,3-13.94,6-21.84,8.7-15.77,5.43-30.36,9.35-40.81,12.51-2.62.77-5,1.5-7,2.15s-3.86,1.19-5.31,1.68l-3.34,1.09-.87.27a1.05,1.05,0,0,1-.31.07l.29-.13.85-.32,3.32-1.18c1.43-.53,3.21-1.11,5.27-1.78s4.42-1.43,7-2.22c10.42-3.27,25-7.24,40.74-12.67,7.88-2.68,15.24-5.67,21.81-8.64l4.77-2.23c1.53-.75,3-1.55,4.41-2.29,2.87-1.43,5.41-3,7.76-4.38l1.72-1c.55-.34,1.07-.7,1.58-1l2.89-1.93c.89-.61,1.76-1.13,2.49-1.7l2-1.53c1.19-.9,2.13-1.61,2.81-2.11l.74-.54Z" style="fill:#455a64"></path><path d="M643.6,429.8a4,4,0,0,1-.87.45c-.58.27-1.42.61-2.48,1a63.33,63.33,0,0,1-17.2,3.7c-1.13.08-2,.11-2.67.1a3.56,3.56,0,0,1-1-.05,31.76,31.76,0,0,1,3.62-.44c2.23-.25,5.3-.68,8.65-1.4s6.32-1.59,8.46-2.28A31.69,31.69,0,0,1,643.6,429.8Z" style="fill:#455a64"></path><path d="M601.91,382.87c.09.12-18.4,14.65-41.29,32.44s-41.54,32.13-41.63,32,18.38-14.65,41.29-32.45S601.81,382.75,601.91,382.87Z" style="fill:#455a64"></path><path d="M687.61,432.37a1,1,0,0,1-.06.27c-.06.2-.14.46-.23.78-.22.68-.55,1.68-1,2.95A44.89,44.89,0,0,1,681,446.59a37.9,37.9,0,0,1-12.81,11.14,54.62,54.62,0,0,1-19.81,6.4,54.05,54.05,0,0,1-20.77-1.45,55.27,55.27,0,0,1-15.54-7,53.22,53.22,0,0,1-8.9-7.26c-1-1-1.66-1.75-2.12-2.3l-.52-.62a1.12,1.12,0,0,1-.17-.23,1.32,1.32,0,0,1,.21.19c.14.16.33.35.56.59.48.53,1.21,1.28,2.17,2.24a57.05,57.05,0,0,0,9,7.1,55.87,55.87,0,0,0,15.47,6.81,54.15,54.15,0,0,0,20.59,1.4A54.74,54.74,0,0,0,668,457.33a38,38,0,0,0,12.75-10.94,46.74,46.74,0,0,0,5.35-10.09c.51-1.25.86-2.25,1.11-2.92.12-.31.21-.56.28-.76S687.6,432.36,687.61,432.37Z" style="fill:#455a64"></path><path d="M679.32,430.08a2.57,2.57,0,0,1-.21-.55c-.14-.41-.31-.93-.52-1.58s-.58-1.52-.94-2.46l-1.38-3.21c-2.11-4.72-5.33-11.12-9.2-18a183.45,183.45,0,0,0-10.79-17.1l-2.14-2.76-1.73-2-1.2-1.15a2.17,2.17,0,0,1-.4-.43,2.7,2.7,0,0,1,.46.36l1.28,1.09,1.8,1.94c.66.79,1.4,1.7,2.21,2.72A162.2,162.2,0,0,1,667.5,404a197.19,197.19,0,0,1,9.1,18.11l1.3,3.25c.34,1,.63,1.79.87,2.5s.32,1.2.43,1.62A4,4,0,0,1,679.32,430.08Z" style="fill:#455a64"></path><path d="M610.59,451.64c-4.88-2.59-10.35-1.06-15,.51-3.1,1.05-6.33,2.7-9.48,1.82-2.28-.64-4-2.49-5.71-4.1a35.93,35.93,0,0,0-26.26-9.4,10.68,10.68,0,0,0-7.21,3.26c-4.79,5.18-1.18,11.93,3.1,16.28a47.24,47.24,0,0,0,28.55,13.78c8.91.93,21.17-.3,30.21-4.17,5.57-2.39,8.43-9,5.5-14.27A9.15,9.15,0,0,0,610.59,451.64Z" style="fill:#455a64"></path><g style="opacity:0.4"><path d="M610.58,455.79c-4.88-2.6-10.35-1.06-15,.51-3.1,1.05-6.33,2.7-9.48,1.82-2.28-.65-4-2.49-5.71-4.1a36,36,0,0,0-26.26-9.41,10.71,10.71,0,0,0-7.21,3.26,8.34,8.34,0,0,0-2,3.64A18.87,18.87,0,0,0,550,460a47.24,47.24,0,0,0,28.55,13.78c8.91.93,21.17-.3,30.21-4.17A11.07,11.07,0,0,0,615.2,462a9.43,9.43,0,0,0-4.62-6.17Z"></path></g><path d="M615.2,462a8.56,8.56,0,0,0-1.2-2.89,9.48,9.48,0,0,0-2.61-2.55,10.25,10.25,0,0,0-4.48-1.71c-3.61-.43-7.8,1.09-12.46,2.35-2.3.61-4.82,1.54-7.57,1.2A9.94,9.94,0,0,1,583,457a24.05,24.05,0,0,1-3.35-2.52A36.22,36.22,0,0,0,559.69,445a20.87,20.87,0,0,0-5.9,0,12.9,12.9,0,0,0-4.56,1.59,11.46,11.46,0,0,0-2.8,2.37,29.68,29.68,0,0,0-1.8,2.6,10.22,10.22,0,0,1,1.61-2.76,11.37,11.37,0,0,1,2.8-2.52,13.14,13.14,0,0,1,4.67-1.74,21.34,21.34,0,0,1,6,0,34.56,34.56,0,0,1,6.76,1.5,39.49,39.49,0,0,1,7,3.09,29.62,29.62,0,0,1,3.41,2.22c1.08.85,2.11,1.78,3.16,2.69a23.26,23.26,0,0,0,3.25,2.45,9.32,9.32,0,0,0,3.64,1.27c2.55.34,5-.53,7.33-1.14,4.64-1.21,8.9-2.73,12.68-2.23a10.49,10.49,0,0,1,7.25,4.58,7.07,7.07,0,0,1,.9,2.2A3.69,3.69,0,0,1,615.2,462Z" style="fill:#263238"></path><path d="M615.2,462a8.56,8.56,0,0,0-1.2-2.89,9.48,9.48,0,0,0-2.61-2.55,10.25,10.25,0,0,0-4.48-1.71c-3.61-.43-7.8,1.09-12.46,2.35-2.3.61-4.82,1.54-7.57,1.2A9.94,9.94,0,0,1,583,457a24.05,24.05,0,0,1-3.35-2.52A36.22,36.22,0,0,0,559.69,445a20.87,20.87,0,0,0-5.9,0,12.9,12.9,0,0,0-4.56,1.59,11.46,11.46,0,0,0-2.8,2.37,29.68,29.68,0,0,0-1.8,2.6,10.22,10.22,0,0,1,1.61-2.76,11.37,11.37,0,0,1,2.8-2.52,13.14,13.14,0,0,1,4.67-1.74,21.34,21.34,0,0,1,6,0,34.56,34.56,0,0,1,6.76,1.5,39.49,39.49,0,0,1,7,3.09,29.62,29.62,0,0,1,3.41,2.22c1.08.85,2.11,1.78,3.16,2.69a23.26,23.26,0,0,0,3.25,2.45,9.32,9.32,0,0,0,3.64,1.27c2.55.34,5-.53,7.33-1.14,4.64-1.21,8.9-2.73,12.68-2.23a10.49,10.49,0,0,1,7.25,4.58,7.07,7.07,0,0,1,.9,2.2A3.69,3.69,0,0,1,615.2,462Z" style="fill:#263238"></path><path d="M554.77,460.78a12.45,12.45,0,0,1,2.49-1.73,72.27,72.27,0,0,1,6.46-3.44,66.15,66.15,0,0,1,6.77-2.77,12.52,12.52,0,0,1,2.92-.82,16.35,16.35,0,0,1-2.76,1.25c-1.72.72-4.08,1.72-6.66,2.93s-4.85,2.39-6.5,3.26A16.85,16.85,0,0,1,554.77,460.78Z" style="fill:#263238"></path><path d="M556.44,465.66c-.08-.17,4.18-2.39,9.52-5s9.72-4.54,9.8-4.37-4.18,2.38-9.52,5S556.52,465.82,556.44,465.66Z" style="fill:#263238"></path><path d="M576.62,467.77c-.09.15-5.28-2.95-11.59-6.92s-11.34-7.32-11.25-7.47,5.29,2.94,11.6,6.92S576.72,467.62,576.62,467.77Z" style="fill:#263238"></path><path d="M579.55,462.71A14.39,14.39,0,0,1,577,461c-1.52-1.11-3.63-2.63-6-4.26s-4.52-3.08-6.09-4.12a15.24,15.24,0,0,1-2.48-1.79,14,14,0,0,1,2.73,1.4c1.63.94,3.84,2.33,6.22,4s4.44,3.23,5.9,4.43A14.08,14.08,0,0,1,579.55,462.71Z" style="fill:#263238"></path><path d="M666.31,327.45l-1.52,19L612,343.26l-6.47,17.87L668,376.62c4,1,15.73.07,21.39-13.59,4-9.77,3.61-39.53,3.61-39.53Z" style="fill:#ffbf9d"></path><path d="M665.94,285.28a436.06,436.06,0,0,0-3.84,47.57c0,.59,38.3,3.48,38.3,3.48s-3.65-44.58-9.86-58.11c-4.75-10.34-12.41-9.7-12.41-9.7l-3.72,5Z" style="fill:#FF0000"></path><path d="M700.4,336.34a7.57,7.57,0,0,1-.78,0l-2.22-.14-8.18-.58-27.14-2.11-.25,0v-.2c0-.39.07-.81.11-1.23.77-8.76,1.47-16.69,2-22.48.28-2.84.5-5.16.66-6.81.09-.77.16-1.39.21-1.85a2.6,2.6,0,0,1,.11-.64,4.55,4.55,0,0,1,0,.65c0,.46-.06,1.08-.11,1.85-.12,1.65-.29,4-.49,6.82-.48,5.79-1.12,13.72-1.84,22.48,0,.43-.07.85-.1,1.24l-.23-.22,27.13,2.23,8.16.72,2.21.21A4.71,4.71,0,0,1,700.4,336.34Z" style="fill:#263238"></path><path d="M675.8,361.14a24,24,0,0,1-1.27-2.38,40.81,40.81,0,0,0-7.74-10.29,21.41,21.41,0,0,1-1.92-1.88A10.85,10.85,0,0,1,667,348.2a31.83,31.83,0,0,1,7.82,10.4A10.06,10.06,0,0,1,675.8,361.14Z" style="fill:#ff9a6c"></path><path d="M527.22,324.79h74.56a0,0,0,0,1,0,0v28.54a2.23,2.23,0,0,1-2.23,2.23h-70.1a2.23,2.23,0,0,1-2.23-2.23V324.79A0,0,0,0,1,527.22,324.79Z" transform="translate(827.97 -263.94) rotate(82.49)" style="fill:#263238"></path><rect x="546.51" y="334.68" width="71.4" height="7.83" transform="translate(841.8 -282.87) rotate(82.49)" style="fill:#263238"></rect><rect x="529.28" y="329.69" width="74.56" height="20.41" transform="translate(829.5 -266.23) rotate(82.49)" style="fill:#455a64"></rect><path d="M573.28,312.73a14.82,14.82,0,0,0-12.23-2.54c-6.6,1.35-7.94,5.73-7.94,5.73l1.18,9,20.24-2.67Z" style="fill:#e0e0e0"></path><path d="M579.85,362.62a14.79,14.79,0,0,1-11.15,5.62c-6.72.41-9.15-3.48-9.15-3.48l-1.18-9,20.23-2.66Z" style="fill:#e0e0e0"></path><rect x="554.25" y="331.56" width="24.82" height="18.16" rx="1.77" transform="translate(830.32 -265.68) rotate(82.49)" style="fill:#fff"></rect><path d="M559.27,355.68a9.38,9.38,0,1,0,18.59-2.46Z" style="fill:#263238"></path><path d="M573.88,354.42l0-.23-.06-.43-10.45,1.38a5.38,5.38,0,0,0,6,4.58A5,5,0,0,0,573.88,354.42Z" style="fill:#f5f5f5"></path><path d="M573.78,315.4a15.12,15.12,0,0,0-12.39-2.66c-6.61,1.35-8,5.9-8,5.9l1.11,8.81,20.48-2.7Z" style="fill:#263238"></path><path d="M554.51,327.48v0l-1.11-8.82h0a7.45,7.45,0,0,1,1.52-2.46,11.45,11.45,0,0,1,6.47-3.46,15.48,15.48,0,0,1,8,.38,15.22,15.22,0,0,1,4,2,2.24,2.24,0,0,0,.35.23h0l1.24,9.38h0Zm-1.07-8.84,1.11,8.79,20.43-2.7-1.22-9.32a3.1,3.1,0,0,1-.36-.22,14.52,14.52,0,0,0-4-2,15.36,15.36,0,0,0-8-.38,11.72,11.72,0,0,0-6.44,3.44A7.43,7.43,0,0,0,553.44,318.64Z" style="fill:#455a64"></path><path d="M570.28,325.38s-1.2-5.1-6.13-4.45a5.34,5.34,0,0,0-4.81,5.85Z" style="fill:#f5f5f5"></path><path d="M566.37,354.74a2.21,2.21,0,0,0,4.39-.58" style="fill:#e0e0e0"></path><path d="M564,355.05V355l.74-.1V355a5,5,0,0,0,.23.9l0,0-.7.29,0-.05A4.44,4.44,0,0,1,564,355.05Zm2.44,3.46,0-.05.31-.62,0,0a3.94,3.94,0,0,0,1.78.41l.47,0a3.56,3.56,0,0,0,.45-.09h.05l.19.74h0c-.19.05-.37.08-.55.11l-.54,0a4.81,4.81,0,0,1-2.12-.49l0,0Zm5.27-1.89,0,0a3.74,3.74,0,0,0,.63-1.73v0a3.62,3.62,0,0,0,0-.87v-.05l.76-.1v.05a4.51,4.51,0,0,1,0,1.1,4.68,4.68,0,0,1-.76,2.07l0,0Z" style="fill:#e0e0e0"></path><path d="M566.93,325.77a2.21,2.21,0,0,0-4.38.58" style="fill:#e0e0e0"></path><path d="M563.55,321.66h0a3,3,0,0,1,.55-.11,3.24,3.24,0,0,1,.55,0,4.72,4.72,0,0,1,2.15.5l0,0-.34.68,0,0a3.79,3.79,0,0,0-1.78-.42,3.38,3.38,0,0,0-.47,0l-.45.09,0,0Zm4.75,3,.71-.28v0a4.33,4.33,0,0,1,.28,1.07h0v.05l-.76.1v0a3.36,3.36,0,0,0-.23-.88Z" style="fill:#e0e0e0"></path><path d="M585.87,375.53l-.29-2.21,3.59-.39-9.2-69.8-3.59.39-.33-2.48,5.9-.77a2,2,0,0,1,2.29,1.75l9.3,70.48a2,2,0,0,1-1.73,2.25Z" style="fill:#263238"></path><path d="M585.87,375.53l.46-.08,1.29-.19,2.09-.31,1.32-.19a3.94,3.94,0,0,0,1.45-.34,1.9,1.9,0,0,0,.92-1.28,2.19,2.19,0,0,0,0-.88c0-.31-.08-.63-.13-1-.18-1.31-.37-2.73-.58-4.26-.42-3.06-.89-6.55-1.41-10.39-1-7.71-2.26-16.88-3.62-27-.68-5.1-1.39-10.44-2.12-16q-.56-4.15-1.12-8.45c-.1-.72-.19-1.44-.29-2.16-.05-.35-.09-.73-.14-1.06a1.8,1.8,0,0,0-.42-.85,1.86,1.86,0,0,0-1.78-.55l-2.2.29-3.48.46.22-.29c.11.84.22,1.66.32,2.47l-.28-.22,3.59-.39.25,0,0,.26c4.24,32.21,7.7,58.93,9,69.82V373h-.09l-3.59.35,0-.06c.08.72.14,1.27.18,1.66s0,.56,0,.56,0-.16-.09-.53-.15-.94-.26-1.68v-.05h.06l3.59-.42-.08.1c-1.52-10.87-5.11-37.57-9.37-69.78l.29.23-3.59.38-.26,0,0-.25c-.11-.81-.22-1.63-.33-2.47l0-.26.26,0,3.49-.46,2.19-.29a2.33,2.33,0,0,1,2.23.72,2.22,2.22,0,0,1,.55,1.09c.06.39.1.73.15,1.1.09.72.19,1.44.28,2.15q.57,4.29,1.11,8.45c.73,5.54,1.43,10.89,2.09,16l3.51,27.07c.5,3.85.94,7.34,1.34,10.4.19,1.53.37,2.95.54,4.27l.12,1a2.39,2.39,0,0,1,0,1,2.08,2.08,0,0,1-1,1.41,4.2,4.2,0,0,1-1.53.34l-1.35.16-2.11.25-1.28.15A2.34,2.34,0,0,1,585.87,375.53Z" style="fill:#455a64"></path><path d="M547.45,339.32h24.82a0,0,0,0,1,0,0V342a1.79,1.79,0,0,1-1.79,1.79H549.24a1.79,1.79,0,0,1-1.79-1.79v-2.66A0,0,0,0,1,547.45,339.32Z" transform="translate(825.3 -258.16) rotate(82.49)" style="fill:#FF0000"></path><path d="M566.91,351c-.14,0-.86-4.55-1.61-10.2s-1.23-10.24-1.09-10.26a101.2,101.2,0,0,1,1.61,10.2C566.56,346.4,567.05,351,566.91,351Z" style="fill:#263238"></path><path d="M569.37,350.69a97.4,97.4,0,0,1-1.61-10.19c-.74-5.65-1.23-10.24-1.09-10.26s.86,4.54,1.61,10.19S569.51,350.67,569.37,350.69Z" style="fill:#263238"></path><path d="M571.82,350.37c-.14,0-.86-4.55-1.6-10.19a98.08,98.08,0,0,1-1.09-10.27c.14,0,.86,4.55,1.6,10.2A97.77,97.77,0,0,1,571.82,350.37Z" style="fill:#263238"></path><path d="M559.89,330.9l.06.43-2.07.56H560l.05.39-2.77-.05-.07-.57Z" style="fill:#fff"></path><path d="M560.1,332.5l.06.42-1.11.15.06.46,1.11-.15.06.43-2.72.36-.06-.43,1.22-.16-.06-.46-1.22.16-.06-.43Z" style="fill:#fff"></path><path d="M557.75,334.55a.72.72,0,0,1,.48-.22l.16,0,.05.4-.18,0c-.18,0-.26.11-.24.26a.22.22,0,0,0,.09.16.32.32,0,0,0,.21,0,.64.64,0,0,0,.29-.12,1.46,1.46,0,0,0,.28-.33,1.44,1.44,0,0,1,.37-.42.82.82,0,0,1,.41-.16.71.71,0,0,1,.52.09.66.66,0,0,1,.24.45.6.6,0,0,1-.11.49.78.78,0,0,1-.49.23h-.11l-.06-.4.14,0a.38.38,0,0,0,.2-.08.2.2,0,0,0,0-.17c0-.14-.11-.2-.29-.18a.54.54,0,0,0-.26.11,1.53,1.53,0,0,0-.27.34,1.8,1.8,0,0,1-.38.42,1,1,0,0,1-.43.16.73.73,0,0,1-.54-.1.62.62,0,0,1-.24-.45A.63.63,0,0,1,557.75,334.55Z" style="fill:#fff"></path><path d="M555.66,334.85a88.74,88.74,0,0,1-1.52-9.55,91.09,91.09,0,0,1-1-9.63,91.76,91.76,0,0,1,1.52,9.56A90.78,90.78,0,0,1,555.66,334.85Z" style="fill:#455a64"></path><path d="M560.4,321s.08-.38.46-.82a5,5,0,0,1,4.1-1.66c.58,0,.92.2.9.26a13.78,13.78,0,0,0-2.94.57A13,13,0,0,0,560.4,321Z" style="fill:#455a64"></path><path d="M559,320.14a6.28,6.28,0,0,1,6.84-2.92,10.3,10.3,0,0,0-6.84,2.92Z" style="fill:#455a64"></path><path d="M557.69,318.08a8.41,8.41,0,0,1,8.7-2.63,19.83,19.83,0,0,0-4.59.54A18.56,18.56,0,0,0,557.69,318.08Z" style="fill:#455a64"></path><path d="M566.09,360.41c0-.15,1.26.21,2.77.23s2.74-.3,2.78-.15a5.78,5.78,0,0,1-5.55-.08Z" style="fill:#455a64"></path><path d="M565.07,361a20.22,20.22,0,0,0,3.77.62,19.09,19.09,0,0,0,3.77-.64,6.75,6.75,0,0,1-7.54,0Z" style="fill:#455a64"></path><path d="M560.19,326.68h0a4.85,4.85,0,0,1,0-1.08,4.7,4.7,0,0,1,.77-2.06l0,0,.64.43,0,0a3.88,3.88,0,0,0-.64,1.72,4.63,4.63,0,0,0,0,.91v0l-.75.1Z" style="fill:#FF0000"></path><path d="M614,344l-7.32-5.65a17.91,17.91,0,0,0-13.15-6.29l-5.13-.78.45,4.54s-22.78-1-21.43,2.95l0,.78V340l16.69,1.12s-14.2,0-15.05,0-4-.24-3.9,1.43c.05,1.37,1.67,2.45,4.13,2.81,1,.14,13.3,1.21,13.3,1.21l-13.53-.12c-1.52,0-2.12,2.13-.25,3.41s18.41,3.59,18.41,3.59-3.45,3-5.83,2.81-6.46-3.23-7.31-1.78-.68,2.29-.17,2.63a60.72,60.72,0,0,0,8,3.74c1.87.51,17.71.62,17.71.62l12.08.69Z" style="fill:#ffbf9d"></path><path d="M589.39,341a15.3,15.3,0,0,1-2.95.13c-1.83,0-4.35-.07-7.12-.23s-5.29-.35-7.1-.49a16.13,16.13,0,0,1-2.93-.34,16.51,16.51,0,0,1,3,0c1.82.05,4.34.18,7.11.34l7.1.38A18,18,0,0,1,589.39,341Z" style="fill:#ff9a6c"></path><path d="M590.18,346.72A7.86,7.86,0,0,1,588,347c-1.32.07-3.15.1-5.18,0s-3.85-.24-5.17-.41a8,8,0,0,1-2.11-.41c0-.15,3.28.15,7.3.3S590.18,346.57,590.18,346.72Z" style="fill:#ff9a6c"></path><path d="M672.06,244.85l-18-13.36c-1.15,11.5,0,18.4-2.76,26.25-1.54,4.38-3.86,8.63-4,13.28-.23,7.08,4.62,13.49,4.84,20.57.27,8.89-8.2,17-17.08,16.43,4.58,6.82,14.48,8.92,22,5.58s12.42-11.21,13.43-19.36c.63-5.19-.12-10.59,1.47-15.58,1.07-3.36,3.15-6.31,4.48-9.58A23.54,23.54,0,0,0,672.06,244.85Z" style="fill:#263238"></path></g></svg>